<svg id="svg" version="1.1" xmlns="http://www.w3.org/2000/svg" xmlns:xlink="http://www.w3.org/1999/xlink" width="400" height="240" viewBox="0, 0, 400,240"><g id="svgg"><path id="path0" d="M97.479 21.407 C 96.375 21.724,95.619 22.452,95.433 23.379 C 95.350 23.792,95.225 24.332,95.154 24.580 C 95.064 24.899,95.115 24.976,95.330 24.843 C 95.511 24.731,95.572 24.753,95.483 24.898 C 95.401 25.031,94.547 25.202,93.585 25.279 C 90.175 25.550,89.555 26.153,89.329 29.412 L 89.196 31.333 87.677 31.500 C 84.059 31.899,83.370 32.658,83.151 36.488 L 83.000 39.136 81.656 39.156 C 76.935 39.227,74.798 41.084,75.218 44.749 C 75.263 45.142,75.068 45.212,73.709 45.291 C 70.386 45.483,69.466 46.329,69.228 49.411 L 69.079 51.345 67.853 51.502 C 65.826 51.762,64.988 52.068,64.106 52.874 L 63.266 53.642 63.179 56.353 L 63.093 59.064 61.859 59.071 C 57.022 59.102,55.666 60.133,55.360 64.015 L 55.271 65.144 53.631 65.232 C 50.517 65.398,49.503 66.417,49.285 69.599 L 49.155 71.488 47.869 71.621 C 47.087 71.702,46.279 71.969,45.810 72.303 L 45.039 72.852 45.629 73.017 C 46.075 73.141,45.948 73.187,45.107 73.205 C 43.342 73.243,43.337 73.260,43.337 79.328 C 43.337 86.499,43.356 86.535,47.189 86.829 L 49.220 86.986 49.221 88.931 C 49.223 92.212,49.528 92.808,51.241 92.887 C 51.627 92.904,51.951 92.945,51.961 92.978 C 51.972 93.011,52.215 93.496,52.501 94.058 L 53.021 95.078 52.032 95.078 L 51.043 95.078 51.992 96.053 L 52.941 97.028 53.061 96.158 L 53.181 95.289 54.130 96.264 L 55.079 97.239 54.130 97.247 L 53.181 97.254 54.846 98.087 C 55.762 98.545,56.680 98.893,56.887 98.860 C 57.097 98.826,57.233 98.943,57.195 99.125 C 57.027 99.922,58.757 101.641,58.998 100.917 C 59.364 99.819,63.145 102.566,63.145 103.929 C 63.145 104.194,63.253 104.694,63.385 105.040 C 63.559 105.498,63.550 105.624,63.353 105.503 C 63.191 105.402,63.124 105.468,63.187 105.669 C 63.715 107.358,75.940 107.547,76.833 105.879 C 77.137 105.311,77.136 105.094,76.831 105.282 C 76.525 105.471,76.528 105.322,76.843 104.631 C 76.985 104.320,77.565 103.883,78.169 103.633 C 78.825 103.362,79.589 102.764,80.137 102.094 L 81.032 100.999 81.169 101.940 C 81.282 102.721,81.339 102.799,81.504 102.401 C 81.934 101.366,82.913 100.328,83.988 99.768 L 85.114 99.182 84.034 99.146 L 82.953 99.111 83.794 98.901 C 84.256 98.786,84.904 98.738,85.234 98.794 C 86.425 98.997,89.602 97.468,88.549 97.199 C 88.304 97.136,88.328 96.934,88.655 96.279 L 89.075 95.438 89.075 96.218 C 89.076 96.818,89.179 96.999,89.521 96.999 C 89.906 96.999,89.989 96.729,90.131 95.031 C 90.221 93.949,90.407 92.929,90.543 92.765 C 90.679 92.601,90.834 91.307,90.886 89.890 C 91.002 86.769,90.843 86.938,93.692 86.896 C 96.587 86.853,96.752 86.742,96.898 84.748 C 97.060 82.544,98.594 80.918,100.621 80.802 C 101.336 80.761,101.999 80.715,102.095 80.700 C 102.471 80.640,103.007 79.274,102.698 79.161 C 102.053 78.926,104.221 78.731,106.723 78.799 C 108.960 78.861,109.355 78.929,109.303 79.247 C 109.270 79.454,109.618 80.373,110.076 81.288 L 110.909 82.953 110.927 81.993 L 110.945 81.032 111.285 81.985 C 111.502 82.596,111.538 82.991,111.385 83.085 C 111.227 83.183,111.229 83.451,111.391 83.878 C 111.654 84.570,112.816 85.189,113.073 84.774 C 113.168 84.620,113.562 84.656,114.173 84.874 L 115.126 85.213 114.166 85.231 L 113.205 85.250 114.870 86.083 C 115.786 86.541,116.650 86.903,116.791 86.887 C 117.472 86.810,117.771 86.920,117.445 87.127 C 117.179 87.295,117.200 87.579,117.564 88.743 C 118.138 90.580,118.920 91.544,119.130 90.675 C 119.192 90.420,119.405 90.444,120.168 90.789 L 121.128 91.224 120.168 91.240 L 119.208 91.256 119.864 91.612 C 120.224 91.807,121.077 92.073,121.758 92.202 C 123.260 92.487,123.555 92.850,123.715 94.612 C 123.866 96.279,124.905 97.745,125.132 96.612 C 125.198 96.284,125.279 96.302,125.667 96.732 C 126.088 97.198,126.091 97.239,125.707 97.239 C 124.343 97.239,126.902 98.636,128.571 98.803 C 129.028 98.848,129.263 98.992,129.212 99.195 C 129.169 99.371,129.268 99.923,129.432 100.421 C 129.653 101.093,129.664 101.543,129.474 102.164 L 129.217 103.001 130.116 103.001 C 130.843 103.001,131.068 103.117,131.289 103.602 C 131.440 103.932,131.916 104.418,132.348 104.682 L 133.133 105.160 132.113 105.161 C 130.209 105.163,130.712 106.027,132.713 106.191 C 133.604 106.264,135.512 106.451,136.952 106.605 C 139.518 106.880,147.433 106.796,149.880 106.467 C 151.104 106.303,151.691 105.162,150.552 105.162 C 149.879 105.162,150.887 104.098,151.763 103.884 C 152.607 103.677,153.596 102.643,153.789 101.767 C 153.945 101.055,154.845 100.447,155.116 100.871 C 155.364 101.258,156.132 100.443,156.526 99.376 C 156.909 98.337,156.937 98.317,158.230 98.170 C 158.952 98.088,159.865 97.872,160.257 97.690 L 160.970 97.359 160.077 97.239 L 159.184 97.119 160.084 96.158 L 160.983 95.198 161.121 96.158 L 161.259 97.119 161.662 96.226 C 161.884 95.735,162.065 94.801,162.065 94.149 L 162.065 92.965 163.325 92.666 C 164.019 92.502,165.126 92.122,165.786 91.822 L 166.987 91.276 166.075 91.256 L 165.164 91.236 166.075 90.336 L 166.987 89.436 167.107 90.231 L 167.227 91.025 168.176 90.050 L 169.125 89.076 168.219 89.076 L 167.312 89.076 167.810 88.443 C 168.083 88.095,168.307 87.622,168.307 87.392 C 168.307 86.830,168.938 86.292,169.089 86.725 C 169.284 87.282,170.149 86.250,170.500 85.042 C 170.957 83.470,170.959 75.339,170.502 74.258 C 170.197 73.534,169.502 73.065,169.090 73.304 C 168.990 73.362,168.691 73.322,168.427 73.216 C 168.020 73.052,168.011 73.020,168.367 73.006 C 168.977 72.982,168.888 72.664,168.013 71.754 C 167.290 71.001,167.233 70.982,167.160 71.460 C 167.085 71.948,167.026 71.959,165.953 71.685 C 164.752 71.379,163.869 69.425,164.700 68.911 C 164.928 68.770,164.932 68.609,164.716 68.206 C 164.428 67.669,163.376 67.130,163.030 67.344 C 162.923 67.410,162.771 67.297,162.693 67.093 C 162.611 66.880,162.652 66.784,162.788 66.868 C 163.178 67.109,163.057 66.599,162.586 66.018 C 162.205 65.547,161.823 65.451,159.679 65.285 C 156.726 65.056,157.112 65.426,156.831 62.557 C 156.536 59.541,156.428 59.437,153.385 59.207 C 150.785 59.010,150.789 59.014,150.784 56.759 C 150.780 54.817,150.448 53.638,149.810 53.296 C 149.250 52.996,149.032 52.997,149.218 53.299 C 149.304 53.437,149.201 53.473,148.972 53.385 C 148.707 53.284,148.668 53.180,148.851 53.067 C 149.442 52.701,147.248 51.621,145.914 51.621 C 144.914 51.621,144.538 51.256,144.538 50.288 C 144.538 48.832,143.485 46.672,143.088 47.313 C 142.980 47.488,142.872 47.445,142.773 47.187 C 142.685 46.957,142.721 46.855,142.860 46.940 C 143.251 47.182,143.128 46.670,142.655 46.085 C 142.267 45.606,141.909 45.518,139.764 45.369 C 136.828 45.165,137.155 45.467,136.952 42.772 C 136.722 39.730,136.617 39.623,133.602 39.327 C 130.828 39.054,130.862 39.087,130.852 36.735 C 130.845 34.770,130.567 33.991,129.662 33.399 C 129.314 33.171,129.147 33.136,129.256 33.313 C 129.506 33.721,129.127 33.692,128.557 33.261 C 128.097 32.913,128.097 32.908,128.565 32.901 C 129.699 32.883,128.089 31.935,126.405 31.630 L 124.731 31.327 124.560 29.955 C 124.336 28.163,123.207 26.428,123.152 27.791 C 123.138 28.149,123.106 28.140,122.935 27.731 C 122.825 27.467,122.785 27.030,122.846 26.760 C 123.065 25.787,122.218 25.411,119.486 25.272 L 116.977 25.144 116.885 23.509 C 116.777 21.603,116.779 21.605,115.436 21.358 C 113.921 21.078,98.478 21.120,97.479 21.407 M97.239 84.034 C 97.239 84.562,97.284 84.994,97.339 84.994 C 97.394 84.994,97.781 84.562,98.199 84.034 L 98.960 83.073 98.099 83.073 C 97.256 83.073,97.239 83.092,97.239 84.034 M34.214 86.387 L 33.253 86.794 34.214 86.921 L 35.174 87.048 34.094 87.541 C 33.254 87.924,32.996 87.963,32.936 87.714 C 32.820 87.240,32.574 87.321,31.858 88.068 C 31.128 88.830,31.074 89.007,31.537 89.118 C 31.798 89.180,31.778 89.384,31.435 90.156 L 31.008 91.116 30.975 90.156 L 30.943 89.196 30.434 90.208 C 29.971 91.129,29.827 91.232,28.828 91.356 C 25.750 91.738,25.107 91.947,24.187 92.867 L 23.284 93.770 23.132 96.432 L 22.980 99.093 20.433 99.253 C 17.021 99.466,15.861 100.347,15.510 102.991 C 15.421 103.660,15.280 104.386,15.197 104.604 C 15.084 104.898,15.133 104.950,15.385 104.806 C 15.657 104.651,15.667 104.675,15.435 104.926 C 15.274 105.100,14.545 105.274,13.814 105.313 C 11.070 105.461,11.164 105.085,11.164 115.846 C 11.164 127.037,11.063 126.629,13.910 126.927 C 15.524 127.096,15.365 126.850,15.735 129.742 C 15.851 130.652,16.090 131.132,16.808 131.903 L 17.732 132.893 19.850 132.946 C 21.015 132.975,22.212 133.002,22.509 133.006 C 22.998 133.013,23.050 133.132,23.062 134.274 C 23.093 137.441,23.376 138.677,24.239 139.409 C 25.778 140.713,25.875 140.746,28.357 140.799 L 30.748 140.850 31.889 141.974 C 32.870 142.940,33.166 143.097,34.004 143.097 C 34.559 143.097,35.430 143.336,36.027 143.652 C 37.281 144.315,37.973 144.090,39.900 142.394 L 41.025 141.403 41.112 142.190 L 41.199 142.977 41.693 141.949 C 42.320 140.644,42.868 140.233,43.998 140.224 C 44.735 140.217,44.898 140.129,44.898 139.736 C 44.898 139.345,44.730 139.251,43.998 139.231 L 43.097 139.207 43.938 139.002 C 44.400 138.889,44.969 138.854,45.203 138.924 C 45.923 139.139,48.980 137.831,48.980 137.307 C 48.980 137.190,48.747 137.095,48.462 137.095 C 47.982 137.095,47.973 137.064,48.329 136.670 C 48.541 136.436,48.821 135.977,48.952 135.649 C 49.166 135.112,49.191 135.154,49.204 136.074 C 49.217 136.930,49.297 137.095,49.700 137.095 C 50.131 137.095,50.180 136.935,50.180 135.527 C 50.180 134.664,50.342 133.570,50.540 133.096 C 50.738 132.622,50.900 131.592,50.900 130.807 C 50.900 128.689,52.592 127.011,54.729 127.011 C 56.734 127.011,56.766 126.941,56.867 122.434 L 56.952 118.652 58.002 118.568 C 58.718 118.511,59.072 118.583,59.117 118.794 C 59.165 119.018,59.537 118.927,60.453 118.469 C 61.757 117.818,63.296 115.637,62.709 115.273 C 62.558 115.179,62.539 114.254,62.656 112.725 C 62.820 110.598,62.783 110.162,62.333 108.902 C 61.857 107.570,61.224 106.846,61.224 107.634 C 61.224 107.934,61.100 107.928,60.356 107.594 L 59.487 107.203 60.296 107.070 L 61.104 106.937 60.144 106.514 C 59.616 106.281,58.677 106.030,58.057 105.955 C 56.832 105.807,56.816 105.787,56.279 103.764 C 56.092 103.061,55.782 102.197,55.590 101.843 L 55.241 101.200 55.222 102.161 L 55.203 103.121 54.847 102.466 C 54.652 102.106,54.197 101.651,53.837 101.455 L 53.181 101.100 54.096 101.090 C 55.398 101.076,55.024 100.747,53.007 100.131 C 50.362 99.325,50.224 99.245,49.786 98.267 L 49.380 97.359 49.211 98.199 C 49.119 98.661,49.025 98.878,49.003 98.679 C 48.981 98.481,48.755 97.887,48.499 97.359 C 48.244 96.831,48.032 96.277,48.027 96.128 C 48.023 95.979,47.839 95.709,47.619 95.528 C 47.263 95.234,47.322 95.183,48.160 95.062 L 49.100 94.927 48.405 94.635 C 48.023 94.475,47.159 94.080,46.485 93.757 C 45.535 93.302,45.233 93.243,45.139 93.490 C 44.879 94.178,43.060 93.072,42.881 92.117 C 42.793 91.652,42.590 91.218,42.429 91.153 C 42.268 91.088,42.333 91.026,42.573 91.015 C 43.045 90.995,42.959 90.273,42.399 89.556 C 42.244 89.358,41.912 88.764,41.661 88.235 L 41.204 87.275 41.060 88.115 C 40.930 88.877,40.899 88.905,40.729 88.413 C 40.626 88.114,40.199 87.684,39.779 87.458 L 39.016 87.046 39.976 86.920 L 40.936 86.795 39.911 86.374 C 38.557 85.819,35.535 85.826,34.214 86.387 M100.840 86.128 C 99.231 86.734,99.216 86.754,100.240 86.906 L 101.200 87.048 100.120 87.541 C 99.252 87.937,99.024 87.968,98.959 87.701 C 98.793 87.009,98.299 87.607,97.743 89.176 C 97.395 90.156,97.258 90.865,97.397 90.960 C 97.542 91.058,97.522 91.472,97.341 92.077 L 97.054 93.037 96.958 92.077 L 96.862 91.116 96.361 92.197 C 95.773 93.466,95.284 93.945,93.989 94.525 L 93.037 94.951 93.889 95.026 L 94.741 95.101 93.863 96.025 C 93.380 96.533,92.748 97.437,92.459 98.035 C 92.093 98.790,91.714 99.197,91.216 99.371 C 90.786 99.521,90.557 99.528,90.642 99.390 C 90.931 98.923,90.236 99.178,89.665 99.749 C 89.102 100.312,88.836 101.017,89.293 100.734 C 89.413 100.660,89.396 100.973,89.256 101.429 C 89.064 102.055,88.833 102.296,88.316 102.410 C 87.939 102.492,87.038 103.102,86.313 103.765 L 84.994 104.970 84.994 104.226 C 84.994 103.260,84.633 103.273,84.292 104.251 C 83.753 105.798,83.201 106.122,81.111 106.122 C 79.392 106.122,79.232 106.163,79.232 106.603 C 79.232 106.982,79.395 107.085,80.012 107.093 L 80.792 107.103 79.952 107.553 C 79.263 107.922,79.098 107.942,79.034 107.663 C 78.938 107.243,78.646 107.226,78.334 107.623 C 77.866 108.219,77.089 110.924,77.387 110.924 C 77.585 110.924,77.671 111.580,77.671 113.085 C 77.671 114.668,77.590 115.246,77.367 115.246 C 77.162 115.246,77.260 115.636,77.669 116.443 C 78.330 117.746,80.709 119.463,80.865 118.749 C 80.923 118.483,82.650 118.444,82.989 118.701 C 83.008 118.715,83.079 120.186,83.145 121.969 C 83.324 126.754,83.534 127.007,87.316 127.009 L 89.037 127.011 89.206 129.396 C 89.413 132.313,89.658 132.890,90.692 132.901 C 91.650 132.912,91.728 132.996,91.889 134.194 C 91.996 134.994,91.948 135.174,91.628 135.174 C 91.062 135.174,91.144 135.476,91.910 136.210 C 92.668 136.936,92.917 137.011,92.917 136.514 C 92.917 136.229,93.084 136.239,93.938 136.574 L 94.958 136.975 93.998 137.105 L 93.037 137.235 93.989 137.654 C 94.512 137.885,95.145 138.258,95.395 138.485 C 95.644 138.711,96.180 138.896,96.584 138.896 C 97.179 138.896,97.327 139.001,97.360 139.448 C 97.427 140.354,98.039 140.745,99.557 140.850 C 100.376 140.906,101.001 141.069,101.059 141.242 C 101.113 141.404,101.502 141.882,101.923 142.305 L 102.688 143.073 101.870 143.145 L 101.052 143.217 102.026 144.166 L 103.001 145.115 103.001 144.106 L 103.001 143.097 105.042 143.097 L 107.083 143.097 107.083 144.106 L 107.083 145.115 108.058 144.166 L 109.032 143.217 108.145 143.141 L 107.258 143.064 108.179 142.120 C 108.874 141.409,109.291 141.176,109.872 141.176 C 110.697 141.176,113.892 140.603,114.586 140.330 C 114.880 140.214,115.006 140.280,115.006 140.551 C 115.006 141.397,115.719 140.833,116.418 139.433 C 116.720 138.830,117.022 138.610,117.767 138.453 C 118.295 138.342,119.214 138.024,119.808 137.746 L 120.888 137.241 120.092 137.108 L 119.296 136.975 120.152 136.147 L 121.008 135.320 121.008 136.087 C 121.008 137.722,121.960 136.162,122.320 133.937 C 122.441 133.188,122.618 132.987,123.525 132.560 C 124.517 132.094,125.432 131.092,124.866 131.092 C 124.353 131.092,124.953 130.329,125.810 129.892 C 126.785 129.395,127.971 128.137,127.971 127.601 C 127.971 127.175,128.789 126.731,129.250 126.908 C 130.157 127.256,130.809 125.728,130.999 122.810 C 131.101 121.239,131.169 121.068,132.061 120.160 L 133.013 119.190 133.013 117.127 C 133.013 115.603,133.106 114.988,133.367 114.771 C 134.452 113.870,134.097 112.282,132.408 110.487 L 131.126 109.124 131.942 109.004 L 132.759 108.884 131.935 107.923 C 131.143 107.000,131.109 106.986,131.083 107.563 C 131.061 108.035,130.995 107.959,130.772 107.203 C 130.535 106.402,130.300 106.152,129.351 105.698 C 128.542 105.311,128.119 104.925,127.882 104.358 C 127.518 103.489,126.517 102.587,125.681 102.377 C 125.113 102.235,124.403 101.080,124.884 101.080 C 125.466 101.080,124.409 100.020,123.512 99.704 C 122.685 99.412,120.086 99.169,117.707 99.162 L 116.927 99.160 116.927 96.537 C 116.927 93.022,115.651 91.498,112.695 91.482 C 110.699 91.471,110.208 91.253,109.769 90.183 L 109.364 89.196 109.237 90.156 L 109.110 91.116 108.605 90.109 L 108.099 89.102 108.612 89.024 C 109.079 88.954,109.041 88.865,108.167 87.991 C 107.294 87.117,107.205 87.079,107.134 87.547 L 107.057 88.059 106.049 87.554 L 105.042 87.048 106.002 86.921 L 106.963 86.795 105.938 86.374 C 104.936 85.964,101.692 85.807,100.840 86.128 M43.217 92.077 C 43.217 92.886,43.251 92.917,44.105 92.917 L 44.992 92.917 44.178 92.077 C 43.730 91.615,43.330 91.236,43.290 91.236 C 43.250 91.236,43.217 91.615,43.217 92.077 M174.310 91.396 C 171.555 91.666,171.335 91.743,170.314 92.794 L 169.312 93.825 169.139 96.492 L 168.966 99.160 168.336 99.162 C 166.201 99.170,163.493 99.397,163.112 99.600 C 162.866 99.731,162.058 99.960,161.317 100.109 C 159.446 100.485,158.680 101.060,160.024 101.079 L 160.984 101.093 160.024 101.528 C 159.236 101.884,159.049 101.902,158.983 101.628 C 158.820 100.945,158.333 101.526,157.717 103.140 C 157.156 104.608,157.127 104.819,157.467 104.944 C 157.792 105.064,157.771 105.130,157.333 105.364 C 156.700 105.703,156.467 105.719,156.658 105.409 C 156.737 105.281,156.375 105.327,155.854 105.511 C 155.332 105.695,154.869 105.815,154.824 105.778 C 154.137 105.214,153.181 105.478,153.181 106.232 C 153.181 106.833,153.057 107.090,152.712 107.200 C 152.453 107.282,151.974 107.667,151.646 108.056 L 151.051 108.764 150.963 107.984 L 150.875 107.203 150.468 108.095 C 149.464 110.293,149.482 119.975,150.494 122.209 L 150.875 123.049 150.966 122.231 L 151.057 121.412 151.517 122.111 C 152.104 123.002,152.097 123.119,151.448 123.213 C 150.942 123.285,150.958 123.330,151.748 124.069 C 152.663 124.924,152.941 125.027,152.941 124.508 C 152.941 124.221,153.097 124.231,153.894 124.568 L 154.847 124.970 153.954 125.090 L 153.061 125.210 154.829 126.115 C 155.802 126.612,156.720 127.005,156.870 126.987 C 157.525 126.908,157.879 127.038,157.473 127.208 C 157.124 127.354,157.150 127.549,157.717 129.033 C 158.309 130.584,158.944 131.358,158.944 130.530 C 158.944 130.214,159.065 130.219,159.897 130.570 L 160.849 130.972 159.957 131.108 L 159.064 131.243 160.264 131.785 C 160.924 132.084,161.789 132.389,162.185 132.464 C 163.203 132.657,163.504 132.963,163.518 133.823 C 163.546 135.384,164.763 137.590,164.986 136.481 C 165.056 136.133,165.125 136.146,165.523 136.588 C 165.927 137.035,165.934 137.095,165.583 137.095 C 165.069 137.095,165.078 137.377,165.606 137.822 C 166.125 138.258,168.660 139.120,168.942 138.956 C 169.055 138.890,169.364 138.923,169.628 139.029 C 170.062 139.203,170.066 139.224,169.668 139.239 C 168.842 139.271,169.421 139.840,170.837 140.389 C 172.392 140.991,173.266 141.128,172.629 140.670 C 172.339 140.461,172.362 140.442,172.749 140.574 C 173.013 140.664,173.584 140.797,174.017 140.869 C 174.483 140.948,175.263 141.423,175.928 142.034 L 177.052 143.066 178.042 142.181 L 179.032 141.297 179.203 138.415 C 179.365 135.686,179.259 134.279,178.635 130.852 C 177.455 124.374,177.589 109.664,178.864 105.522 C 179.480 103.522,179.832 96.876,179.467 94.118 C 179.354 93.259,179.241 92.368,179.216 92.137 C 179.192 91.906,179.158 91.609,179.142 91.477 C 179.113 91.250,176.276 91.203,174.310 91.396 M91.957 96.158 L 91.142 96.999 92.030 96.999 C 92.884 96.999,92.917 96.967,92.917 96.158 C 92.917 95.696,92.884 95.318,92.844 95.318 C 92.804 95.318,92.405 95.696,91.957 96.158 M127.011 102.041 L 127.011 103.001 128.020 103.001 L 129.029 103.001 128.091 102.041 C 127.575 101.513,127.121 101.080,127.082 101.080 C 127.043 101.080,127.011 101.513,127.011 102.041 M85.954 102.161 L 85.140 103.001 86.027 103.001 C 86.881 103.001,86.915 102.970,86.915 102.161 C 86.915 101.699,86.882 101.321,86.842 101.321 C 86.802 101.321,86.402 101.699,85.954 102.161 M61.945 104.082 C 62.393 104.544,62.792 104.922,62.832 104.922 C 62.872 104.922,62.905 104.544,62.905 104.082 C 62.905 103.273,62.872 103.241,62.018 103.241 L 61.130 103.241 61.945 104.082 M79.232 104.129 L 79.232 105.016 80.072 104.202 C 80.534 103.754,80.912 103.354,80.912 103.314 C 80.912 103.274,80.534 103.241,80.072 103.241 C 79.263 103.241,79.232 103.275,79.232 104.129 M153.181 104.129 L 153.181 105.016 154.022 104.202 C 154.484 103.754,154.862 103.354,154.862 103.314 C 154.862 103.274,154.484 103.241,154.022 103.241 C 153.213 103.241,153.181 103.275,153.181 104.129 M66.146 125.315 C 63.640 125.553,62.694 126.087,63.234 126.960 C 63.488 127.371,62.951 127.735,61.752 127.962 C 61.066 128.092,60.180 128.366,59.784 128.571 L 59.064 128.944 59.056 128.037 C 59.045 126.745,58.463 127.551,58.085 129.384 C 57.932 130.126,57.651 131.086,57.460 131.519 C 57.270 131.951,57.180 132.512,57.260 132.765 C 57.362 133.085,57.248 133.309,56.885 133.503 C 56.528 133.694,56.416 133.698,56.528 133.517 C 56.774 133.119,56.587 133.181,54.813 134.085 L 53.181 134.918 54.082 134.926 C 55.212 134.936,55.205 135.102,54.032 136.076 L 53.090 136.857 53.016 136.001 L 52.941 135.145 51.992 136.120 L 51.043 137.095 52.012 137.095 L 52.982 137.095 52.481 138.175 C 52.005 139.204,51.583 139.450,50.585 139.279 C 50.478 139.261,49.837 139.410,49.161 139.611 C 48.485 139.812,47.303 139.976,46.535 139.976 C 45.298 139.976,45.138 140.031,45.138 140.456 C 45.138 140.857,45.298 140.936,46.108 140.936 L 47.077 140.936 46.048 141.957 L 45.018 142.977 44.894 142.137 L 44.771 141.297 44.366 142.377 C 43.267 145.315,42.829 156.867,43.763 158.294 C 44.165 158.907,45.127 159.269,44.755 158.666 C 44.650 158.496,44.689 158.454,44.857 158.558 C 45.008 158.651,45.592 158.818,46.155 158.929 L 47.179 159.131 46.098 159.168 L 45.018 159.205 45.932 159.687 C 46.435 159.953,47.366 160.231,48.000 160.307 L 49.153 160.443 49.294 162.394 C 49.556 166.018,50.092 166.596,53.421 166.844 L 55.342 166.987 55.410 167.827 C 55.757 172.130,57.343 173.396,61.978 173.069 L 63.107 172.989 63.186 175.679 L 63.265 178.370 64.203 179.329 C 65.166 180.315,66.498 180.792,68.284 180.792 L 69.077 180.792 69.232 182.619 C 69.510 185.909,70.283 186.674,73.617 186.955 L 75.327 187.100 75.469 188.621 C 75.776 191.907,76.884 192.888,80.414 192.998 L 83.007 193.078 83.175 195.730 C 83.417 199.554,84.074 200.275,87.677 200.673 L 89.196 200.840 89.329 202.761 C 89.554 206.014,90.152 206.597,93.558 206.884 L 95.282 207.030 95.450 208.247 C 95.838 211.072,95.724 211.044,106.975 211.044 C 117.662 211.044,116.927 211.223,116.927 208.626 L 116.927 206.963 118.788 206.957 C 121.770 206.948,122.975 206.528,122.901 205.522 C 122.832 204.596,122.950 204.170,123.141 204.657 C 123.422 205.372,124.310 204.077,124.493 202.684 C 124.574 202.066,124.662 201.400,124.688 201.203 C 124.720 200.960,125.267 200.749,126.392 200.545 C 128.102 200.235,129.318 199.542,128.598 199.288 C 128.320 199.190,128.373 199.094,128.823 198.882 C 129.147 198.729,129.352 198.702,129.278 198.822 C 129.013 199.251,129.826 199.030,130.255 198.556 C 130.583 198.194,130.715 197.578,130.785 196.095 C 130.936 192.854,130.806 193.037,132.958 193.036 C 136.620 193.033,136.722 192.938,136.997 189.256 L 137.164 187.035 138.750 187.024 C 140.512 187.013,142.313 186.723,142.609 186.403 C 142.945 186.041,143.180 185.035,142.886 185.216 C 142.718 185.320,142.677 185.237,142.773 184.986 C 142.879 184.711,142.976 184.678,143.097 184.874 C 143.396 185.357,144.261 183.971,144.421 182.756 C 144.502 182.138,144.589 181.477,144.614 181.287 C 144.643 181.060,145.208 180.839,146.255 180.646 C 147.862 180.349,149.387 179.438,148.841 179.100 C 148.672 178.996,148.719 178.885,148.972 178.788 C 149.201 178.700,149.304 178.736,149.218 178.874 C 149.032 179.176,149.250 179.177,149.810 178.877 C 150.448 178.535,150.780 177.356,150.784 175.414 C 150.789 173.177,150.765 173.199,153.506 172.996 C 156.616 172.766,156.689 172.691,156.913 169.529 C 157.054 167.537,157.154 167.104,157.474 167.090 C 160.599 166.953,162.173 166.665,162.586 166.156 C 163.057 165.574,163.178 165.063,162.788 165.304 C 162.652 165.388,162.611 165.292,162.693 165.080 C 162.771 164.876,162.939 164.773,163.065 164.851 C 163.525 165.135,164.209 164.141,164.464 162.818 C 164.607 162.074,164.773 161.236,164.832 160.956 C 164.919 160.546,165.180 160.415,166.181 160.282 C 166.863 160.192,167.756 159.937,168.165 159.716 L 168.908 159.315 167.947 159.163 C 167.331 159.066,167.202 158.998,167.587 158.974 C 167.917 158.953,168.346 158.836,168.541 158.712 C 168.767 158.569,168.951 158.580,169.051 158.741 C 169.334 159.199,170.175 158.512,170.492 157.565 C 171.293 155.170,170.652 145.538,169.582 143.899 L 169.148 143.234 169.028 144.034 L 168.908 144.834 168.522 143.978 C 168.149 143.148,168.153 143.119,168.642 143.045 C 169.100 142.976,169.058 142.879,168.191 142.013 C 167.294 141.115,167.230 141.089,167.155 141.593 L 167.074 142.130 166.070 141.599 L 165.066 141.069 166.026 140.943 L 166.987 140.816 165.666 140.282 C 163.712 139.491,162.456 139.280,159.691 139.277 C 156.704 139.273,157.078 139.663,156.950 136.422 L 156.843 133.715 155.825 132.775 C 154.830 131.857,153.796 131.489,151.621 131.281 C 150.903 131.213,150.900 131.206,150.772 129.402 C 150.502 125.609,149.868 125.274,142.977 125.287 C 137.840 125.297,136.464 125.465,134.574 126.315 L 133.373 126.855 134.214 126.993 L 135.054 127.131 134.103 127.424 C 133.395 127.642,133.110 127.647,132.983 127.443 C 132.862 127.247,132.640 127.283,132.202 127.570 C 131.402 128.094,130.971 128.867,131.418 128.974 C 131.686 129.038,131.689 129.197,131.435 129.892 L 131.129 130.732 131.111 129.952 C 131.077 128.492,129.893 128.841,129.888 130.312 C 129.886 130.939,129.728 132.101,129.537 132.893 C 129.345 133.685,129.185 135.432,129.180 136.775 L 129.172 139.217 126.230 139.336 C 122.921 139.470,120.626 139.778,119.850 140.193 C 119.232 140.524,119.163 140.936,119.725 140.936 C 120.078 140.936,120.073 140.992,119.674 141.432 C 119.282 141.865,119.208 141.879,119.089 141.541 C 118.799 140.714,117.001 143.915,117.186 144.929 C 117.286 145.479,117.156 145.853,116.969 145.558 C 116.824 145.329,116.354 145.445,115.014 146.038 L 113.249 146.819 114.188 146.939 L 115.126 147.059 114.118 147.563 L 113.109 148.067 113.037 147.576 C 112.971 147.121,112.898 147.144,112.065 147.877 C 111.104 148.722,110.970 149.018,111.489 149.142 C 111.750 149.204,111.730 149.408,111.387 150.180 L 110.960 151.140 110.933 150.180 L 110.905 149.220 110.565 149.845 C 109.805 151.244,109.244 154.107,109.244 156.586 C 109.244 159.219,109.110 159.328,108.417 157.263 C 108.173 156.537,107.817 155.761,107.626 155.539 C 107.312 155.174,107.355 155.128,108.081 155.050 C 108.856 154.967,108.822 154.934,107.083 154.098 C 105.677 153.422,105.265 153.308,105.202 153.579 C 105.150 153.807,105.025 153.851,104.842 153.707 C 104.688 153.586,104.238 153.400,103.842 153.292 L 103.121 153.097 103.962 152.939 L 104.802 152.781 103.957 152.401 C 102.772 151.868,102.368 151.316,102.197 149.996 C 102.116 149.366,101.858 148.502,101.625 148.075 L 101.202 147.299 101.124 148.101 C 101.054 148.825,101.007 148.870,100.643 148.562 C 100.422 148.374,99.700 148.031,99.040 147.800 C 97.064 147.107,97.064 147.107,97.959 146.938 L 98.800 146.779 97.891 146.372 C 96.925 145.939,96.753 145.659,96.182 143.577 C 95.672 141.719,95.100 140.974,95.076 142.137 L 95.059 142.977 94.725 142.363 C 94.541 142.025,94.086 141.599,93.714 141.415 L 93.037 141.082 93.998 140.944 L 94.958 140.806 93.568 140.271 C 92.804 139.977,92.056 139.736,91.905 139.736 C 90.957 139.736,90.051 139.114,89.660 138.194 L 89.244 137.215 89.100 138.055 L 88.956 138.896 88.622 137.591 C 88.438 136.873,88.033 136.031,87.722 135.719 C 86.979 134.977,86.996 134.937,88.055 134.918 C 88.934 134.903,88.913 134.883,87.172 134.073 C 86.191 133.616,85.327 133.329,85.251 133.433 C 85.176 133.538,84.628 133.495,84.034 133.338 L 82.953 133.052 83.946 133.033 L 84.939 133.013 84.000 131.993 C 83.484 131.432,82.662 130.162,82.174 129.172 C 81.315 127.429,81.283 127.397,81.202 128.173 C 81.120 128.963,81.111 128.968,80.635 128.533 C 80.369 128.290,79.431 127.855,78.551 127.567 C 76.970 127.050,76.962 127.043,77.911 127.012 L 78.872 126.980 78.031 126.576 C 77.569 126.353,77.129 126.088,77.054 125.986 C 76.597 125.370,69.905 124.958,66.146 125.315 M127.011 130.181 L 127.011 131.190 127.971 130.252 C 128.499 129.736,128.932 129.282,128.932 129.243 C 128.932 129.204,128.499 129.172,127.971 129.172 L 127.011 129.172 127.011 130.181 M83.073 131.853 C 83.073 132.727,82.968 132.695,82.742 131.753 C 82.648 131.361,82.683 131.092,82.829 131.092 C 82.963 131.092,83.073 131.435,83.073 131.853 M31.933 144.058 C 32.351 144.586,32.738 145.018,32.793 145.018 C 32.848 145.018,32.893 144.586,32.893 144.058 C 32.893 143.116,32.877 143.097,32.033 143.097 L 31.172 143.097 31.933 144.058 M39.136 144.106 L 39.136 145.115 40.096 144.178 C 40.624 143.662,41.056 143.208,41.056 143.169 C 41.056 143.129,40.624 143.097,40.096 143.097 L 39.136 143.097 39.136 144.106 M175.899 144.057 C 177.030 145.223,176.951 145.223,176.951 144.058 L 176.951 143.097 175.959 143.097 L 174.968 143.097 175.899 144.057 M177.191 144.111 L 177.191 145.125 177.729 144.531 C 178.025 144.205,178.469 143.748,178.716 143.517 C 179.148 143.113,179.129 143.097,178.178 143.097 L 177.191 143.097 177.191 144.111 " stroke="none" fill="#f4bc2d" fill-rule="evenodd"></path><path id="path1" d="M122.706 27.071 C 122.772 27.775,123.137 28.167,123.152 27.551 C 123.162 27.188,123.061 26.891,122.929 26.891 C 122.797 26.891,122.697 26.972,122.706 27.071 M128.557 33.261 C 129.155 33.713,129.434 33.710,129.258 33.253 C 129.182 33.055,128.889 32.897,128.606 32.901 C 128.102 32.908,128.101 32.916,128.557 33.261 M164.494 69.448 C 164.580 71.075,164.785 71.387,165.966 71.688 C 167.028 71.959,167.107 71.948,167.107 71.524 C 167.107 71.153,166.929 71.068,166.146 71.068 L 165.186 71.068 165.186 69.988 C 165.186 69.188,165.093 68.908,164.826 68.908 C 164.604 68.908,164.477 69.115,164.494 69.448 M228.694 70.740 C 228.039 71.395,228.250 90.888,228.917 91.376 C 229.308 91.661,231.800 91.717,244.293 91.717 L 259.202 91.717 260.273 92.257 L 261.345 92.797 261.409 98.896 C 261.487 106.311,261.499 106.287,257.743 106.382 C 254.855 106.455,248.851 106.910,248.530 107.080 C 248.055 107.332,250.385 107.547,255.215 107.697 C 259.221 107.821,259.444 107.853,260.197 108.427 L 260.984 109.028 260.984 115.343 C 260.984 122.429,261.084 123.035,262.330 123.555 C 263.342 123.978,281.824 124.049,283.013 123.634 C 284.062 123.269,284.096 123.037,284.210 115.566 C 284.338 107.084,283.556 108.020,290.837 107.648 C 293.896 107.492,296.447 107.355,296.507 107.344 C 296.566 107.332,296.495 107.203,296.348 107.056 C 296.187 106.895,293.948 106.675,290.718 106.501 C 287.485 106.328,285.139 106.096,284.814 105.919 C 283.993 105.472,283.961 93.035,284.779 92.294 C 285.262 91.857,285.968 91.831,300.613 91.717 C 312.739 91.622,316.008 91.531,316.255 91.285 C 316.498 91.041,316.581 88.776,316.634 80.943 L 316.702 70.912 316.083 70.630 C 314.977 70.126,229.200 70.234,228.694 70.740 M102.881 78.992 C 102.583 79.120,103.747 79.204,105.957 79.215 C 108.270 79.226,109.460 79.148,109.364 78.992 C 109.182 78.698,103.565 78.698,102.881 78.992 M99.859 80.840 C 98.435 81.061,95.716 85.234,96.996 85.234 C 97.130 85.234,97.239 84.748,97.239 84.154 L 97.239 83.073 99.160 83.073 L 101.080 83.073 101.080 81.873 C 101.080 81.053,100.985 80.684,100.780 80.708 C 100.615 80.728,100.201 80.788,99.859 80.840 M110.935 82.053 C 110.927 82.804,111.019 83.073,111.285 83.073 C 111.716 83.073,111.715 83.169,111.291 81.993 L 110.945 81.032 110.935 82.053 M113.085 84.874 C 113.085 85.139,113.354 85.231,114.106 85.224 L 115.126 85.213 114.166 84.867 C 112.990 84.443,113.085 84.443,113.085 84.874 M168.595 86.723 C 168.437 86.881,168.307 87.191,168.307 87.411 C 168.307 87.630,168.083 88.095,167.810 88.443 L 167.312 89.076 168.170 89.076 L 169.028 89.076 169.028 87.755 C 169.028 86.319,169.019 86.299,168.595 86.723 M93.157 86.899 L 91.116 87.035 90.960 88.355 C 90.721 90.372,90.732 91.236,90.996 91.236 C 91.128 91.236,91.236 90.750,91.236 90.156 L 91.236 89.076 92.197 89.076 L 93.157 89.076 93.157 88.115 C 93.157 87.157,93.160 87.155,94.103 87.155 C 94.624 87.155,95.116 87.047,95.198 86.915 C 95.280 86.783,95.313 86.695,95.272 86.719 C 95.231 86.744,94.280 86.825,93.157 86.899 M32.893 87.503 L 32.893 88.092 33.856 87.661 C 35.245 87.039,35.271 86.915,34.014 86.915 C 32.984 86.915,32.893 86.963,32.893 87.503 M39.482 87.283 C 39.738 87.476,40.032 87.635,40.134 87.635 C 40.237 87.635,40.482 87.932,40.679 88.295 L 41.037 88.956 41.047 87.935 L 41.056 86.915 40.036 86.922 C 39.087 86.930,39.048 86.955,39.482 87.283 M98.920 87.503 L 98.920 88.092 99.883 87.661 C 101.272 87.039,101.298 86.915,100.040 86.915 C 99.011 86.915,98.920 86.963,98.920 87.503 M105.162 87.029 C 105.162 87.092,105.594 87.352,106.122 87.608 L 107.083 88.072 107.083 87.493 C 107.083 86.978,106.977 86.915,106.122 86.915 C 105.594 86.915,105.162 86.966,105.162 87.029 M30.972 90.076 C 30.972 91.222,31.023 91.213,31.535 89.976 C 31.892 89.116,31.887 89.076,31.440 89.076 C 31.051 89.076,30.972 89.244,30.972 90.076 M108.551 90.036 C 108.806 90.564,109.066 90.996,109.129 90.996 C 109.192 90.996,109.244 90.564,109.244 90.036 C 109.244 89.181,109.180 89.076,108.665 89.076 L 108.087 89.076 108.551 90.036 M166.075 90.300 L 165.164 91.236 166.135 91.236 L 167.107 91.236 167.107 90.276 C 167.107 89.748,167.080 89.327,167.047 89.340 C 167.014 89.353,166.577 89.785,166.075 90.300 M119.088 90.750 C 119.088 91.165,119.237 91.234,120.108 91.218 C 120.669 91.207,120.966 91.138,120.768 91.065 C 120.570 90.991,120.111 90.780,119.748 90.597 C 119.135 90.288,119.088 90.299,119.088 90.750 M42.415 91.181 C 42.567 91.278,42.788 91.727,42.905 92.179 C 43.172 93.208,45.138 94.272,45.138 93.388 C 45.138 92.999,44.971 92.917,44.178 92.917 L 43.217 92.917 43.217 91.957 C 43.217 91.120,43.148 90.997,42.677 91.000 C 42.354 91.002,42.248 91.075,42.415 91.181 M97.018 92.017 C 97.028 92.578,97.091 92.875,97.157 92.677 C 97.678 91.110,97.691 90.996,97.346 90.996 C 97.095 90.996,97.004 91.277,97.018 92.017 M50.900 93.911 L 50.900 95.078 51.945 95.078 L 52.990 95.078 52.486 94.023 C 51.714 92.408,50.900 92.351,50.900 93.911 M47.622 95.517 C 47.840 95.759,48.019 96.035,48.019 96.131 C 48.019 96.226,48.221 96.758,48.468 97.312 C 48.715 97.866,48.977 98.481,49.050 98.679 C 49.122 98.878,49.190 98.148,49.201 97.059 L 49.220 95.078 48.222 95.078 C 47.271 95.078,47.243 95.098,47.622 95.517 M92.917 96.038 L 92.917 96.999 91.012 96.999 L 89.106 96.999 89.031 96.317 L 88.956 95.636 88.566 96.437 L 88.176 97.239 89.586 97.239 L 90.996 97.239 90.996 98.151 C 90.996 98.653,90.864 99.196,90.702 99.358 C 90.469 99.591,90.567 99.597,91.170 99.387 C 91.719 99.196,92.080 98.817,92.459 98.035 C 92.748 97.437,93.385 96.527,93.874 96.013 L 94.764 95.078 93.840 95.078 C 92.923 95.078,92.917 95.084,92.917 96.038 M53.061 96.279 L 53.061 97.239 54.070 97.239 L 55.079 97.239 54.142 96.279 C 53.626 95.750,53.172 95.318,53.133 95.318 C 53.093 95.318,53.061 95.750,53.061 96.279 M160.085 96.158 L 159.185 97.119 160.049 97.195 C 161.122 97.289,161.153 97.256,161.060 96.123 L 160.984 95.198 160.085 96.158 M125.090 96.759 C 125.090 97.090,125.250 97.239,125.607 97.239 C 126.110 97.239,126.112 97.225,125.690 96.759 C 125.451 96.495,125.218 96.279,125.173 96.279 C 125.127 96.279,125.090 96.495,125.090 96.759 M83.673 98.920 C 83.031 99.083,83.076 99.106,84.094 99.131 C 84.721 99.147,85.234 99.052,85.234 98.920 C 85.234 98.649,84.735 98.649,83.673 98.920 M59.064 101.954 L 59.064 103.241 60.984 103.241 L 62.905 103.241 62.905 104.172 C 62.905 104.716,63.058 105.230,63.273 105.409 C 63.596 105.677,63.611 105.634,63.393 105.062 C 63.257 104.704,63.145 104.194,63.145 103.929 C 63.145 103.009,61.327 101.185,60.140 100.913 L 59.064 100.667 59.064 101.954 M89.196 100.840 C 89.114 100.972,88.567 101.080,87.981 101.080 L 86.915 101.080 86.915 102.041 L 86.915 103.001 85.954 103.001 L 84.994 103.001 84.994 103.986 L 84.994 104.970 86.313 103.765 C 87.038 103.102,87.939 102.492,88.316 102.410 C 88.833 102.296,89.064 102.055,89.256 101.430 C 89.508 100.610,89.484 100.374,89.196 100.840 M154.464 100.839 C 154.166 100.960,153.880 101.353,153.789 101.767 C 153.596 102.643,152.607 103.677,151.763 103.884 C 150.887 104.098,149.879 105.162,150.552 105.162 C 150.975 105.162,151.020 105.337,151.020 106.981 L 151.020 108.800 151.631 108.074 C 151.967 107.675,152.453 107.282,152.712 107.200 C 153.126 107.068,153.181 106.825,153.181 105.146 L 153.181 103.241 154.142 103.241 L 155.102 103.241 155.102 101.921 C 155.102 101.194,155.075 100.607,155.042 100.615 C 155.009 100.624,154.749 100.725,154.464 100.839 M53.837 101.455 C 54.197 101.651,54.652 102.106,54.847 102.466 L 55.203 103.121 55.212 102.101 L 55.222 101.080 54.202 101.090 L 53.181 101.100 53.837 101.455 M80.106 102.135 C 79.589 102.766,78.811 103.368,78.169 103.633 C 77.322 103.984,76.592 104.723,76.590 105.233 C 76.590 105.260,77.131 105.245,77.791 105.199 L 78.992 105.116 78.992 106.576 L 78.992 108.035 79.872 107.619 L 80.752 107.203 79.992 107.128 L 79.232 107.052 79.232 105.147 L 79.232 103.241 80.192 103.241 L 81.152 103.241 81.152 102.161 C 81.152 100.839,81.168 100.839,80.106 102.135 M124.885 101.662 C 125.031 101.982,125.389 102.304,125.681 102.377 C 126.517 102.587,127.518 103.489,127.882 104.358 C 128.119 104.925,128.542 105.311,129.351 105.698 C 130.300 106.152,130.535 106.402,130.772 107.203 L 131.056 108.163 131.074 106.663 L 131.092 105.162 132.113 105.161 L 133.133 105.160 132.348 104.682 C 131.916 104.418,131.440 103.932,131.289 103.602 C 131.029 103.031,130.916 103.001,129.013 103.001 L 127.011 103.001 127.011 102.041 L 127.011 101.080 125.815 101.080 C 124.638 101.080,124.624 101.089,124.885 101.662 M158.944 101.567 C 158.944 102.018,158.991 102.029,159.604 101.720 C 159.967 101.536,160.426 101.326,160.624 101.252 C 160.822 101.179,160.525 101.110,159.964 101.099 C 159.093 101.083,158.944 101.152,158.944 101.567 M156.783 105.282 C 156.400 105.744,156.790 105.749,157.397 105.290 C 157.789 104.994,157.801 104.936,157.472 104.930 C 157.257 104.925,156.947 105.084,156.783 105.282 M59.564 107.166 C 60.274 107.756,61.224 107.973,61.224 107.545 C 61.224 107.173,61.053 107.083,60.344 107.083 C 59.860 107.083,59.509 107.120,59.564 107.166 M235.894 108.841 L 234.934 109.153 235.879 109.472 C 237.220 109.924,244.601 109.417,243.422 108.953 C 242.549 108.610,236.867 108.525,235.894 108.841 M303.361 108.667 C 303.097 108.730,302.611 108.844,302.281 108.919 L 301.681 109.055 302.242 109.270 C 303.224 109.645,309.515 109.813,310.324 109.485 L 311.044 109.194 310.444 108.944 C 309.822 108.684,304.206 108.465,303.361 108.667 M132.063 110.128 C 133.645 111.790,133.688 111.845,133.861 112.387 C 134.077 113.069,133.799 114.413,133.367 114.771 C 133.106 114.988,133.013 115.603,133.013 117.127 L 133.013 119.190 132.083 120.159 C 131.374 120.897,131.120 121.386,131.015 122.210 L 130.878 123.291 131.945 123.206 C 133.012 123.121,133.013 123.120,133.013 122.185 L 133.013 121.248 134.094 121.248 L 135.174 121.248 135.174 115.126 L 135.174 109.004 133.083 109.004 L 130.992 109.004 132.063 110.128 M227.431 110.701 C 225.840 111.185,226.943 111.790,229.292 111.721 C 230.971 111.672,232.128 111.264,231.727 110.863 C 231.364 110.500,228.452 110.390,227.431 110.701 M313.812 110.711 C 312.631 111.072,313.263 111.365,315.908 111.682 C 317.988 111.931,319.328 111.741,319.328 111.196 C 319.328 110.616,315.286 110.261,313.812 110.711 M62.665 112.335 C 62.665 113.111,62.598 114.083,62.515 114.496 C 62.396 115.090,62.446 115.246,62.755 115.246 C 63.086 115.246,63.145 114.920,63.145 113.085 C 63.145 111.805,63.047 110.924,62.905 110.924 C 62.772 110.924,62.665 111.555,62.665 112.335 M77.071 113.085 C 77.071 114.654,77.153 115.246,77.371 115.246 C 77.589 115.246,77.671 114.653,77.671 113.085 C 77.671 111.516,77.589 110.924,77.371 110.924 C 77.153 110.924,77.071 111.517,77.071 113.085 M320.168 112.472 C 319.618 112.899,320.352 113.806,321.248 113.806 C 322.123 113.806,323.133 114.446,324.337 115.764 L 325.578 117.123 325.152 118.271 C 324.510 120.001,322.341 121.757,320.175 122.301 C 319.271 122.528,318.087 122.974,317.543 123.292 C 316.919 123.659,315.706 124.008,314.242 124.243 C 312.969 124.448,311.459 124.787,310.886 124.996 C 309.519 125.496,306.428 126.003,303.001 126.290 C 299.830 126.556,294.610 127.160,292.677 127.484 C 285.799 128.639,254.564 128.305,249.296 127.020 C 248.743 126.886,246.312 126.615,243.894 126.419 C 239.852 126.091,236.081 125.475,234.562 124.893 C 234.225 124.764,232.865 124.486,231.540 124.275 C 228.980 123.868,227.611 123.484,227.611 123.172 C 227.611 123.067,226.828 122.792,225.870 122.562 C 223.861 122.078,223.474 121.904,222.334 120.972 C 221.875 120.596,221.401 120.288,221.282 120.288 C 220.823 120.288,220.168 119.219,220.168 118.470 C 220.168 118.039,220.102 117.513,220.020 117.301 C 219.922 117.046,220.185 116.621,220.797 116.044 C 221.305 115.564,221.832 114.951,221.967 114.680 C 222.101 114.410,222.789 113.967,223.495 113.697 C 224.893 113.161,225.064 112.837,224.117 112.521 C 223.282 112.242,222.064 112.505,221.075 113.176 C 220.623 113.482,219.721 113.935,219.070 114.182 C 216.511 115.152,213.230 119.808,215.106 119.808 C 215.209 119.808,215.486 120.235,215.721 120.757 C 215.969 121.306,216.542 121.966,217.078 122.321 C 217.589 122.659,218.007 123.033,218.007 123.152 C 218.007 123.270,218.784 123.664,219.734 124.027 C 220.684 124.390,221.834 124.940,222.289 125.249 C 222.744 125.558,223.304 125.810,223.533 125.810 C 224.371 125.810,227.515 126.718,228.331 127.197 C 228.940 127.553,230.092 127.793,232.515 128.066 C 234.826 128.327,236.161 128.597,236.837 128.941 C 237.896 129.480,238.810 129.599,247.758 130.370 C 250.850 130.637,253.768 130.954,254.241 131.075 C 254.715 131.196,256.101 131.369,257.322 131.459 C 259.247 131.602,259.670 131.716,260.503 132.320 L 261.465 133.016 261.465 154.155 C 261.465 176.695,261.428 175.951,262.602 177.014 C 263.034 177.405,263.814 177.432,273.131 177.374 L 283.193 177.311 283.733 176.240 L 284.274 175.168 284.274 154.007 C 284.274 134.110,284.299 132.817,284.699 132.357 C 285.166 131.818,287.594 131.334,289.842 131.331 C 290.543 131.330,291.495 131.225,291.957 131.096 C 292.845 130.850,295.543 130.565,302.041 130.032 C 304.792 129.806,306.633 129.521,308.066 129.098 C 309.201 128.763,311.405 128.312,312.963 128.097 C 314.521 127.881,316.239 127.538,316.781 127.334 C 317.323 127.130,319.010 126.616,320.528 126.192 C 322.047 125.767,323.685 125.147,324.168 124.812 C 324.652 124.478,325.547 124.064,326.158 123.893 C 326.769 123.722,327.454 123.354,327.680 123.075 C 327.906 122.797,328.484 122.276,328.963 121.918 C 329.443 121.560,329.910 120.966,330.002 120.598 C 330.094 120.229,330.326 119.755,330.516 119.543 C 331.391 118.571,328.418 114.346,326.803 114.266 C 326.587 114.256,325.978 113.989,325.450 113.675 C 323.094 112.270,321.032 111.801,320.168 112.472 M57.923 118.543 C 56.566 118.665,56.613 119.088,57.983 119.088 C 58.784 119.088,59.064 118.994,59.064 118.727 C 59.064 118.529,59.037 118.386,59.004 118.409 C 58.971 118.432,58.484 118.493,57.923 118.543 M80.912 118.702 C 80.912 118.999,81.161 119.088,81.993 119.088 C 82.587 119.088,83.073 118.980,83.073 118.848 C 83.073 118.715,82.758 118.607,82.373 118.607 C 81.987 118.607,81.501 118.542,81.292 118.462 C 81.043 118.366,80.912 118.449,80.912 118.702 M151.022 122.269 C 151.021 123.010,151.105 123.169,151.501 123.169 C 152.100 123.169,152.100 122.994,151.501 122.089 L 151.024 121.369 151.022 122.269 M152.941 124.604 C 152.941 125.019,153.091 125.087,153.962 125.071 C 154.523 125.061,154.820 124.992,154.622 124.918 C 154.424 124.844,153.965 124.634,153.601 124.451 C 152.989 124.141,152.941 124.152,152.941 124.604 M128.391 127.030 C 128.160 127.165,127.971 127.423,127.971 127.605 C 127.971 128.138,126.782 129.396,125.810 129.892 C 124.376 130.624,124.379 131.092,125.818 131.092 L 127.011 131.092 127.011 130.132 L 127.011 129.172 129.036 129.172 L 131.062 129.172 131.137 129.952 L 131.212 130.732 131.490 129.832 L 131.768 128.932 130.470 128.932 L 129.172 128.932 129.172 127.851 C 129.172 126.721,129.082 126.628,128.391 127.030 M52.041 128.220 C 50.393 129.892,50.368 131.092,51.981 131.092 L 53.061 131.092 53.061 130.132 L 53.061 129.172 54.142 129.172 L 55.222 129.172 55.222 128.091 L 55.222 127.011 54.202 127.037 C 53.316 127.060,53.031 127.216,52.041 128.220 M59.064 127.951 L 59.064 128.890 60.204 128.441 C 60.831 128.193,61.739 127.929,62.222 127.854 C 64.159 127.553,63.512 127.011,61.217 127.011 L 59.064 127.011 59.064 127.951 M78.551 127.567 C 79.431 127.855,80.376 128.297,80.652 128.549 C 81.152 129.006,81.152 129.006,81.152 128.008 L 81.152 127.011 79.052 127.027 L 76.951 127.043 78.551 127.567 M133.013 127.371 C 133.013 127.796,133.109 127.796,134.214 127.371 L 135.054 127.047 134.034 127.029 C 133.279 127.016,133.013 127.104,133.013 127.371 M158.944 130.606 C 158.944 131.021,159.093 131.090,159.964 131.073 C 160.525 131.063,160.822 130.994,160.624 130.920 C 160.426 130.847,159.967 130.636,159.604 130.453 C 158.991 130.144,158.944 130.155,158.944 130.606 M82.742 131.753 C 82.968 132.695,83.073 132.727,83.073 131.853 C 83.073 131.435,82.963 131.092,82.829 131.092 C 82.683 131.092,82.648 131.361,82.742 131.753 M56.760 133.288 C 56.305 133.801,56.305 133.802,56.843 133.520 C 57.140 133.364,57.383 133.132,57.383 133.005 C 57.383 132.664,57.268 132.716,56.760 133.288 M90.959 133.854 L 91.045 134.934 89.100 134.934 C 87.111 134.934,86.796 135.075,87.625 135.592 C 87.888 135.756,88.305 136.549,88.572 137.391 L 89.049 138.896 89.062 137.035 L 89.076 135.174 90.548 135.174 L 92.020 135.174 91.887 134.179 C 91.771 133.321,91.434 132.790,90.995 132.777 C 90.928 132.775,90.912 133.259,90.959 133.854 M83.433 133.175 C 83.697 133.233,84.211 133.377,84.574 133.495 C 85.089 133.661,85.234 133.632,85.234 133.361 C 85.234 133.102,84.942 133.020,84.094 133.041 C 83.466 133.056,83.169 133.117,83.433 133.175 M53.061 135.908 L 53.061 136.882 54.017 136.088 C 55.217 135.092,55.217 134.934,54.022 134.934 L 53.061 134.934 53.061 135.908 M48.980 135.502 C 48.980 135.682,48.756 136.114,48.482 136.462 L 47.984 137.095 48.602 137.095 C 49.163 137.095,49.220 137.006,49.220 136.134 C 49.220 135.606,49.166 135.174,49.100 135.174 C 49.034 135.174,48.980 135.322,48.980 135.502 M120.048 136.255 L 119.234 137.095 120.121 137.095 C 120.975 137.095,121.008 137.063,121.008 136.255 C 121.008 135.792,120.976 135.414,120.935 135.414 C 120.895 135.414,120.496 135.792,120.048 136.255 M92.917 136.627 C 92.917 137.016,93.086 137.095,93.918 137.095 C 95.063 137.095,95.054 137.045,93.818 136.532 C 92.957 136.176,92.917 136.180,92.917 136.627 M164.946 136.615 C 164.946 136.946,165.106 137.095,165.463 137.095 C 165.966 137.095,165.968 137.081,165.546 136.615 C 165.307 136.351,165.074 136.134,165.029 136.134 C 164.983 136.134,164.946 136.351,164.946 136.615 M50.864 138.245 C 50.747 139.853,51.728 139.799,52.490 138.156 L 52.982 137.095 51.964 137.095 L 50.947 137.095 50.864 138.245 M43.818 139.016 C 43.101 139.198,43.102 139.199,43.998 139.227 L 44.898 139.256 44.898 141.135 L 44.898 143.014 45.924 142.035 L 46.950 141.056 46.044 140.983 C 45.143 140.909,45.138 140.903,45.138 139.842 C 45.138 138.712,45.101 138.689,43.818 139.016 M113.445 140.606 C 112.785 140.788,111.523 141.005,110.641 141.089 C 109.185 141.228,108.953 141.328,108.131 142.170 L 107.225 143.097 110.155 143.097 L 113.085 143.097 113.085 142.137 L 113.085 141.176 114.046 141.176 C 114.846 141.176,115.006 141.096,115.006 140.696 C 115.006 140.155,115.070 140.159,113.445 140.606 M172.689 140.690 C 172.986 140.881,173.109 141.274,173.109 142.029 L 173.109 143.097 175.017 143.097 L 176.924 143.097 177.014 144.238 L 177.104 145.378 177.148 144.238 L 177.191 143.097 178.151 143.097 C 179.089 143.097,179.112 143.077,179.112 142.257 C 179.112 141.211,178.983 141.210,177.920 142.248 L 177.068 143.080 175.936 142.041 C 175.264 141.424,174.484 140.948,174.017 140.869 C 173.584 140.797,173.013 140.666,172.749 140.579 C 172.318 140.436,172.312 140.447,172.689 140.690 M26.891 141.861 L 26.891 143.097 29.892 143.097 L 32.893 143.097 32.893 144.178 L 32.893 145.258 36.014 145.258 L 39.136 145.258 39.136 144.178 L 39.136 143.097 40.096 143.097 C 41.038 143.097,41.056 143.081,41.056 142.236 L 41.056 141.376 39.916 142.380 C 37.973 144.091,37.283 144.316,36.027 143.652 C 35.430 143.336,34.559 143.097,34.004 143.097 C 33.171 143.097,32.870 142.940,31.929 142.013 C 30.847 140.947,30.795 140.926,28.859 140.777 L 26.891 140.625 26.891 141.861 M98.920 141.894 L 98.920 143.097 100.816 143.097 L 102.713 143.097 101.935 142.317 C 101.508 141.888,101.113 141.418,101.059 141.273 C 101.005 141.128,100.501 140.938,99.940 140.850 L 98.920 140.691 98.920 141.894 M93.503 141.304 C 93.760 141.498,94.053 141.657,94.156 141.657 C 94.258 141.657,94.504 141.954,94.701 142.317 L 95.059 142.977 95.068 141.957 L 95.078 140.936 94.058 140.944 C 93.108 140.951,93.070 140.976,93.503 141.304 M119.088 141.454 C 119.088 141.956,119.102 141.958,119.568 141.537 C 119.832 141.298,120.048 141.065,120.048 141.019 C 120.048 140.974,119.832 140.936,119.568 140.936 C 119.236 140.936,119.088 141.096,119.088 141.454 M165.186 141.052 C 165.186 141.115,165.618 141.387,166.146 141.657 L 167.107 142.147 167.107 141.541 C 167.107 140.996,167.013 140.936,166.146 140.936 C 165.618 140.936,165.186 140.988,165.186 141.052 M103.001 144.178 L 103.001 145.258 105.042 145.258 L 107.083 145.258 107.083 144.178 L 107.083 143.097 105.042 143.097 L 103.001 143.097 103.001 144.178 M168.483 143.878 C 169.010 144.964,169.028 144.967,169.028 143.978 C 169.028 143.269,168.938 143.097,168.566 143.097 C 168.127 143.097,168.123 143.136,168.483 143.878 M97.371 147.130 C 97.496 147.236,98.193 147.522,98.920 147.765 C 99.646 148.009,100.429 148.372,100.660 148.571 C 101.051 148.909,101.080 148.865,101.080 147.936 L 101.080 146.939 99.112 146.939 C 98.029 146.939,97.245 147.025,97.371 147.130 M113.085 147.509 L 113.085 148.079 114.046 147.604 C 114.574 147.343,115.006 147.086,115.006 147.034 C 115.006 146.982,114.574 146.939,114.046 146.939 C 113.195 146.939,113.085 147.004,113.085 147.509 M110.924 150.100 C 110.924 151.246,110.975 151.237,111.487 150.000 C 111.844 149.140,111.839 149.100,111.392 149.100 C 111.003 149.100,110.924 149.268,110.924 150.100 M103.721 153.222 C 104.052 153.359,104.511 153.569,104.742 153.688 C 105.075 153.860,105.162 153.805,105.162 153.423 C 105.162 153.014,105.009 152.944,104.142 152.957 C 103.206 152.972,103.171 152.994,103.721 153.222 M107.611 155.522 C 107.811 155.753,108.173 156.537,108.417 157.263 C 109.088 159.261,109.244 159.225,109.244 157.071 L 109.244 155.102 108.246 155.102 C 107.318 155.102,107.274 155.131,107.611 155.522 M44.806 158.811 C 44.909 159.080,45.261 159.176,46.064 159.157 L 47.179 159.131 46.155 158.929 C 45.592 158.818,45.026 158.662,44.897 158.583 C 44.765 158.501,44.726 158.601,44.806 158.811 M168.720 158.611 C 168.638 158.693,168.215 158.844,167.779 158.947 C 166.987 159.134,166.987 159.135,168.007 159.159 C 168.765 159.177,169.028 159.091,169.028 158.824 C 169.028 158.434,168.950 158.381,168.720 158.611 M128.691 198.940 C 128.125 199.254,128.120 199.273,128.606 199.276 C 128.889 199.278,129.182 199.118,129.258 198.920 C 129.335 198.721,129.373 198.570,129.344 198.583 C 129.315 198.596,129.022 198.756,128.691 198.940 " stroke="none" fill="#ddf0e8" fill-rule="evenodd"></path><path id="path2" d="M254.502 21.301 C 253.671 21.458,253.301 21.812,253.301 22.452 C 253.301 22.990,253.257 22.998,249.724 23.084 C 245.828 23.179,245.138 23.414,245.138 24.647 C 245.138 25.201,245.099 25.210,242.670 25.210 C 239.928 25.210,239.136 25.509,239.136 26.544 C 239.136 27.113,239.082 27.131,237.383 27.131 C 235.464 27.131,235.054 27.345,235.054 28.348 L 235.054 28.989 232.546 29.100 C 229.846 29.220,229.365 29.417,229.246 30.450 C 229.180 31.020,229.057 31.101,228.151 31.166 C 227.136 31.240,227.131 31.245,227.131 32.187 L 227.131 33.133 225.378 33.133 C 223.446 33.133,223.049 33.346,223.049 34.382 C 223.049 35.044,223.028 35.054,221.593 35.054 C 219.695 35.054,219.208 35.323,219.208 36.369 C 219.208 37.160,219.174 37.190,218.187 37.261 C 217.205 37.332,217.164 37.367,217.094 38.202 L 217.022 39.069 215.414 39.218 C 213.770 39.372,213.205 39.723,213.205 40.591 C 213.205 40.876,212.924 41.040,212.247 41.148 C 211.351 41.292,211.280 41.363,211.136 42.259 C 210.994 43.150,210.928 43.217,210.199 43.217 C 209.374 43.217,209.124 43.526,209.124 44.543 C 209.124 45.024,208.988 45.120,208.223 45.184 C 207.374 45.254,207.319 45.309,207.249 46.145 C 207.178 47.002,207.141 47.035,206.169 47.106 C 205.172 47.178,205.161 47.189,205.089 48.186 C 205.018 49.157,204.985 49.195,204.129 49.266 C 203.295 49.335,203.237 49.393,203.168 50.226 C 203.098 51.060,203.040 51.118,202.207 51.187 C 201.371 51.256,201.316 51.312,201.246 52.161 C 201.179 52.975,201.105 53.061,200.483 53.061 C 199.600 53.061,199.040 53.627,199.040 54.519 C 199.040 55.138,198.955 55.222,198.328 55.222 C 197.539 55.222,197.119 55.759,197.119 56.767 C 197.119 57.290,197.011 57.383,196.407 57.383 C 195.479 57.383,195.198 57.934,195.198 59.754 L 195.198 61.197 194.178 61.271 C 193.193 61.342,193.155 61.375,193.084 62.221 C 193.019 63.003,192.925 63.113,192.210 63.247 C 191.281 63.421,191.125 63.795,191.120 65.846 L 191.116 67.227 190.156 67.227 L 189.196 67.227 189.196 69.134 L 189.196 71.041 188.175 71.115 L 187.155 71.188 187.085 73.155 L 187.016 75.122 186.125 75.196 L 185.234 75.270 185.164 77.251 L 185.095 79.232 184.144 79.232 L 183.193 79.232 183.193 81.122 L 183.193 83.012 182.261 83.161 C 181.101 83.346,181.040 83.544,181.036 87.112 C 181.033 89.583,180.998 89.796,180.655 89.453 C 180.181 88.979,179.963 88.979,179.489 89.453 C 179.049 89.893,179.000 90.419,179.377 90.652 C 179.563 90.767,179.544 90.879,179.317 91.023 C 179.070 91.179,179.108 91.236,179.472 91.258 C 179.736 91.274,180.164 91.303,180.422 91.322 C 180.746 91.346,180.960 91.618,181.108 92.197 C 181.227 92.659,181.475 93.445,181.659 93.942 C 182.150 95.274,182.098 97.136,181.558 97.525 C 180.815 98.061,180.787 98.261,180.644 104.006 C 180.507 109.507,180.144 112.540,179.534 113.275 C 178.346 114.707,178.237 120.172,179.349 122.527 C 180.706 125.398,181.070 137.342,179.849 138.887 C 178.700 140.339,178.995 146.432,180.230 146.800 L 180.974 147.022 181.083 149.655 C 181.200 152.492,181.412 152.941,182.639 152.941 C 183.175 152.941,183.193 153.010,183.193 154.982 L 183.193 157.023 184.154 157.023 L 185.114 157.023 185.128 158.884 C 185.151 161.932,185.344 162.626,186.244 162.891 C 186.898 163.085,187.022 163.244,187.083 163.972 C 187.152 164.792,187.196 164.829,188.175 164.900 L 189.196 164.974 189.196 167.001 L 189.196 169.028 190.156 169.028 L 191.116 169.028 191.120 170.408 C 191.125 172.460,191.281 172.833,192.210 173.008 C 192.925 173.142,193.019 173.252,193.084 174.034 C 193.155 174.880,193.193 174.913,194.178 174.984 L 195.198 175.058 195.198 176.500 C 195.198 178.321,195.479 178.872,196.407 178.872 C 197.011 178.872,197.119 178.965,197.119 179.488 C 197.119 180.495,197.539 181.032,198.328 181.032 C 198.921 181.032,199.040 181.129,199.040 181.613 C 199.040 182.690,199.278 182.953,200.252 182.953 C 201.164 182.953,201.174 182.963,201.247 183.974 C 201.318 184.961,201.349 184.996,202.207 185.068 C 203.040 185.137,203.098 185.195,203.168 186.028 C 203.237 186.861,203.295 186.919,204.128 186.988 C 204.961 187.058,205.019 187.116,205.088 187.949 C 205.160 188.805,205.197 188.838,206.169 188.909 C 207.167 188.981,207.177 188.991,207.250 189.989 C 207.321 190.965,207.351 190.999,208.223 191.071 C 208.988 191.134,209.124 191.231,209.124 191.712 C 209.124 192.739,209.372 193.037,210.230 193.037 C 210.893 193.037,211.044 193.129,211.044 193.533 C 211.044 194.479,211.491 194.958,212.373 194.958 C 213.082 194.958,213.205 195.040,213.205 195.512 C 213.205 196.537,213.697 196.876,215.414 197.036 L 217.022 197.186 217.094 198.053 C 217.164 198.885,217.206 198.922,218.174 198.993 C 219.145 199.063,219.183 199.097,219.254 199.953 L 219.328 200.840 221.175 200.910 L 223.023 200.980 223.096 201.991 L 223.169 203.001 225.150 203.071 L 227.131 203.141 227.131 204.091 L 227.131 205.042 229.172 205.042 L 231.212 205.042 231.212 206.002 L 231.212 206.963 233.133 206.963 L 235.054 206.963 235.054 207.755 C 235.054 208.918,235.405 209.124,237.383 209.124 L 239.136 209.124 239.136 209.938 C 239.136 210.986,239.314 211.044,242.517 211.044 L 245.138 211.044 245.138 211.880 C 245.138 212.934,245.209 212.952,249.700 213.027 L 253.181 213.085 253.256 213.728 C 253.410 215.063,252.487 215.006,274.070 215.006 C 295.653 215.006,294.729 215.063,294.884 213.728 L 294.958 213.085 298.608 212.965 C 302.396 212.841,302.667 212.763,302.801 211.765 C 302.880 211.174,302.924 211.163,305.522 211.044 C 308.512 210.909,308.764 210.814,308.764 209.830 L 308.764 209.124 310.636 209.124 C 312.742 209.124,313.085 208.932,313.085 207.755 L 313.085 206.963 315.560 206.963 C 318.239 206.963,318.761 206.775,318.891 205.762 C 318.955 205.260,319.124 205.143,319.928 205.042 C 320.839 204.928,320.892 204.876,320.963 204.022 L 321.037 203.121 322.776 203.121 C 324.735 203.121,325.090 202.913,325.090 201.763 L 325.090 200.981 326.951 200.910 L 328.812 200.840 328.885 199.953 C 328.956 199.097,328.994 199.063,329.966 198.993 C 330.934 198.922,330.975 198.886,331.045 198.049 L 331.118 197.178 332.785 197.014 C 334.532 196.842,334.934 196.550,334.934 195.454 C 334.934 195.048,335.085 194.958,335.766 194.958 C 336.648 194.958,337.095 194.479,337.095 193.533 C 337.095 193.129,337.246 193.037,337.909 193.037 C 338.767 193.037,339.016 192.739,339.016 191.712 C 339.016 191.231,339.151 191.134,339.916 191.071 C 340.788 190.999,340.819 190.965,340.890 189.989 C 340.962 188.991,340.972 188.981,341.970 188.909 C 342.942 188.838,342.980 188.805,343.051 187.949 C 343.120 187.116,343.178 187.058,344.011 186.988 C 344.844 186.919,344.902 186.861,344.972 186.028 C 345.041 185.195,345.099 185.137,345.932 185.068 C 346.790 184.996,346.821 184.961,346.893 183.974 C 346.966 182.963,346.976 182.953,347.887 182.953 C 348.861 182.953,349.100 182.690,349.100 181.613 C 349.100 181.129,349.219 181.032,349.811 181.032 C 350.600 181.032,351.020 180.495,351.020 179.488 C 351.020 178.965,351.128 178.872,351.732 178.872 C 352.660 178.872,352.941 178.321,352.941 176.500 L 352.941 175.058 353.962 174.984 C 354.947 174.913,354.985 174.880,355.055 174.034 C 355.120 173.252,355.214 173.142,355.929 173.008 C 356.858 172.833,357.015 172.460,357.020 170.408 L 357.023 169.028 357.983 169.028 L 358.944 169.028 358.944 167.001 L 358.944 164.974 359.964 164.900 L 360.984 164.826 361.054 162.979 L 361.124 161.132 362.015 161.058 L 362.905 160.984 362.975 159.004 L 363.045 157.023 363.995 157.023 L 364.946 157.023 364.946 154.982 L 364.946 152.941 365.778 152.941 C 366.930 152.941,367.107 152.479,367.107 149.476 L 367.107 146.939 367.819 146.939 C 368.882 146.939,369.028 146.404,369.028 142.513 L 369.028 139.016 369.611 139.016 C 371.019 139.016,370.948 140.113,370.948 118.127 C 370.948 96.187,371.014 97.239,369.637 97.239 C 369.083 97.239,369.079 97.218,368.993 93.673 C 368.900 89.872,368.736 89.316,367.709 89.316 C 367.188 89.316,367.165 89.221,367.060 86.691 C 366.944 83.864,366.756 83.389,365.709 83.268 C 365.076 83.194,365.065 83.161,364.996 81.212 L 364.927 79.232 363.976 79.232 L 363.025 79.232 362.997 77.131 C 362.956 74.103,362.819 73.635,361.896 73.363 C 361.214 73.162,361.119 73.027,361.056 72.162 C 360.985 71.201,360.971 71.188,359.964 71.115 L 358.944 71.041 358.944 69.134 L 358.944 67.227 357.983 67.227 L 357.023 67.227 357.020 65.846 C 357.015 63.795,356.858 63.421,355.929 63.247 C 355.214 63.113,355.120 63.003,355.055 62.221 C 354.985 61.375,354.947 61.342,353.962 61.271 L 352.941 61.197 352.941 59.754 C 352.941 57.934,352.660 57.383,351.732 57.383 C 351.128 57.383,351.020 57.290,351.020 56.767 C 351.020 55.759,350.600 55.222,349.811 55.222 C 349.184 55.222,349.100 55.138,349.100 54.519 C 349.100 53.627,348.539 53.061,347.656 53.061 C 347.034 53.061,346.961 52.975,346.893 52.161 C 346.823 51.312,346.768 51.256,345.932 51.187 C 345.099 51.118,345.041 51.060,344.972 50.226 C 344.902 49.393,344.844 49.335,344.011 49.266 C 343.154 49.195,343.121 49.157,343.050 48.186 C 342.978 47.189,342.968 47.178,341.970 47.106 C 340.999 47.035,340.961 47.002,340.890 46.145 C 340.821 45.309,340.765 45.254,339.916 45.184 C 339.151 45.120,339.016 45.024,339.016 44.543 C 339.016 43.526,338.765 43.217,337.940 43.217 C 337.212 43.217,337.145 43.150,337.003 42.259 C 336.861 41.372,336.782 41.291,335.935 41.155 C 335.168 41.032,334.984 40.886,334.797 40.252 C 334.583 39.525,334.506 39.487,332.845 39.276 L 331.117 39.057 331.045 38.196 C 330.975 37.368,330.933 37.332,329.952 37.261 C 328.966 37.190,328.932 37.160,328.932 36.369 C 328.932 35.325,328.444 35.054,326.561 35.054 L 325.119 35.054 325.045 34.154 L 324.970 33.253 323.003 33.184 L 321.036 33.114 320.962 32.223 L 320.888 31.333 318.921 31.263 L 316.953 31.193 316.880 30.183 L 316.807 29.172 314.946 29.102 C 313.092 29.032,313.085 29.029,313.085 28.369 C 313.085 27.344,312.684 27.131,310.756 27.131 C 309.145 27.131,309.004 27.091,309.004 26.635 C 309.004 25.341,308.709 25.210,305.785 25.210 L 303.063 25.210 302.914 24.278 C 302.724 23.093,302.584 23.057,298.259 23.052 L 294.838 23.049 294.838 22.478 C 294.838 21.207,295.543 21.251,274.573 21.218 C 263.864 21.201,254.832 21.238,254.502 21.301 M317.810 70.014 L 318.487 70.520 318.550 80.769 C 318.593 87.828,318.531 91.171,318.351 91.508 C 317.736 92.656,317.442 92.677,301.868 92.680 C 293.842 92.682,287.030 92.749,286.731 92.829 L 286.186 92.975 286.251 99.129 L 286.315 105.282 292.495 105.449 C 299.574 105.640,301.873 105.899,303.586 106.695 C 304.628 107.179,305.318 107.281,308.403 107.407 C 312.404 107.570,313.463 107.786,314.489 108.649 C 315.073 109.141,315.533 109.260,317.317 109.382 C 319.922 109.559,320.825 109.820,321.809 110.677 C 322.315 111.117,322.971 111.394,323.770 111.504 C 325.528 111.748,326.503 112.105,326.771 112.605 C 326.900 112.848,327.359 113.122,327.789 113.214 C 330.703 113.840,333.545 119.239,331.733 120.705 C 331.446 120.938,331.076 121.431,330.911 121.801 C 330.737 122.192,330.259 122.621,329.771 122.825 C 329.309 123.018,328.932 123.320,328.932 123.495 C 328.932 123.985,328.192 124.535,327.151 124.818 C 326.634 124.958,325.857 125.416,325.426 125.834 C 324.734 126.504,324.396 126.625,322.586 126.850 C 321.035 127.042,320.500 127.201,320.405 127.501 C 320.193 128.170,319.115 128.475,316.102 128.719 C 314.000 128.889,313.159 129.049,313.015 129.305 C 312.516 130.197,308.803 130.838,304.065 130.848 C 302.298 130.853,299.179 131.539,298.548 132.062 C 298.145 132.397,293.678 132.741,289.436 132.766 C 287.983 132.774,286.663 132.864,286.502 132.966 C 286.276 133.110,286.194 138.086,286.142 154.751 C 286.069 178.198,286.125 177.281,284.700 178.150 C 283.690 178.766,262.590 178.908,261.157 178.309 C 259.559 177.641,259.676 179.324,259.544 155.005 L 259.424 132.893 254.262 132.718 C 248.869 132.535,245.364 132.045,244.580 131.366 C 244.241 131.072,243.272 130.948,240.275 130.814 C 235.845 130.616,233.067 130.101,232.566 129.386 C 232.288 128.989,231.805 128.876,229.622 128.698 C 226.759 128.465,226.027 128.267,225.380 127.548 C 225.080 127.216,224.497 127.022,223.459 126.910 C 221.355 126.684,220.488 126.357,219.935 125.581 C 219.574 125.073,219.179 124.864,218.344 124.739 C 217.119 124.555,214.198 121.996,213.691 120.663 C 213.007 118.864,213.525 116.190,214.648 115.725 C 215.011 115.575,215.564 115.055,215.877 114.569 C 216.355 113.828,216.665 113.634,217.798 113.364 C 218.802 113.126,219.215 112.900,219.404 112.485 C 219.653 111.939,219.931 111.844,222.973 111.263 C 223.262 111.208,223.561 110.964,223.638 110.720 C 223.861 110.017,224.874 109.706,227.693 109.477 C 229.741 109.311,230.432 109.162,230.826 108.803 C 231.938 107.793,232.644 107.640,237.575 107.340 C 240.186 107.181,241.337 106.997,242.730 106.515 C 245.029 105.719,245.913 105.629,253.301 105.439 L 259.424 105.282 259.488 99.176 C 259.538 94.452,259.483 93.027,259.248 92.878 C 259.081 92.771,252.073 92.683,243.675 92.681 C 228.461 92.677,228.404 92.675,227.948 92.172 C 227.515 91.694,227.487 91.102,227.424 81.124 L 227.356 70.581 227.956 69.982 L 228.555 69.383 272.843 69.445 L 317.132 69.508 317.810 70.014 M252.701 108.983 C 251.706 109.067,250.768 109.296,250.402 109.545 C 249.465 110.181,247.683 110.416,241.971 110.658 C 237.164 110.862,236.721 110.918,236.217 111.388 C 235.429 112.122,233.754 112.547,230.896 112.739 C 228.596 112.893,228.334 112.962,227.669 113.582 C 226.980 114.226,224.727 115.006,223.555 115.006 C 223.277 115.006,223.049 115.153,223.049 115.334 C 223.049 115.883,222.084 116.927,221.575 116.927 C 221.189 116.927,221.129 117.031,221.264 117.467 C 221.693 118.842,221.891 119.109,222.743 119.450 C 223.242 119.649,223.866 120.139,224.130 120.538 C 224.660 121.338,224.845 121.401,227.190 121.584 C 228.912 121.718,229.532 121.947,230.492 122.802 C 231.023 123.275,231.508 123.366,234.694 123.584 C 238.173 123.822,238.892 123.990,240.520 124.941 C 240.911 125.169,242.837 125.307,247.363 125.429 C 250.827 125.523,254.418 125.698,255.342 125.817 C 256.267 125.937,257.945 126.038,259.073 126.043 C 260.688 126.049,261.325 126.158,262.074 126.557 C 263.502 127.318,282.304 127.335,284.034 126.577 C 285.331 126.008,287.056 125.865,297.288 125.474 C 303.701 125.229,304.969 125.122,305.332 124.793 C 306.093 124.105,307.035 123.897,310.921 123.559 C 314.479 123.249,314.770 123.187,315.350 122.607 C 316.047 121.910,317.042 121.602,319.328 121.377 C 320.756 121.236,320.933 121.156,321.408 120.429 C 321.732 119.935,322.195 119.583,322.635 119.495 C 324.594 119.103,323.130 115.359,320.829 114.877 C 318.759 114.444,317.949 114.140,317.448 113.611 C 316.956 113.090,316.542 112.983,313.967 112.708 C 310.687 112.357,308.870 111.883,308.413 111.257 C 308.148 110.894,307.492 110.810,303.692 110.653 C 299.084 110.463,295.370 109.981,293.599 109.342 C 292.419 108.916,288.378 108.616,287.088 108.858 L 286.234 109.018 286.154 115.673 C 286.034 125.665,287.444 124.730,272.509 124.730 C 261.199 124.730,261.009 124.722,260.342 124.224 L 259.664 123.718 259.600 116.433 C 259.553 110.971,259.462 109.100,259.240 108.959 C 258.911 108.750,255.302 108.763,252.701 108.983 " stroke="none" fill="#24a37c" fill-rule="evenodd"></path><path id="path3" d="M227.960 69.977 L 227.371 70.566 227.426 80.961 L 227.481 91.357 227.606 80.864 C 227.703 72.709,227.801 70.302,228.043 70.060 C 228.296 69.807,236.732 69.725,272.461 69.627 L 316.567 69.505 272.558 69.447 L 228.550 69.388 227.960 69.977 M316.927 69.797 C 317.125 69.870,317.530 70.150,317.827 70.421 L 318.367 70.912 318.367 81.032 L 318.367 91.153 317.827 91.655 C 317.530 91.932,316.909 92.265,316.447 92.396 C 315.984 92.527,315.799 92.644,316.034 92.655 C 316.736 92.691,318.070 92.032,318.348 91.513 C 318.522 91.187,318.607 87.675,318.607 80.826 L 318.607 70.623 317.975 70.125 C 317.627 69.852,317.168 69.636,316.954 69.647 C 316.629 69.663,316.624 69.687,316.927 69.797 M179.221 91.907 C 179.595 94.060,179.670 94.961,179.656 97.119 C 179.615 103.130,179.292 106.261,178.379 109.484 C 177.496 112.603,177.576 123.299,178.519 128.211 C 179.304 132.299,179.402 133.456,179.282 137.191 C 179.209 139.449,179.246 140.871,179.372 140.672 C 179.489 140.487,179.586 140.061,179.588 139.724 C 179.590 139.387,179.694 139.009,179.818 138.884 C 181.072 137.619,180.723 125.433,179.349 122.527 C 178.237 120.172,178.346 114.707,179.534 113.275 C 180.144 112.540,180.507 109.507,180.644 104.006 C 180.787 98.261,180.815 98.061,181.558 97.525 C 182.098 97.136,182.150 95.274,181.659 93.942 C 181.475 93.445,181.228 92.659,181.110 92.197 C 180.815 91.043,179.023 90.768,179.221 91.907 M227.611 91.626 C 227.611 92.072,228.518 92.724,228.974 92.606 C 229.334 92.513,229.318 92.488,228.885 92.465 C 228.596 92.450,228.190 92.197,227.985 91.903 C 227.779 91.610,227.611 91.485,227.611 91.626 M259.544 99.088 C 259.478 102.548,259.507 105.296,259.608 105.194 C 259.709 105.093,259.763 102.262,259.728 98.903 L 259.663 92.797 259.544 99.088 M285.474 99.040 C 285.474 102.407,285.519 105.162,285.575 105.162 C 285.630 105.162,285.819 105.217,285.995 105.285 C 286.257 105.386,286.302 104.285,286.247 99.163 C 286.189 93.863,286.126 92.917,285.827 92.917 C 285.526 92.917,285.474 93.818,285.474 99.040 M252.413 105.581 C 253.708 105.625,255.761 105.624,256.975 105.581 C 258.190 105.537,257.131 105.502,254.622 105.502 C 252.113 105.502,251.119 105.538,252.413 105.581 M288.776 105.581 C 289.997 105.625,291.996 105.625,293.217 105.581 C 294.439 105.537,293.439 105.502,290.996 105.502 C 288.553 105.502,287.554 105.537,288.776 105.581 M245.138 105.812 C 244.604 105.905,241.073 106.973,240.456 107.228 C 240.324 107.282,240.796 107.276,241.504 107.213 C 242.213 107.150,243.242 106.881,243.793 106.615 C 244.353 106.344,245.687 106.037,246.826 105.918 L 248.860 105.706 247.299 105.707 C 246.441 105.707,245.468 105.755,245.138 105.812 M297.239 105.808 C 299.324 105.966,301.613 106.377,302.252 106.708 C 302.607 106.891,303.326 107.110,303.850 107.194 L 304.802 107.346 303.594 106.741 C 302.246 106.065,299.779 105.633,297.599 105.689 C 296.376 105.721,296.322 105.739,297.239 105.808 M236.795 107.499 C 237.422 107.549,238.448 107.549,239.076 107.499 C 239.703 107.450,239.190 107.409,237.935 107.409 C 236.681 107.409,236.167 107.450,236.795 107.499 M306.303 107.500 C 306.996 107.548,308.130 107.548,308.824 107.500 C 309.517 107.451,308.950 107.412,307.563 107.412 C 306.176 107.412,305.609 107.451,306.303 107.500 M232.773 107.786 C 231.863 108.006,231.140 108.392,230.743 108.870 C 230.317 109.384,230.643 109.338,231.593 108.751 C 232.032 108.479,233.071 108.110,233.903 107.929 C 235.229 107.641,235.297 107.602,234.454 107.607 C 233.926 107.610,233.169 107.690,232.773 107.786 M311.405 107.792 C 312.498 108.018,313.943 108.643,314.151 108.979 C 314.240 109.125,314.497 109.240,314.720 109.236 C 315.034 109.230,314.976 109.097,314.465 108.647 C 313.730 108.000,312.380 107.552,311.285 107.592 C 310.575 107.618,310.576 107.621,311.405 107.792 M250.780 108.928 C 250.516 108.987,249.954 109.194,249.531 109.386 C 248.406 109.898,246.531 110.196,243.055 110.418 C 240.832 110.560,240.443 110.623,241.657 110.646 C 245.126 110.710,249.015 110.242,250.300 109.605 C 251.065 109.227,252.023 108.983,252.941 108.933 L 254.382 108.854 252.821 108.837 C 251.963 108.827,251.044 108.868,250.780 108.928 M291.957 108.917 C 292.287 108.979,293.050 109.188,293.652 109.381 C 295.482 109.968,298.871 110.432,302.161 110.546 L 305.282 110.655 302.505 110.446 C 300.977 110.332,298.600 109.971,297.223 109.645 C 295.845 109.319,293.962 108.996,293.037 108.928 C 292.113 108.860,291.627 108.855,291.957 108.917 M285.473 115.426 C 285.471 122.317,285.339 123.343,284.353 124.119 C 284.010 124.389,283.850 124.610,283.997 124.610 C 284.711 124.610,285.722 123.260,285.956 121.996 C 286.369 119.760,286.268 109.004,285.834 109.004 C 285.523 109.004,285.474 109.878,285.473 115.426 M315.546 109.409 C 315.777 109.470,316.155 109.470,316.387 109.409 C 316.618 109.349,316.429 109.299,315.966 109.299 C 315.504 109.299,315.315 109.349,315.546 109.409 M225.570 109.645 C 224.502 109.880,223.778 110.280,223.641 110.710 C 223.562 110.960,223.378 111.164,223.233 111.164 C 223.088 111.164,223.034 111.229,223.113 111.309 C 223.193 111.388,223.670 111.123,224.174 110.719 C 224.861 110.168,225.479 109.930,226.651 109.764 C 228.005 109.572,228.068 109.543,227.131 109.541 C 226.537 109.540,225.834 109.587,225.570 109.645 M318.776 109.703 C 319.623 109.806,320.378 110.104,321.124 110.630 C 322.400 111.530,322.711 111.616,322.066 110.890 C 321.368 110.106,319.812 109.491,318.607 109.523 L 317.527 109.551 318.776 109.703 M236.255 110.881 C 236.056 110.971,235.610 111.238,235.262 111.474 C 234.914 111.710,233.942 112.053,233.101 112.235 C 231.861 112.504,231.735 112.570,232.429 112.586 C 233.588 112.612,235.557 112.003,236.174 111.428 C 236.451 111.170,237.041 110.915,237.486 110.860 L 238.295 110.761 237.455 110.740 C 236.993 110.728,236.453 110.791,236.255 110.881 M308.436 111.283 C 308.608 111.730,310.655 112.369,312.245 112.471 C 312.905 112.514,313.175 112.502,312.845 112.445 C 311.811 112.267,309.255 111.378,309.112 111.146 C 308.881 110.772,308.286 110.892,308.436 111.283 M220.570 111.698 C 219.980 111.854,219.559 112.146,219.391 112.513 C 219.248 112.828,218.959 113.094,218.749 113.104 C 218.442 113.119,218.435 113.150,218.711 113.259 C 218.911 113.338,219.273 113.119,219.582 112.732 C 219.944 112.278,220.516 111.971,221.400 111.757 C 222.109 111.586,222.419 111.447,222.089 111.450 C 221.759 111.452,221.075 111.564,220.570 111.698 M324.970 111.934 C 325.366 112.072,325.960 112.430,326.291 112.730 C 326.621 113.029,327.216 113.343,327.614 113.427 C 328.615 113.637,330.944 115.976,331.709 117.538 C 332.394 118.939,332.356 119.409,331.469 120.469 C 331.166 120.832,330.847 121.354,330.761 121.630 C 330.675 121.906,330.336 122.276,330.008 122.451 C 329.681 122.626,329.463 122.820,329.525 122.882 C 329.741 123.098,330.818 122.216,330.987 121.684 C 331.080 121.389,331.404 120.952,331.707 120.714 C 333.554 119.261,330.725 113.845,327.789 113.214 C 327.359 113.122,326.902 112.850,326.774 112.611 C 326.536 112.166,325.324 111.630,324.634 111.664 C 324.423 111.674,324.574 111.796,324.970 111.934 M229.352 112.777 C 229.715 112.832,230.309 112.832,230.672 112.777 C 231.035 112.722,230.738 112.677,230.012 112.677 C 229.286 112.677,228.989 112.722,229.352 112.777 M314.466 112.774 C 314.763 112.832,315.249 112.832,315.546 112.774 C 315.843 112.717,315.600 112.670,315.006 112.670 C 314.412 112.670,314.169 112.717,314.466 112.774 M227.011 113.563 C 226.483 113.947,225.466 114.396,224.751 114.560 C 224.036 114.725,223.567 114.898,223.708 114.945 C 224.325 115.151,226.983 114.223,227.699 113.553 C 228.661 112.650,228.258 112.656,227.011 113.563 M316.670 113.019 C 316.859 113.093,317.237 113.390,317.510 113.678 C 318.022 114.217,320.182 114.952,320.455 114.679 C 320.539 114.595,320.415 114.526,320.179 114.526 C 319.944 114.526,319.128 114.148,318.367 113.685 C 317.607 113.223,316.836 112.854,316.655 112.864 C 316.391 112.879,316.394 112.910,316.670 113.019 M216.862 113.575 C 216.563 113.695,216.100 114.163,215.833 114.614 C 215.567 115.066,215.043 115.562,214.668 115.717 C 213.526 116.190,213.001 118.848,213.691 120.663 C 214.020 121.527,217.158 124.612,217.699 124.603 C 218.081 124.596,218.075 124.566,217.647 124.327 C 216.794 123.851,214.203 121.139,213.941 120.448 C 213.347 118.888,213.770 116.364,214.672 116.078 C 214.911 116.002,215.455 115.500,215.881 114.963 C 216.306 114.425,216.986 113.841,217.391 113.665 C 218.207 113.309,217.727 113.227,216.862 113.575 M222.624 115.690 C 222.456 116.068,222.078 116.501,221.784 116.651 C 221.343 116.877,221.328 116.915,221.703 116.866 C 222.222 116.798,223.151 115.670,223.017 115.269 C 222.968 115.122,222.791 115.312,222.624 115.690 M321.877 115.354 C 321.950 115.545,322.384 115.986,322.842 116.335 C 323.624 116.932,323.666 117.034,323.551 118.088 C 323.457 118.958,323.475 119.047,323.632 118.487 C 323.973 117.265,323.919 117.076,322.930 116.025 C 321.916 114.948,321.659 114.785,321.877 115.354 M220.905 117.947 C 220.896 118.574,220.988 119.088,221.109 119.088 C 221.230 119.088,221.497 119.152,221.702 119.231 C 222.029 119.356,222.036 119.290,221.760 118.691 C 221.587 118.315,221.327 117.737,221.183 117.407 C 220.945 116.861,220.919 116.910,220.905 117.947 M223.357 120.270 C 223.913 120.788,224.405 121.173,224.452 121.126 C 224.621 120.957,223.636 119.834,223.098 119.584 C 222.247 119.188,222.273 119.258,223.357 120.270 M321.479 120.302 C 320.758 121.314,320.974 121.355,321.875 120.378 C 322.285 119.932,322.482 119.568,322.311 119.568 C 322.141 119.568,321.766 119.898,321.479 120.302 M227.028 121.707 C 228.304 121.915,229.030 122.225,229.984 122.965 C 230.761 123.567,231.154 123.528,230.590 122.905 C 229.858 122.096,228.929 121.730,227.317 121.615 C 225.851 121.511,225.843 121.514,227.028 121.707 M259.576 122.492 C 259.541 123.730,260.290 124.632,261.317 124.588 C 261.677 124.573,261.602 124.502,261.056 124.344 C 260.122 124.074,259.960 123.837,259.762 122.449 L 259.608 121.369 259.576 122.492 M316.616 121.835 C 316.115 122.013,315.519 122.374,315.292 122.636 C 315.065 122.898,314.665 123.167,314.402 123.233 C 313.950 123.347,313.952 123.355,314.433 123.382 C 314.712 123.397,315.344 123.088,315.839 122.695 C 316.333 122.302,317.131 121.917,317.612 121.839 C 319.112 121.595,319.234 121.545,318.367 121.527 C 317.905 121.517,317.117 121.656,316.616 121.835 M232.716 123.582 C 233.081 123.637,233.622 123.635,233.917 123.578 C 234.212 123.521,233.914 123.476,233.253 123.478 C 232.593 123.480,232.351 123.526,232.716 123.582 M311.948 123.582 C 312.313 123.637,312.853 123.635,313.149 123.578 C 313.444 123.521,313.145 123.476,312.485 123.478 C 311.825 123.480,311.583 123.526,311.948 123.582 M328.521 123.867 C 328.371 124.107,327.727 124.433,327.090 124.593 C 326.447 124.753,325.610 125.187,325.210 125.568 C 324.814 125.945,324.112 126.370,323.649 126.511 L 322.809 126.769 323.727 126.662 C 324.333 126.591,324.952 126.278,325.551 125.736 C 326.050 125.286,326.837 124.846,327.302 124.759 C 328.077 124.613,329.154 123.792,328.901 123.539 C 328.842 123.480,328.671 123.627,328.521 123.867 M236.255 123.880 C 237.113 123.994,238.409 124.365,239.136 124.706 C 240.553 125.371,241.587 125.562,240.576 124.973 C 239.086 124.103,238.203 123.840,236.510 123.760 L 234.694 123.673 236.255 123.880 M307.352 123.909 C 306.773 124.022,306.017 124.308,305.671 124.543 C 305.325 124.778,304.826 125.040,304.562 125.126 C 304.087 125.280,304.087 125.283,304.571 125.306 C 304.840 125.319,305.489 125.104,306.012 124.828 C 306.535 124.551,307.881 124.185,309.004 124.014 C 310.905 123.723,310.954 123.702,309.724 123.702 C 308.998 123.702,307.930 123.795,307.352 123.909 M267.287 124.790 C 270.291 124.828,275.207 124.828,278.211 124.790 C 281.215 124.752,278.758 124.720,272.749 124.720 C 266.741 124.720,264.283 124.752,267.287 124.790 M219.916 125.553 C 220.440 126.290,221.788 126.884,222.507 126.696 C 222.792 126.622,222.733 126.577,222.322 126.558 C 221.653 126.528,220.700 125.951,220.214 125.282 C 220.042 125.044,219.791 124.850,219.658 124.850 C 219.524 124.850,219.640 125.166,219.916 125.553 M244.118 125.508 C 244.943 125.555,246.294 125.555,247.119 125.508 C 247.944 125.461,247.269 125.423,245.618 125.423 C 243.968 125.423,243.292 125.461,244.118 125.508 M299.109 125.508 C 299.940 125.555,301.236 125.555,301.990 125.507 C 302.744 125.460,302.065 125.421,300.480 125.422 C 298.896 125.422,298.279 125.461,299.109 125.508 M252.041 125.815 C 253.527 125.932,255.148 126.141,255.643 126.278 C 256.138 126.415,257.569 126.532,258.824 126.538 C 260.345 126.544,261.304 126.662,261.705 126.891 C 262.160 127.151,263.144 127.223,265.786 127.190 L 269.268 127.146 266.067 127.071 C 263.550 127.013,262.734 126.909,262.243 126.588 C 261.596 126.164,259.195 125.949,252.461 125.712 L 249.340 125.602 252.041 125.815 M288.368 125.862 C 286.267 126.006,284.842 126.223,284.286 126.484 C 283.632 126.791,282.429 126.915,279.112 127.018 L 274.790 127.152 279.352 127.193 C 282.924 127.225,284.044 127.159,284.514 126.891 C 284.844 126.702,285.622 126.544,286.243 126.539 C 286.863 126.534,287.890 126.422,288.524 126.289 C 289.157 126.156,291.242 125.955,293.157 125.843 C 296.533 125.646,296.562 125.640,294.118 125.640 C 292.731 125.640,290.144 125.740,288.368 125.862 M321.309 126.936 C 321.540 126.997,321.918 126.997,322.149 126.936 C 322.380 126.876,322.191 126.826,321.729 126.826 C 321.267 126.826,321.077 126.876,321.309 126.936 M225.437 127.597 C 225.762 127.943,226.474 128.288,227.172 128.438 C 228.603 128.745,229.556 128.733,228.243 128.425 C 227.066 128.149,225.690 127.501,225.690 127.224 C 225.690 127.107,225.509 127.011,225.288 127.011 C 224.953 127.011,224.978 127.108,225.437 127.597 M319.756 127.613 C 319.311 127.996,318.661 128.225,317.715 128.331 C 315.738 128.555,315.556 128.716,317.428 128.586 C 319.157 128.467,320.185 128.106,320.401 127.544 C 320.615 126.986,320.465 127.002,319.756 127.613 M271.495 127.427 C 272.060 127.478,272.924 127.477,273.416 127.425 C 273.907 127.374,273.445 127.332,272.389 127.333 C 271.333 127.334,270.930 127.376,271.495 127.427 M232.413 129.142 C 232.413 129.724,235.254 130.641,236.855 130.576 C 237.495 130.550,237.508 130.536,236.975 130.446 C 236.048 130.291,233.281 129.378,233.025 129.142 C 232.732 128.872,232.413 128.872,232.413 129.142 M312.365 129.146 C 312.365 129.500,310.426 130.167,308.764 130.384 L 307.203 130.587 309.132 130.506 C 310.370 130.454,311.396 130.265,311.996 129.978 C 312.978 129.509,313.391 128.932,312.745 128.932 C 312.536 128.932,312.365 129.028,312.365 129.146 M239.445 130.790 C 240.209 130.838,241.397 130.837,242.086 130.789 C 242.774 130.741,242.149 130.702,240.696 130.702 C 239.244 130.703,238.680 130.742,239.445 130.790 M303.789 130.789 C 304.420 130.839,305.392 130.838,305.950 130.788 C 306.507 130.737,305.990 130.697,304.802 130.697 C 303.613 130.698,303.158 130.739,303.789 130.789 M243.938 131.023 C 244.136 131.096,244.460 131.287,244.658 131.447 C 245.455 132.094,248.853 132.524,254.022 132.631 L 259.184 132.739 254.502 132.511 C 250.611 132.322,249.338 132.162,246.970 131.568 C 244.414 130.926,242.968 130.666,243.938 131.023 M299.880 131.077 C 299.418 131.163,298.607 131.432,298.079 131.676 C 296.915 132.212,296.349 132.279,290.996 132.515 C 287.396 132.674,287.173 132.704,289.436 132.725 C 293.359 132.763,298.123 132.415,298.551 132.060 C 298.752 131.893,299.647 131.559,300.539 131.319 C 302.107 130.896,301.685 130.741,299.880 131.077 M259.544 154.968 C 259.676 179.328,259.559 177.641,261.157 178.309 C 261.582 178.486,262.176 178.623,262.477 178.613 C 262.896 178.599,262.825 178.528,262.173 178.313 C 259.651 177.479,259.787 178.845,259.785 154.216 C 259.785 142.570,259.703 132.991,259.604 132.930 C 259.505 132.869,259.478 142.786,259.544 154.968 M285.894 132.939 C 285.498 133.042,285.474 134.271,285.473 154.459 C 285.471 178.148,285.521 177.360,283.969 178.128 C 283.315 178.452,283.124 178.631,283.433 178.630 C 284.172 178.629,285.453 177.746,285.780 177.011 C 286.004 176.509,286.091 171.153,286.142 154.751 C 286.194 138.086,286.276 133.110,286.502 132.966 C 286.813 132.769,286.584 132.758,285.894 132.939 " stroke="none" fill="#5ca474" fill-rule="evenodd"></path><path id="path4" d="M228.093 70.106 C 227.360 70.840,227.338 91.086,228.070 91.990 L 228.529 92.557 244.096 92.684 C 252.658 92.754,259.691 92.835,259.724 92.864 C 259.757 92.893,259.784 95.668,259.784 99.031 C 259.784 106.396,260.409 105.642,254.303 105.642 C 248.778 105.642,245.128 105.978,243.817 106.607 C 242.647 107.168,240.151 107.550,237.575 107.562 C 235.251 107.573,232.663 108.089,231.582 108.758 C 231.039 109.093,229.879 109.368,227.938 109.620 C 225.467 109.941,224.976 110.081,224.228 110.678 C 223.668 111.125,222.832 111.470,221.836 111.666 C 220.730 111.884,220.137 112.147,219.697 112.617 C 219.336 113.001,218.700 113.335,218.137 113.436 C 217.415 113.565,216.885 113.919,215.937 114.906 C 215.249 115.621,214.587 116.206,214.465 116.206 C 213.780 116.206,213.424 119.088,213.941 120.448 C 214.542 122.030,217.381 124.411,219.021 124.707 C 219.512 124.796,220.052 125.063,220.221 125.299 C 220.784 126.087,221.712 126.489,223.622 126.772 C 224.773 126.943,225.694 127.220,225.970 127.476 C 226.611 128.074,228.081 128.465,230.551 128.697 C 231.723 128.807,232.811 128.998,232.968 129.121 C 233.951 129.891,236.517 130.417,240.216 130.607 C 243.274 130.764,244.642 130.955,246.926 131.544 C 249.445 132.194,250.350 132.303,254.369 132.441 C 256.885 132.527,259.133 132.695,259.364 132.814 C 259.759 133.017,259.784 134.282,259.785 154.210 C 259.787 178.958,259.652 177.687,262.351 178.375 C 264.466 178.914,282.762 178.709,283.952 178.133 C 285.524 177.372,285.471 178.192,285.473 154.480 L 285.474 133.089 286.402 132.811 C 286.913 132.658,288.399 132.526,289.704 132.518 C 294.149 132.489,297.045 132.189,298.203 131.636 C 299.341 131.093,301.938 130.746,306.783 130.489 C 309.551 130.343,311.608 129.894,312.192 129.310 C 312.390 129.112,313.809 128.823,315.739 128.588 C 317.875 128.327,319.150 128.057,319.534 127.783 C 320.643 126.992,321.133 126.778,321.849 126.773 C 323.094 126.764,324.463 126.272,325.210 125.564 C 325.610 125.186,326.453 124.751,327.103 124.589 C 327.954 124.377,328.379 124.117,328.651 123.642 C 328.858 123.281,329.382 122.796,329.815 122.563 C 330.248 122.330,330.673 121.911,330.760 121.634 C 330.847 121.356,331.166 120.832,331.469 120.469 C 332.356 119.409,332.394 118.939,331.709 117.538 C 330.944 115.976,328.615 113.637,327.614 113.427 C 327.216 113.343,326.621 113.029,326.291 112.729 C 325.673 112.167,324.694 111.800,323.098 111.532 C 322.596 111.447,321.703 111.038,321.112 110.621 C 320.152 109.945,319.741 109.832,317.254 109.566 C 315.541 109.382,314.319 109.133,314.078 108.919 C 313.105 108.056,311.760 107.760,307.923 107.566 C 305.364 107.436,303.721 107.238,303.001 106.972 C 302.407 106.753,301.597 106.475,301.200 106.356 C 299.918 105.969,295.298 105.643,291.092 105.642 C 288.731 105.642,286.665 105.530,286.230 105.379 L 285.474 105.115 285.474 99.046 L 285.474 92.977 286.224 92.827 C 286.637 92.745,293.363 92.676,301.170 92.676 C 315.932 92.674,316.776 92.622,317.827 91.652 L 318.367 91.153 318.367 81.032 L 318.367 70.912 317.748 70.330 L 317.128 69.748 272.852 69.686 C 228.796 69.624,228.573 69.626,228.093 70.106 M316.083 70.630 L 316.702 70.912 316.634 80.943 C 316.581 88.776,316.498 91.041,316.255 91.285 C 316.008 91.531,312.739 91.622,300.613 91.717 C 285.968 91.831,285.262 91.857,284.779 92.294 C 283.961 93.035,283.993 105.472,284.814 105.919 C 285.139 106.096,287.485 106.328,290.718 106.501 C 293.948 106.675,296.187 106.895,296.348 107.056 C 296.495 107.203,296.566 107.332,296.507 107.344 C 296.447 107.355,293.896 107.492,290.837 107.648 C 283.556 108.020,284.338 107.084,284.210 115.566 C 284.096 123.037,284.062 123.269,283.013 123.634 C 281.824 124.049,263.342 123.978,262.330 123.555 C 261.084 123.035,260.984 122.429,260.984 115.343 L 260.984 109.028 260.197 108.427 C 259.444 107.853,259.221 107.821,255.215 107.697 C 250.385 107.547,248.055 107.332,248.530 107.080 C 248.851 106.910,254.855 106.455,257.743 106.382 C 261.499 106.287,261.487 106.311,261.409 98.896 L 261.345 92.797 260.273 92.257 L 259.202 91.717 244.293 91.717 C 231.800 91.717,229.308 91.661,228.917 91.376 C 228.250 90.888,228.039 71.395,228.694 70.740 C 229.200 70.234,314.977 70.126,316.083 70.630 M179.407 102.041 C 179.407 102.503,179.457 102.692,179.517 102.461 C 179.578 102.230,179.578 101.852,179.517 101.621 C 179.457 101.390,179.407 101.579,179.407 102.041 M179.152 104.126 C 179.130 104.547,179.007 105.167,178.879 105.504 C 178.750 105.841,178.588 106.848,178.517 107.740 C 178.367 109.633,178.436 109.534,178.983 107.069 C 179.205 106.071,179.343 104.828,179.289 104.308 C 179.204 103.476,179.187 103.454,179.152 104.126 M243.422 108.953 C 244.601 109.417,237.220 109.924,235.879 109.472 L 234.934 109.153 235.894 108.841 C 236.867 108.525,242.549 108.610,243.422 108.953 M310.444 108.944 L 311.044 109.194 310.324 109.485 C 309.515 109.813,303.224 109.645,302.242 109.270 L 301.681 109.055 302.281 108.919 C 302.611 108.844,303.097 108.730,303.361 108.667 C 304.206 108.465,309.822 108.684,310.444 108.944 M259.550 115.966 C 259.690 123.790,259.722 123.957,261.167 124.358 C 263.097 124.894,283.637 124.682,284.353 124.119 C 285.339 123.343,285.471 122.316,285.473 115.441 L 285.474 109.033 286.603 108.864 C 288.738 108.544,294.524 108.947,297.119 109.596 C 298.736 110.001,300.775 110.278,303.361 110.443 C 307.697 110.720,308.946 110.877,309.125 111.167 C 309.383 111.584,312.336 112.354,314.623 112.600 C 316.631 112.816,317.210 112.981,318.345 113.658 C 319.083 114.099,320.203 114.585,320.833 114.738 C 323.321 115.341,324.726 118.169,323.114 119.328 C 322.838 119.526,322.256 120.042,321.821 120.474 C 321.035 121.254,320.842 121.316,317.492 121.859 C 317.077 121.926,316.346 122.292,315.868 122.672 C 315.204 123.199,314.643 123.400,313.501 123.517 C 308.496 124.030,307.368 124.225,306.179 124.779 C 305.001 125.328,304.518 125.384,299.096 125.592 C 295.896 125.715,292.089 125.936,290.636 126.083 C 289.184 126.230,287.293 126.422,286.435 126.508 C 285.576 126.595,284.624 126.805,284.318 126.975 C 283.487 127.438,262.730 127.439,261.916 126.977 C 261.585 126.789,260.181 126.588,258.583 126.499 C 257.065 126.415,255.120 126.231,254.262 126.090 C 253.403 125.949,249.962 125.723,246.615 125.589 C 240.820 125.355,240.464 125.314,239.172 124.715 C 238.088 124.213,237.091 124.015,234.214 123.731 C 231.161 123.429,230.484 123.287,229.770 122.800 C 228.718 122.081,227.870 121.806,226.097 121.607 C 224.902 121.473,224.537 121.303,223.534 120.412 C 222.891 119.841,222.033 119.301,221.627 119.212 C 220.527 118.970,220.508 117.143,221.600 116.690 C 221.991 116.528,222.446 116.090,222.612 115.717 C 222.862 115.152,223.170 114.974,224.454 114.651 C 225.302 114.438,226.472 113.936,227.054 113.535 C 227.964 112.910,228.442 112.776,230.439 112.587 C 233.058 112.339,235.087 111.823,235.527 111.293 C 235.917 110.824,236.519 110.743,241.827 110.446 C 246.591 110.180,248.303 109.944,249.538 109.383 C 250.737 108.838,251.019 108.812,255.342 108.849 L 259.424 108.884 259.550 115.966 M231.727 110.863 C 231.945 111.081,231.849 111.209,231.312 111.415 C 229.953 111.935,226.651 111.759,226.651 111.167 C 226.651 110.509,231.106 110.242,231.727 110.863 M318.908 110.807 C 319.515 111.051,319.425 111.379,318.667 111.675 C 317.939 111.961,314.143 111.617,313.394 111.198 C 312.336 110.606,317.498 110.239,318.908 110.807 M323.770 112.760 C 324.166 112.948,324.922 113.360,325.450 113.675 C 325.978 113.989,326.587 114.256,326.803 114.266 C 328.418 114.346,331.391 118.571,330.516 119.543 C 330.326 119.755,330.094 120.229,330.002 120.598 C 329.910 120.966,329.443 121.560,328.963 121.918 C 328.484 122.276,327.906 122.797,327.680 123.075 C 327.454 123.354,326.769 123.722,326.158 123.893 C 325.547 124.064,324.652 124.478,324.168 124.812 C 323.685 125.147,322.047 125.767,320.528 126.192 C 319.010 126.616,317.323 127.130,316.781 127.334 C 316.239 127.538,314.521 127.881,312.963 128.097 C 311.405 128.312,309.201 128.763,308.066 129.098 C 306.633 129.521,304.792 129.806,302.041 130.032 C 295.543 130.565,292.845 130.850,291.957 131.096 C 291.495 131.225,290.543 131.330,289.842 131.331 C 287.594 131.334,285.166 131.818,284.699 132.357 C 284.299 132.817,284.274 134.110,284.274 154.007 L 284.274 175.168 283.733 176.240 L 283.193 177.311 273.131 177.374 C 263.814 177.432,263.034 177.405,262.602 177.014 C 261.428 175.951,261.465 176.695,261.465 154.155 L 261.465 133.016 260.503 132.320 C 259.670 131.716,259.247 131.602,257.322 131.459 C 256.101 131.369,254.715 131.196,254.241 131.075 C 253.768 130.954,250.850 130.637,247.758 130.370 C 238.810 129.599,237.896 129.480,236.837 128.941 C 236.161 128.597,234.826 128.327,232.515 128.066 C 230.092 127.793,228.940 127.553,228.331 127.197 C 227.515 126.718,224.371 125.810,223.533 125.810 C 223.304 125.810,222.744 125.558,222.289 125.249 C 221.834 124.940,220.684 124.390,219.734 124.027 C 218.784 123.664,218.007 123.270,218.007 123.152 C 218.007 123.033,217.589 122.659,217.078 122.321 C 216.542 121.966,215.969 121.306,215.721 120.757 C 215.486 120.235,215.209 119.808,215.106 119.808 C 213.230 119.808,216.511 115.152,219.070 114.182 C 219.721 113.935,220.623 113.482,221.075 113.176 C 222.064 112.505,223.282 112.242,224.117 112.521 C 225.064 112.837,224.893 113.161,223.495 113.697 C 222.789 113.967,222.101 114.410,221.967 114.680 C 221.832 114.951,221.305 115.564,220.797 116.044 C 220.185 116.621,219.922 117.046,220.020 117.301 C 220.102 117.513,220.168 118.039,220.168 118.470 C 220.168 119.219,220.823 120.288,221.282 120.288 C 221.401 120.288,221.875 120.596,222.334 120.972 C 223.474 121.904,223.861 122.078,225.870 122.562 C 226.828 122.792,227.611 123.067,227.611 123.172 C 227.611 123.484,228.980 123.868,231.540 124.275 C 232.865 124.486,234.225 124.764,234.562 124.893 C 236.081 125.475,239.852 126.091,243.894 126.419 C 246.312 126.615,248.743 126.886,249.296 127.020 C 254.564 128.305,285.799 128.639,292.677 127.484 C 294.610 127.160,299.830 126.556,303.001 126.290 C 306.428 126.003,309.519 125.496,310.886 124.996 C 311.459 124.787,312.969 124.448,314.242 124.243 C 315.706 124.008,316.919 123.659,317.543 123.292 C 318.087 122.974,319.271 122.528,320.175 122.301 C 322.341 121.757,324.510 120.001,325.152 118.271 L 325.578 117.123 324.337 115.764 C 323.133 114.446,322.123 113.806,321.248 113.806 C 321.013 113.806,320.566 113.590,320.255 113.325 C 318.949 112.219,321.699 111.777,323.770 112.760 M178.207 127.491 C 178.207 127.953,178.256 128.142,178.317 127.911 C 178.377 127.680,178.377 127.302,178.317 127.071 C 178.256 126.840,178.207 127.029,178.207 127.491 M178.409 128.932 C 178.401 129.262,178.514 130.180,178.661 130.972 C 178.808 131.765,179.017 132.953,179.125 133.613 C 179.275 134.531,179.294 134.332,179.202 132.773 C 179.086 130.797,178.440 127.668,178.409 128.932 " stroke="none" fill="#64bca0" fill-rule="evenodd"></path></g></svg>