<svg xmlns="http://www.w3.org/2000/svg" xmlns:xlink="http://www.w3.org/1999/xlink" id="svg" width="400" height="240" version="1.1" viewBox="0 0 400 240"><g id="svgg"><path id="path0" fill="#f7b54a" fill-rule="evenodd" stroke="none" d="M243.449 8.293 C 243.216 8.574,243.209 8.731,243.420 8.942 C 243.572 9.095,243.706 9.171,243.717 9.112 C 243.788 8.730,243.849 7.923,243.807 7.923 C 243.779 7.923,243.618 8.090,243.449 8.293 M331.453 20.648 C 331.692 20.912,331.928 21.128,331.978 21.128 C 332.029 21.128,331.954 20.912,331.813 20.648 C 331.671 20.384,331.435 20.168,331.287 20.168 C 331.139 20.168,331.214 20.384,331.453 20.648 M358.944 44.099 C 358.944 44.405,359.865 45.257,360.025 45.098 C 360.089 45.033,359.872 44.727,359.543 44.417 C 359.213 44.107,358.944 43.964,358.944 44.099 M280.888 53.062 C 280.148 53.179,278.636 53.492,277.527 53.757 C 276.418 54.022,274.646 54.360,273.589 54.507 C 272.497 54.660,271.176 55.029,270.525 55.363 C 269.897 55.686,268.816 56.100,268.124 56.284 C 266.473 56.723,266.026 56.910,266.026 57.165 C 266.026 57.418,263.784 58.583,263.296 58.583 C 263.106 58.583,262.491 58.967,261.930 59.436 C 261.368 59.905,260.529 60.448,260.066 60.642 C 259.602 60.835,259.072 61.209,258.888 61.471 C 258.705 61.733,258.211 62.125,257.792 62.342 C 257.372 62.559,256.596 63.159,256.066 63.677 C 252.909 66.758,250.176 69.530,249.340 70.499 C 248.812 71.112,248.041 71.957,247.627 72.378 C 247.214 72.799,246.711 73.462,246.509 73.852 C 246.308 74.241,245.882 74.828,245.562 75.155 C 245.243 75.482,244.634 76.264,244.208 76.891 C 243.782 77.518,243.169 78.318,242.845 78.667 C 242.522 79.016,242.257 79.405,242.257 79.531 C 242.257 79.656,241.955 80.046,241.586 80.396 C 241.218 80.746,240.726 81.535,240.495 82.150 C 240.263 82.764,239.804 83.559,239.473 83.915 C 239.143 84.271,238.610 85.261,238.289 86.115 C 237.967 86.969,237.489 87.941,237.226 88.276 C 236.963 88.610,236.674 89.278,236.585 89.760 C 236.496 90.242,236.063 91.316,235.624 92.146 C 235.081 93.172,234.705 94.364,234.450 95.867 C 234.016 98.420,233.679 99.611,233.246 100.120 C 233.078 100.318,232.710 101.939,232.428 103.721 C 232.146 105.504,231.704 107.401,231.446 107.936 C 231.187 108.471,230.853 109.552,230.703 110.337 C 230.553 111.122,230.021 112.629,229.519 113.685 C 229.018 114.742,228.531 116.038,228.438 116.567 C 228.244 117.666,227.969 118.284,227.371 118.968 C 227.140 119.232,226.763 120.042,226.533 120.768 C 226.303 121.495,225.814 122.575,225.446 123.169 C 225.079 123.764,224.551 124.758,224.273 125.379 C 223.995 126.000,223.597 126.603,223.388 126.720 C 223.178 126.838,222.749 127.572,222.433 128.353 C 222.118 129.133,221.638 129.954,221.368 130.176 C 221.097 130.398,220.660 131.068,220.395 131.666 C 220.131 132.264,219.815 132.815,219.694 132.889 C 219.394 133.075,218.007 135.146,218.007 135.409 C 218.007 135.525,217.751 135.821,217.437 136.068 C 217.123 136.315,216.637 136.967,216.356 137.518 C 216.075 138.069,215.624 138.638,215.354 138.782 C 215.084 138.927,214.773 139.281,214.662 139.570 C 214.417 140.215,212.477 142.856,211.238 144.232 C 210.735 144.791,210.324 145.402,210.324 145.592 C 210.324 145.781,210.013 146.198,209.633 146.518 C 209.252 146.838,208.707 147.630,208.421 148.280 C 208.135 148.929,207.643 149.838,207.329 150.300 C 205.487 153.004,205.541 161.604,207.411 163.473 C 207.671 163.733,208.110 164.459,208.388 165.086 C 208.665 165.714,209.093 166.368,209.339 166.540 C 209.584 166.712,210.133 167.396,210.560 168.060 C 210.986 168.724,211.432 169.268,211.552 169.268 C 211.671 169.268,212.407 169.854,213.187 170.572 C 213.967 171.289,214.939 172.048,215.346 172.259 C 215.753 172.469,216.086 172.750,216.086 172.884 C 216.086 173.017,216.546 173.326,217.107 173.569 C 217.668 173.813,218.547 174.349,219.060 174.760 C 219.573 175.172,220.437 175.619,220.981 175.754 C 221.524 175.888,222.563 176.312,223.289 176.695 C 224.419 177.292,225.302 177.484,229.412 178.033 C 232.053 178.385,234.742 178.772,235.387 178.893 C 237.222 179.235,248.195 179.151,252.221 178.764 C 254.202 178.573,259.088 178.190,263.079 177.912 C 269.279 177.480,270.575 177.322,271.979 176.832 C 272.883 176.516,274.966 176.084,276.607 175.871 C 279.909 175.443,280.676 175.295,281.035 175.015 C 281.546 174.617,283.984 173.860,285.594 173.598 C 286.519 173.448,287.780 173.063,288.398 172.744 C 289.015 172.424,290.297 171.986,291.246 171.770 C 292.194 171.555,293.350 171.120,293.814 170.805 C 294.278 170.490,295.336 170.029,296.165 169.781 C 296.993 169.532,298.087 169.000,298.596 168.598 C 299.104 168.196,299.927 167.758,300.424 167.625 C 300.921 167.492,301.646 167.116,302.035 166.789 C 302.424 166.461,303.260 165.999,303.892 165.761 C 304.525 165.523,305.185 165.132,305.359 164.892 C 305.533 164.653,306.181 164.198,306.799 163.882 C 307.417 163.565,308.059 163.081,308.225 162.806 C 308.392 162.530,308.689 162.305,308.886 162.305 C 309.083 162.305,309.244 162.220,309.244 162.117 C 309.244 162.013,309.580 161.729,309.992 161.487 C 310.403 161.244,310.956 160.796,311.220 160.492 C 311.484 160.188,312.017 159.808,312.404 159.648 C 312.791 159.487,313.270 159.043,313.468 158.661 C 313.665 158.278,314.200 157.787,314.657 157.570 C 315.113 157.352,315.486 157.074,315.486 156.952 C 315.486 156.830,315.972 156.250,316.567 155.665 C 317.161 155.079,317.647 154.505,317.647 154.390 C 317.647 154.275,318.014 153.954,318.462 153.677 C 318.911 153.400,319.341 152.932,319.419 152.637 C 319.496 152.342,319.968 151.669,320.467 151.140 C 320.965 150.612,321.588 149.764,321.851 149.256 C 322.114 148.748,322.516 148.199,322.744 148.036 C 322.973 147.874,323.336 147.319,323.551 146.803 C 323.767 146.288,324.158 145.715,324.422 145.531 C 325.881 144.509,325.953 140.058,324.532 138.700 C 323.971 138.163,323.577 137.062,323.284 135.207 C 323.193 134.631,322.869 133.793,322.565 133.344 C 322.242 132.869,321.891 131.804,321.721 130.790 C 321.378 128.737,320.968 127.145,320.314 125.321 C 318.647 120.678,318.812 95.585,320.523 93.524 C 320.837 93.146,321.483 91.037,321.486 90.380 C 321.491 89.513,322.180 87.517,322.647 87.015 C 322.895 86.749,323.238 85.942,323.408 85.222 C 323.604 84.392,324.001 83.597,324.494 83.046 C 324.921 82.569,325.451 81.632,325.673 80.964 C 325.905 80.266,326.318 79.592,326.645 79.377 C 326.958 79.172,327.289 78.758,327.381 78.458 C 327.473 78.157,327.708 77.729,327.903 77.506 C 328.218 77.147,328.215 77.037,327.875 76.552 C 327.664 76.250,327.491 75.776,327.491 75.497 C 327.491 75.211,327.245 74.859,326.924 74.688 C 326.613 74.521,326.195 74.044,325.996 73.627 C 325.670 72.943,324.311 71.275,323.049 70.010 C 322.785 69.745,322.353 69.249,322.089 68.907 C 321.355 67.956,317.600 64.698,316.705 64.235 C 316.268 64.009,315.859 63.625,315.795 63.381 C 315.731 63.138,315.275 62.777,314.782 62.579 C 314.288 62.382,313.552 61.940,313.144 61.598 C 312.737 61.255,311.936 60.767,311.364 60.512 C 310.792 60.258,309.957 59.777,309.507 59.444 C 309.058 59.111,308.014 58.613,307.188 58.338 C 306.362 58.063,305.414 57.587,305.082 57.279 C 304.704 56.929,303.817 56.572,302.717 56.327 C 301.748 56.112,300.599 55.719,300.164 55.454 C 299.720 55.184,298.347 54.806,297.045 54.596 C 295.765 54.389,293.421 53.948,291.837 53.616 C 288.663 52.951,283.300 52.679,280.888 53.062 M113.085 57.641 C 103.448 57.837,100.393 58.066,97.033 58.846 C 95.930 59.102,93.931 59.425,92.591 59.563 C 89.785 59.854,87.222 60.332,84.994 60.981 C 84.136 61.231,82.353 61.613,81.032 61.831 C 79.489 62.085,78.261 62.441,77.596 62.825 C 77.026 63.154,75.546 63.669,74.308 63.968 C 73.070 64.267,71.790 64.687,71.465 64.900 C 71.139 65.113,70.350 65.418,69.710 65.576 C 69.071 65.735,67.845 66.236,66.987 66.689 C 66.128 67.143,64.857 67.728,64.162 67.990 C 63.467 68.251,62.602 68.709,62.241 69.008 C 61.880 69.306,60.990 69.839,60.264 70.190 C 57.503 71.527,53.974 74.469,51.295 77.666 C 48.896 80.530,47.464 86.818,48.995 87.765 C 49.098 87.828,49.410 88.554,49.689 89.378 C 50.530 91.865,54.783 96.319,58.220 98.312 C 58.878 98.694,59.581 99.188,59.780 99.411 C 59.980 99.634,60.756 100.055,61.505 100.348 C 62.253 100.641,63.216 101.139,63.645 101.455 C 64.073 101.771,64.811 102.153,65.285 102.304 C 65.759 102.455,66.687 102.881,67.347 103.250 C 68.007 103.620,69.246 104.102,70.099 104.322 C 70.953 104.542,72.087 104.976,72.620 105.288 C 73.153 105.600,74.582 106.071,75.795 106.335 C 77.008 106.599,78.629 107.106,79.397 107.463 C 80.219 107.844,81.730 108.250,83.073 108.451 C 84.328 108.638,86.331 109.055,87.525 109.377 C 88.795 109.721,91.622 110.162,94.341 110.442 C 96.896 110.706,99.106 111.019,99.253 111.138 C 100.675 112.295,133.821 112.919,135.819 111.826 C 136.829 111.274,136.893 111.131,136.482 110.339 C 136.291 109.971,136.134 109.539,136.134 109.380 C 136.134 109.220,135.756 108.648,135.294 108.108 C 134.832 107.568,134.454 107.017,134.454 106.883 C 134.454 106.749,134.081 106.151,133.625 105.554 C 133.169 104.956,132.584 104.057,132.325 103.554 C 132.066 103.052,131.646 102.420,131.390 102.150 C 130.628 101.345,129.253 99.379,128.331 97.779 C 127.856 96.954,127.382 96.279,127.277 96.279 C 127.173 96.279,126.801 95.752,126.451 95.109 C 126.100 94.466,125.644 93.798,125.436 93.626 C 125.228 93.453,124.887 92.981,124.678 92.576 C 124.468 92.171,123.867 91.270,123.341 90.573 C 122.466 89.415,122.160 87.574,122.750 87.017 C 122.810 86.960,164.229 86.836,166.084 86.887 C 167.087 86.914,167.103 86.929,167.262 87.920 C 167.418 88.895,167.439 88.854,167.965 86.506 C 168.264 85.175,168.686 83.742,168.904 83.320 C 169.315 82.526,170.228 79.829,170.228 79.410 C 170.228 79.279,170.535 78.563,170.909 77.821 C 171.284 77.078,171.722 75.930,171.883 75.270 C 172.045 74.610,172.436 73.673,172.754 73.189 C 173.071 72.704,173.566 71.570,173.853 70.668 C 174.141 69.766,174.526 68.730,174.709 68.367 L 175.042 67.707 173.923 67.707 C 173.118 67.707,172.256 67.446,170.855 66.776 C 169.784 66.264,168.380 65.719,167.735 65.564 C 167.090 65.410,166.155 65.075,165.658 64.822 C 165.160 64.568,163.797 64.150,162.629 63.893 C 161.460 63.637,160.018 63.156,159.424 62.825 C 158.697 62.420,157.479 62.090,155.702 61.815 C 154.250 61.590,152.467 61.216,151.741 60.985 C 150.143 60.476,147.101 59.894,144.178 59.538 C 142.989 59.393,141.206 59.063,140.216 58.805 C 137.873 58.194,135.270 57.918,130.252 57.750 C 128.007 57.675,125.306 57.578,124.250 57.534 C 123.193 57.489,118.169 57.538,113.085 57.641 M96.038 66.155 C 98.729 66.629,98.936 66.700,99.640 67.384 C 99.970 67.705,100.538 68.206,100.903 68.497 C 102.297 69.611,101.181 71.504,98.158 73.153 C 96.831 73.878,89.640 73.799,88.626 73.049 C 88.224 72.752,87.790 72.509,87.663 72.509 C 87.107 72.509,85.966 71.209,85.614 70.176 L 85.230 69.050 86.239 68.022 C 88.091 66.135,91.857 65.418,96.038 66.155 M148.560 70.127 C 151.249 70.427,151.512 70.536,152.881 71.923 C 156.705 75.796,149.793 79.750,142.427 77.902 C 136.080 76.311,137.233 70.750,144.058 70.033 C 145.709 69.860,146.268 69.871,148.560 70.127 M124.418 74.596 C 125.990 74.910,126.373 77.210,124.970 77.911 C 123.527 78.633,118.972 78.590,117.326 77.839 L 116.164 77.310 116.329 76.290 C 116.532 75.030,116.877 74.654,118.051 74.407 C 118.971 74.214,123.124 74.337,124.418 74.596 M82.110 89.676 C 83.081 90.336,83.988 91.092,84.125 91.357 C 84.262 91.621,84.561 92.120,84.789 92.467 C 85.154 93.020,85.162 93.152,84.858 93.547 C 84.668 93.795,84.270 94.363,83.973 94.809 C 81.455 98.599,69.976 98.589,68.054 94.797 C 67.831 94.357,67.484 93.809,67.281 93.578 C 66.645 92.852,68.410 89.834,69.489 89.802 C 69.611 89.799,69.901 89.624,70.133 89.413 C 71.103 88.536,72.260 88.350,76.366 88.414 L 80.344 88.475 82.110 89.676 M165.666 91.717 C 165.084 92.172,164.574 92.186,148.826 92.192 C 130.059 92.198,131.183 92.061,131.922 94.249 C 132.143 94.903,132.635 95.762,133.015 96.158 C 133.396 96.555,133.794 97.106,133.900 97.384 C 134.007 97.662,134.340 98.202,134.641 98.584 C 135.420 99.572,136.669 101.425,137.780 103.241 C 138.306 104.100,138.938 105.018,139.185 105.282 C 139.432 105.546,140.224 106.625,140.945 107.678 C 141.667 108.732,142.503 109.796,142.804 110.042 C 143.105 110.288,143.562 110.904,143.821 111.411 C 144.080 111.918,144.491 112.475,144.734 112.649 C 145.264 113.027,146.777 115.054,147.343 116.146 C 147.781 116.991,147.658 120.927,146.832 132.413 C 146.472 137.409,146.085 147.325,145.847 157.623 C 145.771 160.924,145.547 165.287,145.349 167.317 C 144.940 171.525,144.930 171.458,146.046 171.988 C 147.166 172.519,151.093 172.068,154.056 171.067 C 154.604 170.882,156.602 170.566,158.498 170.365 C 160.556 170.146,162.688 169.761,163.790 169.409 C 164.805 169.084,166.750 168.696,168.112 168.547 C 169.474 168.398,171.607 168.067,172.852 167.813 C 175.111 167.351,175.117 167.351,175.943 167.838 C 177.015 168.471,177.022 168.444,176.203 166.764 C 175.822 165.981,175.510 165.244,175.510 165.127 C 175.510 165.010,175.232 164.549,174.892 164.104 C 174.552 163.658,174.082 162.658,173.847 161.881 C 173.611 161.104,173.122 159.961,172.759 159.342 C 172.396 158.723,171.903 157.452,171.663 156.519 C 171.422 155.585,171.067 154.641,170.874 154.421 C 170.680 154.201,170.232 153.049,169.877 151.861 C 169.523 150.672,169.017 149.245,168.754 148.690 C 168.490 148.134,168.065 146.514,167.808 145.089 C 167.342 142.494,166.958 141.026,166.628 140.576 C 166.344 140.188,166.185 139.305,165.793 135.948 C 165.195 130.833,164.696 129.101,164.379 131.037 C 164.182 132.237,163.404 133.452,162.650 133.739 C 160.243 134.654,157.180 134.083,156.149 132.526 C 155.802 132.002,155.426 131.573,155.313 131.573 C 153.952 131.573,154.046 125.272,155.420 124.442 C 155.595 124.336,155.994 123.898,156.307 123.468 C 157.714 121.533,162.865 121.706,163.526 123.710 C 163.832 124.635,163.877 123.896,164.013 115.726 C 164.152 107.422,164.354 104.493,164.945 102.281 C 165.068 101.819,165.444 99.280,165.780 96.639 C 166.117 93.998,166.441 91.702,166.502 91.537 C 166.658 91.109,166.361 91.174,165.666 91.717 M44.428 92.358 C 44.007 92.894,43.939 93.190,44.083 93.871 C 44.330 95.045,44.226 96.418,43.817 97.398 C 43.303 98.628,42.737 101.884,42.737 103.612 C 42.737 104.447,42.613 105.435,42.462 105.807 C 42.293 106.221,42.152 108.573,42.100 111.878 C 42.046 115.202,41.875 118.071,41.652 119.354 C 41.453 120.499,41.343 121.799,41.406 122.243 C 41.469 122.686,41.638 124.670,41.783 126.651 C 42.392 135.023,42.365 134.833,43.174 136.401 C 43.589 137.207,44.046 138.530,44.188 139.342 C 44.662 142.053,44.910 142.916,45.386 143.522 C 45.646 143.852,45.858 144.274,45.858 144.460 C 45.858 144.976,46.796 146.699,47.077 146.699 C 47.214 146.699,47.593 147.282,47.919 147.995 C 48.246 148.709,48.680 149.431,48.884 149.600 C 49.088 149.769,49.452 150.293,49.693 150.764 C 49.933 151.235,50.547 152.017,51.056 152.501 C 51.564 152.986,52.521 153.999,53.181 154.753 C 53.842 155.507,54.715 156.353,55.123 156.633 C 57.107 157.996,57.860 158.619,57.993 159.008 C 58.073 159.241,58.589 159.658,59.141 159.935 C 59.693 160.212,60.360 160.632,60.624 160.870 C 60.888 161.107,61.767 161.635,62.576 162.044 C 63.386 162.452,64.183 162.950,64.349 163.149 C 64.514 163.348,65.393 163.737,66.302 164.013 C 67.235 164.296,68.099 164.721,68.286 164.989 C 68.495 165.286,69.188 165.592,70.151 165.812 C 71.025 166.011,71.979 166.414,72.368 166.749 C 73.188 167.453,75.073 168.181,76.691 168.417 C 77.341 168.512,78.421 168.893,79.092 169.265 C 79.913 169.719,81.098 170.071,82.713 170.338 C 84.034 170.557,85.362 170.897,85.664 171.094 C 85.967 171.291,87.425 171.613,88.905 171.809 C 94.952 172.609,96.819 172.912,97.756 173.242 C 98.297 173.433,99.456 173.597,100.330 173.607 C 101.205 173.617,102.515 173.732,103.241 173.864 C 103.968 173.996,106.993 174.194,109.964 174.306 C 122.654 174.782,125.453 174.821,127.131 174.547 C 128.055 174.396,129.028 174.300,129.292 174.334 C 131.415 174.607,141.016 174.021,141.539 173.587 C 142.044 173.169,142.013 159.628,141.504 158.103 C 141.079 156.831,141.099 155.463,141.561 154.142 C 141.875 153.245,141.927 152.021,141.869 146.939 C 141.777 138.944,141.984 135.973,142.866 132.653 C 143.680 129.591,143.993 127.105,144.197 122.089 C 144.278 120.108,144.429 118.149,144.534 117.734 L 144.724 116.981 143.543 116.825 C 141.869 116.603,136.899 116.905,135.869 117.291 C 133.140 118.314,105.571 118.369,103.601 117.355 C 102.466 116.771,101.416 116.617,98.199 116.565 C 95.648 116.524,94.694 116.388,91.837 115.660 C 89.988 115.189,87.341 114.677,85.954 114.523 C 82.978 114.193,80.856 113.726,79.401 113.082 C 78.820 112.825,77.599 112.444,76.688 112.234 C 75.776 112.024,74.667 111.640,74.222 111.381 C 73.778 111.121,72.406 110.714,71.173 110.477 C 69.672 110.188,68.630 109.838,68.019 109.417 C 67.517 109.071,66.577 108.670,65.929 108.526 C 65.281 108.382,64.363 107.960,63.888 107.588 C 63.414 107.216,62.377 106.672,61.585 106.380 C 60.792 106.087,59.927 105.645,59.661 105.397 C 59.396 105.149,58.532 104.661,57.741 104.312 C 56.950 103.963,56.216 103.524,56.110 103.338 C 56.003 103.151,55.497 102.784,54.985 102.523 C 54.473 102.261,53.891 101.815,53.692 101.531 C 53.493 101.247,52.898 100.729,52.370 100.379 C 51.022 99.487,48.323 96.851,47.624 95.744 C 47.302 95.233,46.879 94.754,46.685 94.679 C 46.491 94.605,46.214 94.077,46.070 93.505 C 45.670 91.914,45.094 91.512,44.428 92.358 M118.184 100.751 C 118.916 100.857,119.217 101.083,119.819 101.974 L 120.556 103.066 119.940 103.709 C 117.602 106.149,109.521 105.050,110.704 102.454 C 111.489 100.731,114.047 100.149,118.184 100.751 M55.536 106.512 C 55.837 107.085,55.566 108.740,55.094 109.211 C 54.407 109.898,53.841 107.186,54.520 106.463 C 55.189 105.751,55.137 105.749,55.536 106.512 M63.385 117.181 C 63.385 117.305,63.223 117.407,63.025 117.407 C 62.654 117.407,62.548 117.124,62.819 116.853 C 63.010 116.661,63.385 116.878,63.385 117.181 M59.541 136.491 C 60.114 137.182,59.353 138.834,58.709 138.300 C 57.931 137.654,57.818 137.140,58.338 136.620 C 58.917 136.041,59.147 136.016,59.541 136.491 M121.353 141.202 C 121.143 141.541,120.768 141.452,120.768 141.064 C 120.768 140.850,120.909 140.765,121.127 140.849 C 121.324 140.925,121.426 141.083,121.353 141.202 M127.742 152.834 C 128.000 153.146,127.970 153.290,127.555 153.704 L 127.059 154.200 126.776 153.672 C 126.250 152.689,127.047 151.997,127.742 152.834 M111.533 157.606 C 111.045 158.103,111.044 158.103,110.644 157.623 C 110.019 156.875,110.724 156.129,111.501 156.715 L 112.022 157.108 111.533 157.606 M359.302 187.516 C 358.661 188.226,359.004 188.337,359.665 187.634 C 359.974 187.304,360.118 187.035,359.983 187.035 C 359.848 187.035,359.542 187.252,359.302 187.516 M331.453 211.525 C 331.214 211.789,331.139 212.005,331.287 212.005 C 331.435 212.005,331.671 211.789,331.813 211.525 C 331.954 211.261,332.029 211.044,331.978 211.044 C 331.928 211.044,331.692 211.261,331.453 211.525"/><path id="path1" fill="#fbe9f6" fill-rule="evenodd" stroke="none" d="M107.443 9.288 C 105.909 9.474,105.610 9.624,105.363 10.333 L 105.115 11.044 101.597 11.063 C 95.786 11.093,95.406 11.170,95.185 12.352 L 95.025 13.205 91.390 13.209 C 87.382 13.213,87.234 13.250,87.117 14.286 L 87.035 15.006 85.234 15.071 C 84.244 15.107,83.271 15.205,83.073 15.289 C 82.875 15.373,82.621 15.421,82.508 15.396 C 81.968 15.274,81.411 15.697,81.270 16.337 C 81.123 17.008,79.725 17.325,77.987 17.081 C 77.464 17.007,76.017 17.892,75.673 18.496 C 75.344 19.074,75.111 19.205,74.407 19.206 C 73.290 19.208,72.065 19.826,71.733 20.554 C 71.560 20.934,71.261 21.135,70.850 21.148 C 69.123 21.204,67.949 21.695,67.590 22.510 C 67.407 22.927,67.155 23.049,66.479 23.049 C 65.494 23.049,65.201 23.328,65.094 24.370 C 65.000 25.280,65.150 25.200,63.452 25.239 C 61.703 25.278,61.370 25.451,61.333 26.337 C 61.308 26.950,61.209 27.022,60.244 27.131 C 59.223 27.246,59.181 27.283,59.111 28.128 C 59.039 28.981,59.006 29.009,57.910 29.140 C 57.290 29.214,56.567 29.318,56.303 29.372 C 56.038 29.426,55.746 29.484,55.653 29.501 C 55.560 29.518,55.413 29.910,55.326 30.372 C 55.174 31.185,54.659 31.427,53.481 31.241 C 53.382 31.225,53.285 31.348,53.265 31.513 C 53.245 31.678,53.203 31.921,53.172 32.053 C 53.142 32.185,53.104 32.475,53.089 32.699 C 53.069 32.988,52.803 33.126,52.161 33.179 C 51.309 33.249,51.256 33.302,51.186 34.154 C 51.114 35.029,51.085 35.054,50.166 35.054 C 49.645 35.054,49.220 35.155,49.220 35.277 C 49.220 35.400,48.977 35.535,48.679 35.578 C 48.352 35.624,47.997 35.953,47.779 36.412 C 47.527 36.943,47.154 37.250,46.536 37.437 C 45.854 37.643,45.593 37.884,45.393 38.491 C 45.202 39.070,44.929 39.338,44.361 39.507 C 43.793 39.675,43.534 39.931,43.381 40.473 C 43.229 41.012,42.969 41.270,42.415 41.433 C 41.852 41.599,41.661 41.793,41.674 42.185 C 41.684 42.475,41.603 42.658,41.494 42.591 C 41.386 42.524,41.297 42.689,41.297 42.957 C 41.297 43.226,41.031 43.621,40.706 43.833 C 40.381 44.046,40.049 44.427,39.969 44.679 C 39.889 44.932,39.669 45.138,39.480 45.138 C 39.290 45.138,39.136 45.234,39.136 45.352 C 39.136 45.470,38.868 45.633,38.540 45.716 C 37.784 45.905,37.215 46.994,37.215 48.247 C 37.215 49.216,36.797 49.457,35.474 49.248 C 35.375 49.232,35.278 49.355,35.258 49.520 C 35.237 49.685,35.196 49.928,35.165 50.060 C 35.135 50.192,35.097 50.472,35.082 50.682 C 35.065 50.909,34.664 51.181,34.094 51.352 C 33.223 51.613,33.133 51.714,33.133 52.441 C 33.133 53.133,33.039 53.260,32.432 53.381 C 31.641 53.540,31.453 53.942,31.236 55.942 C 31.108 57.122,31.037 57.255,30.573 57.191 C 30.288 57.152,29.983 57.235,29.897 57.375 C 29.810 57.516,29.621 57.558,29.478 57.470 C 29.329 57.377,29.286 57.420,29.379 57.569 C 29.467 57.713,29.425 57.901,29.284 57.988 C 29.144 58.075,29.061 58.375,29.100 58.655 C 29.148 58.996,28.980 59.260,28.589 59.457 C 27.839 59.835,27.131 61.296,27.131 62.468 C 27.131 63.214,27.044 63.385,26.668 63.385 C 26.074 63.385,25.385 64.069,25.549 64.497 C 25.618 64.678,25.591 64.826,25.488 64.826 C 25.384 64.826,25.274 65.332,25.242 65.951 C 25.170 67.326,25.098 67.456,24.490 67.296 C 24.221 67.226,24.010 67.289,24.010 67.439 C 24.010 67.586,23.881 67.680,23.723 67.647 C 23.378 67.575,23.116 68.606,23.078 70.191 C 23.054 71.157,22.964 71.376,22.546 71.485 C 21.918 71.649,21.128 73.413,21.128 74.651 C 21.128 75.369,21.011 75.606,20.554 75.815 C 19.597 76.251,19.208 77.383,19.208 79.733 C 19.208 81.634,19.160 81.855,18.725 81.994 C 17.547 82.367,17.047 83.707,17.047 86.483 L 17.047 89.062 16.274 89.262 C 15.264 89.524,15.179 89.883,15.150 94.032 L 15.126 97.427 14.533 97.576 C 13.303 97.885,13.325 97.536,13.325 116.350 C 13.325 135.311,13.268 134.456,14.576 134.953 C 15.109 135.156,15.127 135.258,15.150 138.349 C 15.179 142.279,15.271 142.651,16.274 142.911 L 17.047 143.111 17.075 145.325 C 17.091 146.543,17.085 147.679,17.062 147.850 C 17.000 148.314,17.980 149.791,18.635 150.220 C 19.164 150.567,19.208 150.751,19.208 152.616 C 19.208 154.943,19.612 156.169,20.516 156.581 C 20.938 156.773,21.131 157.053,21.138 157.482 C 21.169 159.624,21.707 160.864,22.606 160.864 C 22.971 160.864,23.054 161.067,23.078 162.005 C 23.117 163.569,23.380 164.598,23.723 164.526 C 23.881 164.493,24.010 164.586,24.010 164.734 C 24.010 164.884,24.221 164.947,24.490 164.876 C 25.098 164.717,25.170 164.847,25.242 166.222 C 25.274 166.841,25.384 167.347,25.488 167.347 C 25.591 167.347,25.612 167.510,25.536 167.710 C 25.345 168.207,25.922 168.846,26.438 168.711 C 26.912 168.587,27.131 168.987,27.131 169.978 C 27.131 171.042,27.801 172.382,28.458 172.632 C 28.904 172.801,29.052 173.033,29.052 173.564 C 29.052 174.777,29.263 175.030,30.278 175.030 L 31.212 175.030 31.216 176.291 C 31.221 177.907,31.629 178.729,32.479 178.827 C 32.981 178.886,33.140 179.039,33.163 179.488 C 33.227 180.726,33.462 181.032,34.348 181.032 C 34.912 181.032,35.060 181.141,35.082 181.573 C 35.097 181.870,35.124 182.275,35.142 182.473 C 35.163 182.705,35.516 182.876,36.134 182.953 L 37.095 183.073 37.286 184.622 C 37.493 186.307,37.753 186.795,38.442 186.795 C 38.702 186.795,39.139 187.190,39.485 187.737 C 39.834 188.291,40.302 188.712,40.619 188.758 C 41.015 188.815,41.203 189.052,41.324 189.647 C 41.503 190.530,41.864 190.867,42.635 190.873 C 43.009 190.875,43.188 191.099,43.355 191.777 C 43.537 192.512,43.730 192.726,44.407 192.945 C 44.863 193.093,45.278 193.336,45.328 193.487 C 45.378 193.637,45.517 193.700,45.636 193.626 C 45.755 193.553,45.795 193.643,45.725 193.827 C 45.560 194.256,46.224 194.813,46.689 194.635 C 46.947 194.536,47.116 194.760,47.301 195.444 C 47.602 196.562,48.090 196.871,49.841 197.052 L 51.140 197.186 51.140 198.113 C 51.140 199.032,51.149 199.040,52.086 199.040 C 53.006 199.040,53.034 199.065,53.107 199.940 C 53.179 200.814,53.211 200.843,54.202 200.914 C 55.039 200.975,55.222 201.075,55.222 201.470 C 55.222 202.338,55.661 202.813,56.599 202.963 C 57.278 203.072,57.623 203.296,57.941 203.836 C 58.177 204.235,58.526 204.562,58.717 204.562 C 58.908 204.562,59.064 204.670,59.064 204.802 C 59.064 204.934,59.543 205.042,60.130 205.042 C 61.188 205.042,61.196 205.048,61.270 205.942 L 61.345 206.843 63.205 206.913 L 65.066 206.983 65.066 207.765 C 65.066 208.751,65.435 209.124,66.411 209.124 C 67.050 209.124,67.222 209.246,67.431 209.845 C 67.735 210.717,68.492 211.044,70.205 211.044 C 71.308 211.044,71.505 211.119,71.733 211.619 C 72.059 212.333,73.285 212.965,74.347 212.965 C 75.026 212.965,75.150 213.051,75.150 213.520 C 75.150 214.729,75.582 214.930,78.468 215.067 L 81.152 215.194 81.152 215.975 C 81.152 216.931,81.411 217.047,83.550 217.047 C 85.154 217.047,85.192 217.061,85.439 217.768 C 85.791 218.779,86.496 218.968,89.917 218.968 C 91.669 218.968,92.951 219.068,93.039 219.211 C 93.122 219.345,93.551 219.606,93.993 219.791 C 94.435 219.975,95.021 220.352,95.297 220.627 C 95.753 221.083,96.076 221.128,98.849 221.128 L 101.901 221.128 102.822 222.029 L 103.744 222.929 118.559 223.003 C 136.270 223.091,136.532 223.069,137.119 221.436 C 137.182 221.263,138.484 221.142,140.858 221.089 L 144.501 221.008 145.443 219.988 L 146.385 218.968 149.413 218.968 L 152.442 218.968 153.302 218.037 C 154.136 217.136,154.221 217.104,156.060 216.997 C 158.061 216.882,158.627 216.623,158.749 215.769 C 158.818 215.283,158.994 215.236,161.238 215.099 C 164.007 214.931,164.604 214.696,164.825 213.687 C 164.975 213.005,165.049 212.965,166.150 212.965 C 167.825 212.965,168.529 212.635,168.703 211.769 C 168.834 211.110,168.933 211.044,169.797 211.044 C 170.590 211.044,170.897 210.887,171.669 210.084 C 172.362 209.363,172.779 209.124,173.346 209.124 C 174.548 209.124,175.030 208.743,175.030 207.795 C 175.030 207.008,175.074 206.963,175.851 206.963 C 176.856 206.963,178.041 206.315,178.374 205.585 C 178.576 205.142,178.814 205.042,179.669 205.042 C 181.124 205.042,182.880 203.448,182.996 202.021 L 183.073 201.080 184.394 201.018 C 186.505 200.919,186.722 200.821,186.896 199.896 C 187.036 199.147,187.137 199.061,187.943 198.994 C 188.785 198.924,188.840 198.869,188.910 198.019 C 188.977 197.205,189.051 197.119,189.673 197.119 C 190.552 197.119,191.116 196.554,191.116 195.676 C 191.116 195.053,191.203 194.980,192.017 194.912 L 192.917 194.838 192.857 192.936 C 192.819 191.721,192.676 190.898,192.461 190.655 C 192.276 190.447,191.961 189.880,191.761 189.395 C 191.561 188.911,191.176 188.396,190.906 188.251 C 190.635 188.106,190.091 187.530,189.696 186.971 C 189.302 186.412,188.532 185.468,187.987 184.874 C 187.442 184.280,186.513 183.064,185.923 182.173 C 185.333 181.282,184.750 180.552,184.627 180.552 C 184.504 180.552,184.173 180.093,183.891 179.532 C 183.610 178.971,183.160 178.272,182.893 177.980 C 182.355 177.393,181.953 176.746,181.396 175.570 C 181.192 175.141,180.915 174.790,180.779 174.790 C 180.643 174.790,180.217 174.088,179.832 173.229 C 179.447 172.371,179.044 171.669,178.936 171.669 C 178.744 171.669,178.328 170.941,177.562 169.268 C 177.303 168.701,176.832 168.253,176.120 167.894 L 175.062 167.361 172.825 167.818 C 171.595 168.070,169.474 168.398,168.112 168.547 C 166.750 168.696,164.805 169.084,163.790 169.409 C 162.688 169.761,160.556 170.146,158.498 170.365 C 156.602 170.566,154.604 170.882,154.056 171.067 C 151.093 172.068,147.166 172.519,146.046 171.988 C 144.930 171.458,144.940 171.525,145.349 167.317 C 145.547 165.287,145.771 160.924,145.847 157.623 C 146.085 147.325,146.472 137.409,146.832 132.413 C 147.658 120.927,147.781 116.991,147.343 116.146 C 146.777 115.054,145.264 113.027,144.734 112.649 C 144.491 112.475,144.080 111.918,143.821 111.411 C 143.562 110.904,143.105 110.288,142.804 110.042 C 142.503 109.796,141.667 108.732,140.945 107.678 C 140.224 106.625,139.432 105.546,139.185 105.282 C 138.938 105.018,138.306 104.100,137.780 103.241 C 136.669 101.425,135.420 99.572,134.641 98.584 C 134.340 98.202,134.007 97.662,133.900 97.384 C 133.794 97.106,133.396 96.555,133.015 96.158 C 132.635 95.762,132.143 94.903,131.922 94.249 C 131.183 92.061,130.066 92.197,148.771 92.197 L 164.956 92.197 165.901 91.572 C 167.197 90.714,167.883 87.851,167.004 86.972 C 166.862 86.830,122.894 86.872,122.750 87.014 C 122.163 87.595,122.465 89.413,123.341 90.573 C 123.867 91.270,124.468 92.171,124.678 92.576 C 124.887 92.981,125.228 93.453,125.436 93.626 C 125.644 93.798,126.100 94.466,126.451 95.109 C 126.801 95.752,127.173 96.279,127.277 96.279 C 127.382 96.279,127.856 96.954,128.331 97.779 C 129.253 99.379,130.628 101.345,131.390 102.150 C 131.646 102.420,132.066 103.052,132.325 103.554 C 132.584 104.057,133.169 104.956,133.625 105.554 C 134.081 106.151,134.454 106.749,134.454 106.883 C 134.454 107.017,134.832 107.568,135.294 108.108 C 135.756 108.648,136.134 109.220,136.134 109.380 C 136.134 109.539,136.291 109.971,136.482 110.339 C 136.893 111.131,136.829 111.274,135.819 111.826 C 133.821 112.919,100.675 112.295,99.253 111.138 C 99.106 111.019,96.896 110.706,94.341 110.442 C 91.622 110.162,88.795 109.721,87.525 109.377 C 86.331 109.055,84.328 108.638,83.073 108.451 C 81.730 108.250,80.219 107.844,79.397 107.463 C 78.629 107.106,77.008 106.599,75.795 106.335 C 74.582 106.071,73.153 105.600,72.620 105.288 C 72.087 104.976,70.953 104.542,70.099 104.322 C 69.246 104.102,68.007 103.620,67.347 103.250 C 66.687 102.881,65.759 102.455,65.285 102.304 C 64.811 102.153,64.073 101.771,63.645 101.455 C 63.216 101.139,62.253 100.641,61.505 100.348 C 60.756 100.055,59.980 99.634,59.780 99.411 C 59.581 99.188,58.878 98.694,58.220 98.312 C 54.783 96.319,50.530 91.865,49.689 89.378 C 49.410 88.554,49.098 87.828,48.995 87.765 C 47.464 86.818,48.896 80.530,51.295 77.666 C 53.974 74.469,57.503 71.527,60.264 70.190 C 60.990 69.839,61.880 69.306,62.241 69.008 C 62.602 68.709,63.467 68.251,64.162 67.990 C 64.857 67.728,66.128 67.143,66.987 66.689 C 67.845 66.236,69.071 65.735,69.710 65.576 C 70.350 65.418,71.139 65.113,71.465 64.900 C 71.790 64.687,73.070 64.267,74.308 63.968 C 75.546 63.669,77.026 63.154,77.596 62.825 C 78.261 62.441,79.489 62.085,81.032 61.831 C 82.353 61.613,84.136 61.231,84.994 60.981 C 87.222 60.332,89.785 59.854,92.591 59.563 C 93.931 59.425,95.930 59.102,97.033 58.846 C 104.481 57.118,133.666 57.089,140.216 58.803 C 141.206 59.062,142.989 59.393,144.178 59.538 C 147.101 59.894,150.143 60.476,151.741 60.985 C 152.467 61.216,154.250 61.590,155.702 61.815 C 157.479 62.090,158.697 62.420,159.424 62.825 C 160.018 63.156,161.460 63.637,162.629 63.893 C 163.797 64.150,165.160 64.568,165.658 64.822 C 166.155 65.075,167.090 65.410,167.735 65.564 C 168.380 65.719,169.784 66.264,170.855 66.776 C 173.770 68.169,174.977 68.117,175.723 66.567 C 176.024 65.939,176.574 64.940,176.944 64.346 C 177.313 63.752,177.741 62.873,177.893 62.394 C 178.045 61.915,178.369 61.342,178.614 61.120 C 178.859 60.899,179.402 60.021,179.821 59.170 C 180.240 58.319,180.686 57.623,180.813 57.623 C 180.940 57.623,181.145 57.359,181.267 57.037 C 181.559 56.269,184.416 52.037,184.809 51.789 C 184.977 51.683,185.292 51.251,185.509 50.828 C 185.970 49.930,188.620 46.591,189.207 46.168 C 189.428 46.008,189.748 45.544,189.917 45.136 C 190.086 44.729,190.510 44.247,190.860 44.066 C 191.231 43.874,191.734 43.229,192.068 42.517 C 192.382 41.846,192.729 41.297,192.838 41.297 C 193.066 41.297,193.111 38.168,192.891 37.595 C 192.798 37.352,192.452 37.215,191.931 37.215 C 191.162 37.215,191.116 37.169,191.116 36.383 C 191.116 35.468,190.636 35.054,189.572 35.054 C 189.094 35.054,188.955 34.933,188.952 34.514 C 188.946 33.711,188.692 33.460,187.695 33.277 C 186.979 33.145,186.794 33.003,186.791 32.582 C 186.785 31.724,186.447 31.424,185.329 31.283 C 184.210 31.143,183.278 30.484,182.933 29.590 C 182.818 29.292,182.640 29.062,182.538 29.078 C 181.563 29.237,181.089 29.006,180.881 28.271 C 180.694 27.608,180.508 27.457,179.646 27.265 C 178.954 27.110,178.631 26.913,178.631 26.642 C 178.631 25.948,177.771 25.426,176.392 25.283 C 175.102 25.150,175.057 25.121,174.859 24.287 C 174.628 23.307,174.200 23.111,172.209 23.073 C 170.971 23.050,170.948 23.036,170.948 22.323 C 170.948 21.431,170.305 21.128,168.412 21.128 C 167.253 21.128,167.107 21.073,167.107 20.632 C 167.107 19.448,166.725 19.208,164.844 19.208 C 162.997 19.208,162.800 19.065,162.685 17.647 C 162.674 17.515,162.539 17.407,162.385 17.407 C 162.231 17.407,162.024 17.326,161.925 17.227 C 161.826 17.128,160.682 17.047,159.384 17.047 L 157.023 17.047 157.023 16.429 C 157.023 15.377,156.526 15.126,154.440 15.126 C 152.627 15.126,152.544 15.102,152.562 14.586 C 152.573 14.274,152.454 14.071,152.281 14.106 C 152.116 14.139,152.008 14.040,152.041 13.887 C 152.142 13.416,151.040 13.254,147.567 13.229 C 144.150 13.205,143.097 12.855,143.097 11.746 C 143.097 11.258,141.851 11.086,138.099 11.057 L 134.222 11.027 133.322 10.203 C 132.827 9.749,132.204 9.361,131.937 9.339 C 130.887 9.254,108.119 9.206,107.443 9.288 M90.516 66.129 C 88.083 66.580,87.326 66.915,86.239 68.022 L 85.230 69.050 85.614 70.176 C 85.966 71.209,87.107 72.509,87.663 72.509 C 87.790 72.509,88.224 72.752,88.626 73.049 C 89.640 73.799,96.831 73.878,98.158 73.153 C 101.181 71.504,102.297 69.611,100.903 68.497 C 100.538 68.206,99.970 67.705,99.640 67.384 C 98.936 66.700,98.729 66.629,96.038 66.155 C 93.667 65.737,92.660 65.732,90.516 66.129 M144.058 70.033 C 137.233 70.750,136.080 76.311,142.427 77.902 C 149.793 79.750,156.705 75.796,152.881 71.923 C 151.512 70.536,151.249 70.427,148.560 70.127 C 146.268 69.871,145.709 69.860,144.058 70.033 M118.051 74.407 C 116.877 74.654,116.532 75.030,116.329 76.290 L 116.164 77.310 117.326 77.839 C 118.972 78.590,123.527 78.633,124.970 77.911 C 126.373 77.210,125.990 74.910,124.418 74.596 C 123.124 74.337,118.971 74.214,118.051 74.407 M71.473 88.691 C 70.969 88.877,70.366 89.202,70.133 89.413 C 69.901 89.624,69.611 89.799,69.489 89.802 C 68.410 89.834,66.645 92.852,67.281 93.578 C 67.484 93.809,67.831 94.357,68.054 94.797 C 69.976 98.589,81.455 98.599,83.973 94.809 C 84.270 94.363,84.668 93.795,84.858 93.547 C 85.162 93.152,85.154 93.020,84.789 92.467 C 84.561 92.120,84.262 91.621,84.125 91.357 C 83.988 91.092,83.081 90.336,82.110 89.676 L 80.344 88.475 76.366 88.414 C 73.407 88.368,72.154 88.439,71.473 88.691 M46.070 93.505 C 46.214 94.077,46.491 94.605,46.685 94.679 C 46.879 94.754,47.302 95.233,47.624 95.744 C 48.323 96.851,51.022 99.487,52.370 100.379 C 52.898 100.729,53.493 101.247,53.692 101.531 C 53.891 101.815,54.473 102.261,54.985 102.523 C 55.497 102.784,56.003 103.151,56.110 103.338 C 56.216 103.524,56.950 103.963,57.741 104.312 C 58.532 104.661,59.396 105.149,59.661 105.397 C 59.927 105.645,60.792 106.087,61.585 106.380 C 62.377 106.672,63.414 107.216,63.888 107.588 C 64.363 107.960,65.281 108.382,65.929 108.526 C 66.577 108.670,67.517 109.071,68.019 109.417 C 68.630 109.838,69.672 110.188,71.173 110.477 C 72.406 110.714,73.778 111.121,74.222 111.381 C 74.667 111.640,75.776 112.024,76.688 112.234 C 77.599 112.444,78.820 112.825,79.401 113.082 C 80.856 113.726,82.978 114.193,85.954 114.523 C 87.341 114.677,89.988 115.189,91.837 115.660 C 94.694 116.388,95.648 116.524,98.199 116.565 C 101.416 116.617,102.466 116.771,103.601 117.355 C 105.571 118.369,133.140 118.314,135.869 117.291 C 136.899 116.905,141.869 116.603,143.543 116.825 L 144.724 116.981 144.534 117.734 C 144.429 118.149,144.278 120.108,144.197 122.089 C 143.993 127.105,143.680 129.591,142.866 132.653 C 141.984 135.973,141.777 138.944,141.869 146.939 C 141.927 152.021,141.875 153.245,141.561 154.142 C 141.099 155.463,141.079 156.831,141.504 158.103 C 142.013 159.628,142.044 173.169,141.539 173.587 C 141.016 174.021,131.415 174.607,129.292 174.334 C 129.028 174.300,128.055 174.396,127.131 174.547 C 125.453 174.821,122.654 174.782,109.964 174.306 C 106.993 174.194,103.968 173.996,103.241 173.864 C 102.515 173.732,101.205 173.617,100.330 173.607 C 99.456 173.597,98.297 173.433,97.756 173.242 C 96.819 172.912,94.952 172.609,88.905 171.809 C 87.425 171.613,85.967 171.291,85.664 171.094 C 85.362 170.897,84.034 170.557,82.713 170.338 C 81.098 170.071,79.913 169.719,79.092 169.265 C 78.421 168.893,77.341 168.512,76.691 168.417 C 75.073 168.181,73.188 167.453,72.368 166.749 C 71.979 166.414,71.025 166.011,70.151 165.812 C 69.188 165.592,68.495 165.286,68.286 164.989 C 68.099 164.721,67.235 164.296,66.302 164.013 C 65.393 163.737,64.514 163.348,64.349 163.149 C 64.183 162.950,63.386 162.452,62.576 162.044 C 61.767 161.635,60.888 161.107,60.624 160.870 C 60.360 160.632,59.693 160.212,59.141 159.935 C 58.589 159.658,58.073 159.241,57.993 159.008 C 57.860 158.619,57.107 157.996,55.123 156.633 C 54.715 156.353,53.842 155.507,53.181 154.753 C 52.521 153.999,51.564 152.986,51.056 152.501 C 50.547 152.017,49.933 151.235,49.693 150.764 C 49.452 150.293,49.088 149.769,48.884 149.600 C 48.680 149.431,48.246 148.709,47.919 147.995 C 47.593 147.282,47.214 146.699,47.077 146.699 C 46.796 146.699,45.858 144.976,45.858 144.460 C 45.858 144.274,45.646 143.852,45.386 143.522 C 44.910 142.916,44.662 142.053,44.188 139.342 C 44.046 138.530,43.589 137.207,43.174 136.401 C 42.365 134.833,42.392 135.023,41.783 126.651 C 41.638 124.670,41.469 122.686,41.406 122.243 C 41.343 121.799,41.453 120.499,41.652 119.354 C 41.875 118.071,42.046 115.202,42.100 111.878 C 42.152 108.573,42.293 106.221,42.462 105.807 C 42.613 105.435,42.737 104.447,42.737 103.612 C 42.737 101.884,43.303 98.628,43.817 97.398 C 44.226 96.418,44.330 95.045,44.083 93.871 C 43.612 91.635,45.511 91.285,46.070 93.505 M113.777 100.573 C 112.524 100.757,111.073 101.645,110.704 102.454 C 109.521 105.050,117.602 106.149,119.940 103.709 L 120.556 103.066 119.819 101.974 C 119.217 101.083,118.916 100.857,118.184 100.751 C 116.289 100.475,114.845 100.417,113.777 100.573 M54.520 106.463 C 53.921 107.101,53.988 108.284,54.663 108.959 C 55.082 109.378,55.102 109.360,55.525 108.132 C 56.076 106.533,55.443 105.481,54.520 106.463 M62.819 116.853 C 62.548 117.124,62.654 117.407,63.025 117.407 C 63.223 117.407,63.385 117.305,63.385 117.181 C 63.385 116.878,63.010 116.661,62.819 116.853 M157.613 122.465 C 157.211 122.582,156.624 123.031,156.310 123.463 C 155.995 123.896,155.595 124.336,155.420 124.442 C 154.046 125.272,153.952 131.573,155.313 131.573 C 155.426 131.573,155.802 132.002,156.149 132.526 C 157.553 134.648,162.489 134.782,163.736 132.732 C 165.301 130.158,164.307 123.001,162.307 122.446 C 161.285 122.162,158.617 122.173,157.613 122.465 M58.338 136.620 C 57.818 137.140,57.931 137.654,58.709 138.300 C 59.039 138.574,59.135 138.571,59.324 138.280 C 60.245 136.862,59.444 135.514,58.338 136.620 M120.768 141.064 C 120.768 141.452,121.143 141.541,121.353 141.202 C 121.426 141.083,121.324 140.925,121.127 140.849 C 120.909 140.765,120.768 140.850,120.768 141.064 M126.625 152.802 C 126.553 152.990,126.621 153.381,126.776 153.672 L 127.059 154.200 127.555 153.704 C 127.970 153.290,128.000 153.146,127.742 152.834 C 127.355 152.368,126.797 152.352,126.625 152.802 M110.612 156.733 C 109.961 157.456,110.851 158.300,111.533 157.606 L 112.022 157.108 111.501 156.715 C 111.018 156.351,110.954 156.352,110.612 156.733"/><path id="path2" fill="#866732" fill-rule="evenodd" stroke="none" d="M254.657 5.272 C 253.653 5.470,253.311 5.822,253.305 6.663 C 253.301 7.201,253.286 7.203,249.354 7.203 C 247.101 7.203,245.346 7.301,245.265 7.432 C 245.187 7.559,244.949 7.596,244.737 7.514 C 244.473 7.413,244.391 7.472,244.475 7.705 C 244.543 7.891,244.746 8.011,244.928 7.973 C 245.110 7.934,244.936 8.165,244.543 8.486 C 243.892 9.018,243.569 9.078,240.883 9.167 C 237.805 9.270,237.406 9.406,237.336 10.376 C 237.299 10.891,237.166 10.933,235.155 11.074 C 232.432 11.263,231.726 11.538,231.537 12.481 C 231.395 13.195,231.371 13.205,229.873 13.205 C 227.899 13.205,227.084 13.564,227.179 14.389 C 227.250 14.995,227.217 15.008,225.399 15.137 C 223.309 15.286,223.231 15.327,223.195 16.292 C 223.169 16.986,223.159 16.991,221.404 17.104 C 219.522 17.226,219.218 17.421,219.211 18.514 C 219.208 19.108,219.128 19.148,217.712 19.277 C 216.198 19.414,215.366 19.953,215.366 20.795 C 215.366 21.006,215.099 21.128,214.636 21.128 C 213.721 21.128,212.292 21.849,211.586 22.666 C 211.287 23.012,210.793 23.289,210.475 23.289 C 209.799 23.289,209.441 23.664,209.327 24.490 C 209.259 24.979,209.090 25.105,208.412 25.169 C 207.815 25.226,207.373 25.488,206.843 26.102 C 206.437 26.571,205.624 27.143,205.036 27.373 C 204.368 27.634,203.824 28.050,203.586 28.481 C 203.313 28.975,202.970 29.206,202.382 29.292 C 201.667 29.396,201.532 29.529,201.338 30.312 C 201.153 31.060,201.011 31.213,200.498 31.216 C 199.641 31.221,199.366 31.453,199.176 32.329 C 199.041 32.951,198.867 33.112,198.195 33.238 C 197.496 33.369,197.355 33.512,197.221 34.223 C 197.107 34.834,196.941 35.054,196.596 35.054 C 195.677 35.054,195.198 35.509,195.198 36.383 C 195.198 37.172,195.155 37.215,194.366 37.215 C 193.064 37.215,192.588 38.507,193.524 39.503 C 194.254 40.280,194.287 40.987,193.643 42.008 C 193.327 42.509,192.901 43.320,192.696 43.810 C 192.491 44.300,192.118 44.755,191.867 44.820 C 191.617 44.886,191.318 45.141,191.204 45.388 C 190.936 45.966,188.580 48.874,187.591 49.846 C 187.171 50.259,186.667 50.981,186.471 51.450 C 186.275 51.920,185.841 52.483,185.506 52.702 C 185.172 52.921,184.778 53.466,184.630 53.913 C 184.483 54.360,184.030 55.080,183.624 55.514 C 183.218 55.948,182.698 56.741,182.468 57.277 C 182.238 57.813,181.790 58.421,181.474 58.628 C 181.117 58.862,180.740 59.508,180.480 60.332 C 180.207 61.198,179.814 61.854,179.349 62.222 C 178.957 62.532,178.634 62.893,178.632 63.025 C 178.621 63.790,178.040 65.158,177.453 65.800 C 177.081 66.208,176.649 66.966,176.494 67.483 C 176.309 68.101,175.984 68.542,175.549 68.767 C 174.973 69.065,173.589 71.318,173.589 71.958 C 173.589 72.068,173.332 72.537,173.016 73.001 C 172.701 73.464,172.252 74.543,172.018 75.397 C 171.784 76.252,171.347 77.383,171.046 77.911 C 170.746 78.439,170.376 79.412,170.224 80.072 C 169.927 81.364,169.844 81.603,169.051 83.433 C 168.629 84.406,168.516 85.205,168.452 87.643 C 168.371 90.779,168.053 91.938,167.087 92.620 C 166.608 92.958,166.022 95.397,165.777 98.079 C 165.692 99.004,165.360 101.164,165.039 102.881 C 163.551 110.824,163.745 121.483,165.473 126.705 C 165.896 127.984,165.950 128.608,165.849 131.027 C 165.688 134.905,166.035 138.211,166.867 140.716 C 167.243 141.850,167.730 143.849,167.949 145.158 C 168.168 146.468,168.598 148.079,168.905 148.739 C 169.212 149.400,169.708 150.804,170.008 151.861 C 170.308 152.917,170.742 154.056,170.971 154.391 C 171.201 154.726,171.566 155.685,171.783 156.520 C 171.999 157.356,172.486 158.594,172.863 159.272 C 173.241 159.950,173.722 161.094,173.932 161.814 C 174.356 163.272,175.056 164.416,176.737 166.403 C 177.359 167.138,178.045 168.163,178.261 168.681 C 178.477 169.198,178.888 169.870,179.173 170.174 C 179.459 170.477,179.913 171.247,180.182 171.884 C 180.452 172.520,181.023 173.452,181.453 173.954 C 181.882 174.456,182.233 174.975,182.233 175.107 C 182.233 175.238,182.656 175.896,183.173 176.568 C 183.690 177.241,184.257 178.115,184.433 178.511 C 184.608 178.908,184.997 179.430,185.298 179.673 C 185.598 179.916,186.013 180.441,186.220 180.841 C 186.426 181.241,187.262 182.370,188.076 183.350 C 188.890 184.330,189.791 185.479,190.079 185.904 C 190.366 186.328,190.995 187.057,191.476 187.525 C 192.988 188.997,193.780 191.438,193.233 192.948 C 192.799 194.148,193.250 194.958,194.353 194.958 C 195.157 194.958,195.198 194.998,195.198 195.790 C 195.198 196.659,195.676 197.119,196.581 197.119 C 196.905 197.119,197.097 197.375,197.257 198.019 C 197.450 198.804,197.579 198.929,198.259 198.995 C 198.878 199.054,199.070 199.202,199.192 199.715 C 199.416 200.653,199.734 200.960,200.483 200.960 C 201.052 200.960,201.170 201.081,201.304 201.799 C 201.428 202.457,201.602 202.668,202.111 202.781 C 203.428 203.074,203.557 203.150,203.700 203.723 C 203.883 204.451,204.605 204.861,206.002 205.031 C 207.022 205.155,207.090 205.209,207.203 206.002 C 207.316 206.797,207.378 206.847,208.343 206.917 C 209.285 206.985,209.364 207.043,209.364 207.667 C 209.364 208.454,209.682 208.763,210.685 208.952 C 211.082 209.027,211.883 209.528,212.466 210.066 C 213.319 210.854,213.703 211.044,214.441 211.044 C 215.228 211.044,215.379 211.133,215.514 211.670 C 215.703 212.424,216.842 212.965,218.240 212.965 C 219.146 212.965,219.208 213.009,219.208 213.656 C 219.208 214.622,219.688 214.922,221.465 215.065 C 222.984 215.187,223.010 215.200,223.155 215.974 C 223.333 216.925,223.609 217.047,225.574 217.047 C 227.056 217.047,227.101 217.065,227.175 217.702 C 227.277 218.583,228.105 218.960,229.952 218.964 C 231.249 218.967,231.453 219.028,231.453 219.411 C 231.453 220.431,233.124 221.128,235.570 221.128 C 237.115 221.128,237.215 221.161,237.219 221.669 C 237.226 222.816,237.496 222.924,240.549 223.009 C 242.801 223.071,243.450 223.165,243.557 223.442 C 243.647 223.677,243.593 223.735,243.395 223.616 C 243.181 223.487,243.186 223.546,243.412 223.826 C 244.084 224.655,245.785 224.970,249.593 224.970 L 253.241 224.970 253.383 225.677 C 253.658 227.055,252.999 227.011,273.469 227.011 L 292.317 227.011 293.337 226.348 C 293.899 225.983,294.358 225.524,294.358 225.327 C 294.358 225.029,294.884 224.970,297.539 224.967 C 301.650 224.964,302.305 224.841,303.451 223.859 C 304.362 223.080,304.474 223.049,306.401 223.048 C 309.106 223.046,310.186 222.727,310.525 221.830 C 310.777 221.162,310.859 221.128,312.238 221.125 C 314.130 221.120,314.864 220.748,314.961 219.742 L 315.036 218.968 316.785 218.968 C 318.760 218.968,319.932 218.524,320.344 217.621 C 320.572 217.120,320.777 217.044,321.947 217.023 C 323.964 216.987,324.455 216.788,324.720 215.899 C 324.905 215.275,325.075 215.126,325.600 215.126 C 326.731 215.126,328.419 214.258,328.587 213.590 C 328.712 213.089,328.900 212.979,329.729 212.918 C 330.460 212.864,330.788 212.710,330.976 212.331 C 331.508 211.257,331.847 211.044,333.025 211.044 C 334.325 211.044,334.934 210.618,334.934 209.707 C 334.934 209.207,335.047 209.124,335.726 209.124 C 336.728 209.124,337.095 208.757,337.095 207.755 C 337.095 206.966,337.099 206.963,338.280 206.963 C 339.951 206.963,340.621 206.653,340.810 205.790 C 340.947 205.167,341.089 205.059,341.853 204.996 C 342.654 204.929,342.758 204.838,342.960 204.022 C 343.146 203.266,343.284 203.121,343.812 203.121 C 344.654 203.121,345.018 202.709,345.018 201.753 C 345.018 201.011,345.070 200.960,345.839 200.960 C 346.823 200.960,348.013 200.324,348.408 199.587 C 348.565 199.293,349.058 198.932,349.502 198.786 C 350.062 198.601,350.411 198.278,350.638 197.734 C 350.873 197.173,351.167 196.909,351.672 196.809 C 352.216 196.700,352.462 196.450,352.752 195.713 C 353.020 195.031,353.289 194.736,353.694 194.678 C 354.055 194.627,354.409 194.303,354.666 193.787 C 354.889 193.342,355.321 192.852,355.627 192.700 C 355.932 192.548,356.354 192.061,356.564 191.617 C 356.774 191.173,357.225 190.664,357.566 190.485 C 358.207 190.149,358.944 188.947,358.944 188.236 C 358.944 187.696,359.700 187.035,360.317 187.035 C 360.848 187.035,361.104 186.609,361.104 185.729 C 361.104 185.319,361.299 185.128,361.885 184.961 C 362.510 184.782,362.708 184.566,362.881 183.874 C 363.038 183.243,363.297 182.921,363.837 182.681 C 364.374 182.443,364.646 182.107,364.825 181.461 C 364.960 180.971,365.257 180.430,365.484 180.261 C 366.260 179.680,367.107 178.299,367.107 177.612 C 367.107 177.067,367.254 176.875,367.822 176.677 C 368.486 176.445,369.021 175.434,369.026 174.401 C 369.027 174.253,369.460 173.780,369.988 173.349 C 370.810 172.679,370.948 172.432,370.948 171.632 C 370.948 170.896,371.063 170.646,371.490 170.451 C 372.483 169.999,373.109 168.525,373.109 166.639 L 373.109 164.946 373.924 164.946 C 374.808 164.946,375.030 164.653,375.030 163.486 C 375.030 162.994,375.316 162.491,375.990 161.796 L 376.951 160.806 376.951 158.780 C 376.951 157.556,377.041 156.810,377.180 156.896 C 378.305 157.591,379.112 155.850,379.112 152.726 C 379.112 151.130,379.123 151.102,379.891 150.764 C 380.797 150.365,380.996 149.645,381.019 146.691 C 381.032 144.919,381.046 144.878,381.734 144.618 C 382.699 144.254,382.950 143.189,382.952 139.452 C 382.953 136.574,382.981 136.398,383.455 136.248 C 384.865 135.800,385.115 132.727,385.108 116.001 C 385.100 99.136,384.925 97.014,383.458 95.987 C 383.051 95.701,382.991 95.282,382.917 92.167 C 382.829 88.479,382.703 88.042,381.615 87.628 C 381.143 87.449,381.086 87.213,380.974 84.952 C 380.829 82.010,380.708 81.652,379.802 81.471 L 379.112 81.333 379.110 79.382 C 379.109 77.365,378.780 75.657,378.380 75.594 C 378.254 75.574,378.016 75.547,377.851 75.534 C 377.167 75.480,376.951 74.911,376.951 73.169 L 376.951 71.394 375.990 70.588 C 375.185 69.912,375.030 69.638,375.030 68.884 C 375.030 67.520,374.839 67.227,373.949 67.227 L 373.160 67.227 373.075 65.349 C 373.012 63.964,372.879 63.361,372.569 63.051 C 372.338 62.820,372.149 62.528,372.149 62.403 C 372.149 62.277,371.884 62.054,371.560 61.906 C 371.064 61.680,370.960 61.445,370.900 60.411 C 370.842 59.414,370.750 59.190,370.408 59.217 C 370.177 59.235,369.988 59.126,369.988 58.975 C 369.988 58.823,369.772 58.564,369.508 58.399 C 369.244 58.234,369.027 57.965,369.026 57.801 C 369.021 56.728,368.471 55.651,367.811 55.421 C 367.257 55.227,367.107 55.031,367.107 54.498 C 367.107 53.702,366.893 53.061,366.626 53.061 C 366.216 53.061,364.946 51.639,364.946 51.180 C 364.946 50.196,364.507 49.507,363.778 49.347 C 363.173 49.214,363.038 49.045,362.904 48.251 C 362.763 47.418,362.654 47.296,361.925 47.159 C 361.233 47.029,361.104 46.905,361.104 46.360 C 361.104 45.628,360.715 45.138,360.133 45.138 C 359.634 45.138,358.944 44.389,358.944 43.849 C 358.944 43.404,358.690 43.031,357.719 42.045 C 357.375 41.696,356.914 41.063,356.694 40.637 C 356.474 40.212,355.972 39.697,355.578 39.494 C 355.181 39.289,354.862 38.928,354.862 38.687 C 354.862 38.166,354.210 37.539,353.541 37.417 C 353.241 37.362,352.961 37.016,352.793 36.492 C 352.593 35.868,352.324 35.587,351.743 35.392 C 351.231 35.221,350.855 34.878,350.653 34.398 C 350.447 33.909,350.078 33.577,349.539 33.400 C 349.096 33.253,348.627 32.890,348.496 32.593 C 348.366 32.296,347.812 31.827,347.265 31.551 C 345.905 30.864,345.018 30.134,345.018 29.703 C 345.018 29.292,344.523 29.052,343.678 29.052 C 343.266 29.052,343.097 28.918,343.097 28.591 C 343.097 27.699,342.801 27.368,341.871 27.219 C 341.171 27.107,340.936 26.957,340.936 26.620 C 340.936 25.710,340.085 25.210,338.535 25.210 L 337.095 25.210 337.095 24.418 C 337.095 23.416,336.728 23.049,335.726 23.049 C 335.066 23.049,334.933 22.959,334.930 22.509 C 334.924 21.601,334.584 21.347,333.178 21.202 C 331.789 21.059,331.213 20.681,331.055 19.808 C 330.986 19.425,330.748 19.313,329.878 19.257 C 328.925 19.194,328.755 19.098,328.526 18.490 C 328.229 17.702,326.941 17.047,325.691 17.047 C 325.020 17.047,324.890 16.948,324.770 16.346 C 324.608 15.536,324.274 15.392,322.012 15.157 C 320.958 15.047,320.428 14.891,320.467 14.701 C 320.502 14.532,320.303 14.435,319.987 14.469 C 319.565 14.513,319.459 14.414,319.500 14.012 C 319.567 13.359,319.049 13.213,316.651 13.209 L 314.814 13.205 314.814 12.349 C 314.814 11.203,314.773 11.179,312.586 11.080 C 310.919 11.004,310.684 10.938,310.684 10.544 C 310.684 9.711,309.656 9.328,307.032 9.183 C 304.735 9.057,304.520 9.002,303.948 8.389 C 303.065 7.444,301.881 7.206,298.058 7.204 C 294.701 7.203,294.673 7.198,294.407 6.614 C 293.724 5.116,294.408 5.166,274.070 5.126 C 263.902 5.106,255.166 5.172,254.657 5.272 M243.938 7.923 C 243.938 8.071,243.853 8.139,243.749 8.075 C 243.645 8.011,243.560 8.154,243.560 8.394 C 243.560 8.635,243.689 8.779,243.850 8.718 C 244.245 8.566,244.450 7.971,244.167 7.797 C 244.041 7.719,243.938 7.776,243.938 7.923 M319.680 13.938 C 319.452 14.307,319.765 14.545,320.073 14.237 C 320.245 14.064,320.250 13.930,320.086 13.829 C 319.951 13.746,319.769 13.795,319.680 13.938 M291.438 52.110 C 292.532 52.247,293.937 52.560,294.559 52.806 C 295.182 53.051,296.553 53.378,297.606 53.531 C 300.073 53.890,301.042 54.199,301.879 54.897 C 302.252 55.208,302.746 55.462,302.976 55.462 C 303.831 55.462,305.882 56.213,306.540 56.767 C 306.915 57.082,307.842 57.520,308.601 57.741 C 309.360 57.962,310.258 58.399,310.596 58.712 C 310.934 59.025,311.606 59.407,312.088 59.561 C 312.570 59.714,313.343 60.193,313.806 60.624 C 314.268 61.055,315.061 61.600,315.569 61.835 C 316.076 62.069,316.601 62.500,316.734 62.793 C 316.867 63.086,317.387 63.528,317.888 63.776 C 319.782 64.711,325.394 70.297,326.403 72.252 C 326.636 72.704,327.178 73.407,327.607 73.812 C 328.434 74.594,328.932 76.182,328.932 78.043 C 328.932 78.565,329.040 78.992,329.172 78.992 C 329.304 78.992,329.196 79.208,328.932 79.472 C 328.431 79.972,328.265 80.575,328.703 80.305 C 329.131 80.040,331.270 80.450,331.661 80.872 C 333.008 82.325,333.771 83.371,334.321 84.520 C 334.667 85.243,335.157 86.212,335.409 86.675 C 336.431 88.547,338.021 92.128,338.179 92.917 C 338.272 93.379,338.706 94.692,339.143 95.834 C 339.601 97.029,340.109 99.017,340.339 100.516 C 340.559 101.949,340.940 104.043,341.186 105.168 C 342.448 110.941,342.422 123.729,341.125 135.054 C 340.667 139.055,340.596 141.074,340.551 151.479 C 340.505 162.131,340.460 163.364,340.111 163.559 C 339.331 163.996,338.749 163.647,338.016 162.305 C 337.619 161.579,336.979 160.655,336.594 160.253 C 336.209 159.850,335.894 159.395,335.894 159.241 C 335.894 159.086,335.585 158.605,335.208 158.172 C 334.830 157.738,334.284 156.843,333.994 156.182 C 333.705 155.522,333.216 154.712,332.909 154.382 C 332.602 154.052,332.227 153.394,332.076 152.920 C 331.925 152.446,331.528 151.690,331.193 151.239 C 330.078 149.736,328.013 145.198,327.847 143.885 L 327.688 142.631 327.162 143.284 C 326.872 143.644,326.423 144.352,326.163 144.859 C 325.903 145.365,325.492 145.887,325.250 146.018 C 325.008 146.150,324.666 146.600,324.491 147.018 C 324.316 147.437,323.786 148.265,323.313 148.860 C 322.840 149.454,322.453 150.069,322.451 150.226 C 322.450 150.383,321.909 151.075,321.248 151.764 C 320.588 152.453,320.048 153.097,320.048 153.197 C 320.048 153.351,316.487 157.171,315.698 157.863 C 315.547 157.995,314.979 158.541,314.435 159.076 C 313.890 159.611,313.067 160.329,312.605 160.672 C 312.143 161.015,311.549 161.500,311.285 161.749 C 310.552 162.440,307.652 164.466,307.394 164.466 C 307.269 164.466,306.905 164.747,306.584 165.090 C 306.264 165.433,305.462 165.988,304.802 166.323 C 304.142 166.657,303.169 167.225,302.641 167.583 C 302.113 167.941,301.403 168.302,301.063 168.385 C 300.723 168.468,300.021 168.825,299.502 169.180 C 298.984 169.534,298.127 169.957,297.599 170.120 C 296.334 170.510,295.318 170.986,295.318 171.188 C 295.318 171.437,294.395 171.806,292.311 172.391 C 291.271 172.683,290.190 173.072,289.909 173.256 C 289.315 173.645,287.641 174.150,285.594 174.558 C 284.802 174.716,283.763 175.044,283.287 175.286 C 282.810 175.528,281.675 175.847,280.766 175.995 C 276.883 176.626,276.181 176.778,275.270 177.186 C 273.936 177.784,273.564 177.842,267.467 178.396 C 264.496 178.666,261.053 179.047,259.817 179.244 C 253.108 180.310,233.833 180.313,230.140 179.247 C 229.476 179.055,227.581 178.670,225.930 178.392 C 223.764 178.026,222.695 177.726,222.089 177.314 C 221.627 177.000,220.686 176.532,219.999 176.274 C 219.311 176.016,218.447 175.574,218.078 175.293 C 217.709 175.012,216.489 174.176,215.366 173.435 C 213.528 172.222,212.764 171.594,210.804 169.685 C 209.406 168.322,208.360 167.037,207.872 166.084 C 207.586 165.524,207.115 164.742,206.826 164.346 C 206.537 163.950,206.184 163.247,206.043 162.785 C 205.901 162.323,205.609 161.405,205.394 160.744 C 204.204 157.089,204.114 156.306,204.706 154.742 C 204.906 154.214,205.273 153.100,205.523 152.266 C 205.773 151.433,206.172 150.388,206.410 149.945 C 206.648 149.501,207.151 148.563,207.529 147.859 C 207.906 147.155,208.491 146.284,208.829 145.924 C 209.167 145.563,209.669 144.904,209.944 144.457 C 210.668 143.282,212.010 141.455,212.872 140.470 C 213.284 140.000,213.799 139.266,214.018 138.838 C 214.237 138.410,214.684 137.884,215.011 137.670 C 215.338 137.455,215.606 137.167,215.606 137.029 C 215.606 136.891,216.021 136.228,216.527 135.556 C 217.034 134.884,217.591 134.064,217.765 133.733 C 217.939 133.403,218.425 132.701,218.845 132.173 C 219.264 131.645,219.746 130.864,219.914 130.439 C 220.083 130.013,220.495 129.369,220.831 129.007 C 221.167 128.645,221.644 127.890,221.892 127.330 C 222.139 126.770,222.593 126.010,222.901 125.641 C 223.208 125.272,223.595 124.538,223.761 124.010 C 223.927 123.481,224.359 122.669,224.723 122.204 C 225.087 121.739,225.557 120.767,225.768 120.043 C 225.979 119.320,226.466 118.232,226.851 117.626 C 227.237 117.019,227.738 115.780,227.966 114.871 C 228.194 113.962,228.585 112.958,228.835 112.640 C 229.348 111.989,229.655 110.939,229.902 109.004 C 229.994 108.277,230.326 107.175,230.639 106.555 C 230.952 105.934,231.373 104.421,231.575 103.193 C 231.776 101.965,232.040 100.350,232.161 99.604 C 232.282 98.858,232.654 97.708,232.988 97.048 C 233.323 96.388,233.714 95.110,233.858 94.209 C 234.007 93.277,234.412 92.048,234.795 91.363 C 235.167 90.699,235.600 89.621,235.758 88.967 C 235.916 88.313,236.349 87.329,236.720 86.779 C 237.091 86.229,237.576 85.233,237.798 84.565 C 238.020 83.897,238.364 83.216,238.562 83.051 C 238.761 82.886,239.205 82.257,239.548 81.652 C 239.892 81.047,240.468 80.228,240.829 79.832 C 241.189 79.436,241.558 78.866,241.648 78.565 C 241.739 78.264,242.239 77.527,242.759 76.926 C 243.279 76.325,243.863 75.527,244.056 75.153 C 244.250 74.778,244.654 74.274,244.954 74.031 C 245.255 73.788,245.708 73.265,245.962 72.869 C 246.216 72.473,246.701 71.851,247.041 71.487 C 247.633 70.852,248.048 70.387,250.600 67.495 C 251.227 66.784,251.934 66.027,252.170 65.814 C 252.406 65.601,252.991 65.021,253.470 64.526 C 253.949 64.031,254.482 63.625,254.656 63.625 C 254.829 63.625,255.155 63.344,255.380 63.001 C 255.606 62.657,256.227 62.100,256.762 61.762 C 257.296 61.425,257.935 60.893,258.181 60.580 C 258.427 60.267,259.078 59.785,259.627 59.510 C 260.175 59.235,260.843 58.809,261.111 58.564 C 261.379 58.320,262.064 57.955,262.634 57.754 C 263.203 57.553,263.988 57.121,264.377 56.793 C 264.767 56.465,265.833 55.974,266.747 55.702 C 267.661 55.430,268.478 55.094,268.564 54.955 C 268.843 54.503,270.716 53.836,272.467 53.564 C 273.408 53.418,274.748 53.073,275.445 52.797 C 277.662 51.918,286.781 51.526,291.438 52.110"/><path id="path3" fill="#3aa246" fill-rule="evenodd" stroke="none" d="M293.946 6.075 C 294.579 6.732,294.738 6.712,294.369 6.023 C 294.221 5.748,293.946 5.522,293.758 5.522 C 293.515 5.522,293.570 5.684,293.946 6.075 M303.121 7.716 C 303.385 7.858,303.850 8.260,304.153 8.609 L 304.705 9.244 304.427 8.610 C 304.274 8.261,303.885 7.856,303.564 7.710 C 302.818 7.370,302.487 7.375,303.121 7.716 M231.688 11.650 C 231.521 11.852,231.454 12.086,231.538 12.171 C 231.623 12.256,231.693 12.195,231.693 12.037 C 231.693 11.879,231.936 11.652,232.233 11.532 C 232.598 11.385,232.647 11.310,232.382 11.300 C 232.167 11.291,231.855 11.449,231.688 11.650 M327.651 17.527 C 327.936 17.642,328.284 17.932,328.424 18.172 C 328.654 18.568,328.678 18.570,328.684 18.196 C 328.692 17.771,328.005 17.275,327.447 17.302 C 327.273 17.311,327.365 17.412,327.651 17.527 M331.092 19.787 C 331.092 19.851,331.380 20.206,331.732 20.576 C 332.165 21.032,332.320 21.107,332.212 20.809 C 332.124 20.567,332.053 20.328,332.053 20.277 C 332.053 20.226,331.837 20.069,331.573 19.928 C 331.309 19.787,331.092 19.723,331.092 19.787 M211.871 21.949 C 211.615 22.136,211.459 22.343,211.525 22.409 C 211.591 22.474,211.900 22.321,212.211 22.068 C 212.863 21.540,212.571 21.437,211.871 21.949 M203.759 27.810 C 203.540 28.052,203.368 28.403,203.377 28.590 C 203.385 28.778,203.490 28.686,203.611 28.386 C 203.732 28.085,204.076 27.741,204.376 27.621 C 204.728 27.479,204.786 27.396,204.539 27.386 C 204.328 27.378,203.977 27.569,203.759 27.810 M347.987 31.950 C 348.335 32.224,348.628 32.629,348.638 32.851 C 348.651 33.112,348.701 33.146,348.781 32.945 C 348.953 32.518,348.211 31.453,347.741 31.453 C 347.464 31.453,347.534 31.594,347.987 31.950 M355.875 39.631 C 356.102 39.763,356.395 40.057,356.528 40.284 C 356.660 40.511,356.771 40.569,356.775 40.413 C 356.785 40.048,356.111 39.374,355.745 39.383 C 355.590 39.387,355.648 39.499,355.875 39.631 M357.477 41.613 C 357.792 41.798,358.194 42.208,358.368 42.523 C 358.576 42.899,358.689 42.968,358.695 42.723 C 358.708 42.172,358.186 41.606,357.503 41.431 L 356.903 41.276 357.477 41.613 M358.944 43.764 C 358.944 43.810,359.282 44.165,359.695 44.553 C 360.321 45.141,360.400 45.169,360.170 44.723 C 359.938 44.276,358.944 43.498,358.944 43.764 M365.306 51.899 C 365.570 52.045,365.973 52.392,366.201 52.672 C 366.429 52.952,366.618 53.046,366.621 52.881 C 366.629 52.438,365.731 51.620,365.246 51.628 C 364.881 51.634,364.888 51.670,365.306 51.899 M371.581 61.730 C 371.863 61.875,372.218 62.267,372.371 62.601 C 372.523 62.934,372.717 63.138,372.802 63.052 C 373.047 62.808,372.027 61.591,371.523 61.526 C 371.130 61.474,371.138 61.502,371.581 61.730 M375.390 69.909 C 375.654 70.056,376.118 70.458,376.422 70.802 L 376.973 71.429 376.611 70.677 C 376.265 69.960,375.800 69.619,375.190 69.635 C 375.036 69.639,375.126 69.762,375.390 69.909 M327.730 81.184 C 327.183 81.761,326.520 82.719,326.257 83.313 C 325.993 83.908,325.574 84.611,325.326 84.877 C 325.077 85.143,324.718 85.953,324.527 86.678 C 324.127 88.200,323.463 89.938,323.009 90.650 C 322.836 90.922,322.479 92.572,322.215 94.317 C 321.951 96.062,321.512 97.982,321.238 98.583 C 320.452 100.308,320.232 103.436,320.360 111.044 C 320.475 117.784,320.626 119.287,321.352 120.888 C 321.762 121.795,321.886 122.416,322.309 125.690 C 322.496 127.143,322.831 128.818,323.052 129.412 C 324.062 132.125,324.314 132.984,324.472 134.260 C 324.592 135.230,324.840 135.878,325.326 136.489 C 325.703 136.963,326.086 137.807,326.178 138.364 C 326.270 138.920,326.610 140.024,326.934 140.816 C 327.258 141.609,327.673 143.027,327.857 143.967 C 328.188 145.657,330.190 149.982,331.288 151.378 C 331.561 151.726,331.913 152.409,332.068 152.896 C 332.224 153.383,332.602 154.052,332.909 154.382 C 333.216 154.712,333.705 155.522,333.994 156.182 C 334.284 156.843,334.830 157.738,335.208 158.172 C 335.585 158.605,335.894 159.086,335.894 159.241 C 335.894 159.395,336.209 159.850,336.594 160.253 C 336.979 160.655,337.619 161.579,338.016 162.305 C 338.749 163.647,339.331 163.996,340.111 163.559 C 340.460 163.364,340.505 162.131,340.551 151.479 C 340.596 141.074,340.667 139.055,341.125 135.054 C 342.422 123.729,342.448 110.941,341.186 105.168 C 340.940 104.043,340.559 101.949,340.339 100.516 C 340.109 99.017,339.601 97.029,339.143 95.834 C 338.706 94.692,338.272 93.379,338.179 92.917 C 338.021 92.128,336.431 88.547,335.409 86.675 C 335.157 86.212,334.667 85.243,334.321 84.520 C 333.975 83.797,333.323 82.797,332.872 82.298 C 332.422 81.799,332.053 81.309,332.053 81.210 C 332.053 79.981,328.889 79.962,327.730 81.184 M381.513 87.565 C 381.711 87.638,382.062 87.862,382.293 88.064 C 382.524 88.265,382.713 88.327,382.713 88.200 C 382.713 87.804,382.157 87.394,381.645 87.414 C 381.299 87.427,381.259 87.472,381.513 87.565 M383.507 96.045 C 383.847 96.312,384.196 96.753,384.281 97.023 C 384.367 97.294,384.490 97.463,384.553 97.399 C 384.751 97.202,383.953 95.865,383.543 95.707 C 382.876 95.452,382.866 95.541,383.507 96.045 M384.943 100.480 C 384.944 101.140,384.991 101.382,385.046 101.017 C 385.101 100.652,385.100 100.112,385.043 99.817 C 384.986 99.521,384.941 99.820,384.943 100.480 M384.946 131.813 C 384.946 132.539,384.991 132.836,385.046 132.473 C 385.101 132.110,385.101 131.516,385.046 131.152 C 384.991 130.789,384.946 131.086,384.946 131.813 M384.154 135.607 C 384.154 135.756,383.857 136.040,383.493 136.237 C 383.130 136.434,382.956 136.600,383.107 136.605 C 383.525 136.620,384.538 135.720,384.334 135.515 C 384.235 135.415,384.154 135.457,384.154 135.607 M382.173 144.338 C 381.817 144.710,381.809 144.778,382.120 144.778 C 382.323 144.778,382.552 144.611,382.630 144.407 C 382.838 143.865,382.652 143.836,382.173 144.338 M378.782 155.612 C 378.581 156.613,378.775 156.807,378.992 155.822 C 379.083 155.407,379.107 155.018,379.046 154.956 C 378.985 154.895,378.866 155.190,378.782 155.612 M375.934 161.833 C 375.007 162.817,374.973 162.961,375.764 162.538 C 376.131 162.341,377.152 160.841,376.897 160.873 C 376.861 160.877,376.427 161.309,375.934 161.833 M372.371 169.572 C 372.218 169.906,371.863 170.298,371.581 170.443 C 371.138 170.671,371.130 170.698,371.523 170.647 C 372.027 170.582,373.047 169.365,372.802 169.121 C 372.717 169.035,372.523 169.239,372.371 169.572 M368.547 176.170 C 368.547 176.314,368.250 176.539,367.887 176.672 C 367.524 176.804,367.395 176.921,367.601 176.932 C 368.099 176.957,368.955 176.318,368.727 176.090 C 368.628 175.991,368.547 176.027,368.547 176.170 M366.867 178.562 C 366.867 178.701,366.435 179.259,365.907 179.803 C 364.930 180.810,364.874 180.976,365.655 180.558 C 366.148 180.295,367.196 178.641,366.997 178.441 C 366.925 178.370,366.867 178.424,366.867 178.562 M364.636 181.992 C 364.568 182.256,364.258 182.573,363.948 182.697 C 363.561 182.853,363.511 182.927,363.788 182.938 C 364.275 182.956,364.946 182.329,364.946 181.856 C 364.946 181.362,364.783 181.434,364.636 181.992 M362.804 184.221 C 362.794 184.457,362.542 184.747,362.245 184.866 C 361.879 185.013,361.831 185.089,362.095 185.099 C 362.589 185.118,363.110 184.508,362.947 184.102 C 362.870 183.911,362.816 183.957,362.804 184.221 M359.529 187.786 C 358.941 188.413,358.912 188.492,359.358 188.261 C 359.652 188.109,360.007 187.771,360.147 187.510 C 360.502 186.846,360.346 186.916,359.529 187.786 M358.482 189.504 C 358.472 189.739,358.085 190.155,357.623 190.428 C 356.580 191.043,356.542 191.194,357.536 190.777 C 358.347 190.436,358.809 189.834,358.619 189.367 C 358.554 189.206,358.493 189.268,358.482 189.504 M356.570 191.578 C 356.555 191.765,356.364 192.117,356.145 192.358 C 355.927 192.600,355.859 192.797,355.996 192.797 C 356.407 192.797,356.830 192.129,356.710 191.668 C 356.643 191.409,356.587 191.373,356.570 191.578 M352.720 195.721 C 352.710 195.943,352.531 196.294,352.324 196.501 C 352.116 196.709,352.058 196.879,352.195 196.879 C 352.528 196.879,353.002 195.965,352.856 195.605 C 352.790 195.443,352.731 195.493,352.720 195.721 M350.540 197.971 C 350.540 198.175,350.189 198.505,349.760 198.703 L 348.980 199.063 349.697 198.912 C 350.092 198.829,350.496 198.635,350.594 198.480 C 350.798 198.160,350.840 197.599,350.660 197.599 C 350.594 197.599,350.540 197.766,350.540 197.971 M348.391 199.617 C 348.208 199.960,347.989 200.240,347.904 200.240 C 347.820 200.240,347.543 200.392,347.289 200.578 C 346.859 200.892,346.873 200.906,347.498 200.787 C 348.187 200.655,348.975 199.745,348.815 199.265 C 348.765 199.116,348.575 199.275,348.391 199.617 M345.018 201.569 C 345.018 202.091,345.083 202.143,345.470 201.936 C 346.216 201.537,346.299 200.960,345.611 200.960 C 345.136 200.960,345.018 201.082,345.018 201.569 M203.372 203.496 C 203.358 204.158,203.831 204.720,204.562 204.908 L 205.162 205.062 204.563 204.712 C 204.234 204.520,203.834 204.056,203.674 203.682 C 203.436 203.126,203.381 203.092,203.372 203.496 M206.496 205.657 C 206.814 205.995,207.113 206.153,207.161 206.009 C 207.326 205.514,206.978 205.042,206.448 205.042 L 205.919 205.042 206.496 205.657 M340.715 206.070 C 340.705 206.306,340.453 206.596,340.156 206.715 C 339.790 206.862,339.742 206.937,340.007 206.948 C 340.500 206.967,341.021 206.357,340.858 205.950 C 340.781 205.760,340.727 205.805,340.715 206.070 M211.449 209.544 C 211.696 210.235,211.993 210.513,212.781 210.788 C 213.514 211.043,213.507 211.028,212.487 210.086 C 211.306 208.995,211.242 208.962,211.449 209.544 M331.452 211.905 C 331.067 212.368,330.693 212.812,330.622 212.893 C 330.551 212.974,330.838 212.791,331.261 212.486 C 331.957 211.984,332.424 211.335,332.229 211.140 C 332.187 211.099,331.838 211.443,331.452 211.905 M215.398 211.765 C 215.359 212.346,215.683 212.677,216.449 212.838 L 217.167 212.989 216.408 212.638 C 215.991 212.444,215.598 212.088,215.536 211.845 C 215.461 211.556,215.414 211.529,215.398 211.765 M328.592 213.567 C 328.484 213.998,328.121 214.335,327.423 214.652 C 326.609 215.022,326.552 215.083,327.131 214.966 C 328.385 214.711,329.393 213.587,328.852 213.046 C 328.795 212.989,328.679 213.224,328.592 213.567 M324.534 216.418 C 324.460 216.611,324.149 216.817,323.844 216.875 C 323.329 216.974,323.326 216.984,323.800 217.014 C 324.302 217.046,325.039 216.435,324.794 216.190 C 324.725 216.122,324.608 216.224,324.534 216.418 M320.330 217.651 C 320.178 217.984,319.782 218.360,319.451 218.486 C 318.585 218.815,318.704 218.993,319.585 218.686 C 320.010 218.537,320.420 218.172,320.552 217.824 C 320.858 217.020,320.681 216.882,320.330 217.651 M227.131 218.494 C 227.131 218.703,228.063 219.076,228.212 218.927 C 228.258 218.881,228.034 218.719,227.714 218.567 C 227.393 218.416,227.131 218.383,227.131 218.494 M231.453 220.083 C 231.453 220.479,232.009 220.889,232.521 220.869 C 232.867 220.856,232.906 220.811,232.653 220.718 C 232.455 220.645,232.104 220.421,231.873 220.220 C 231.642 220.018,231.453 219.957,231.453 220.083 M310.519 221.844 C 310.336 222.329,310.010 222.613,309.450 222.774 C 309.006 222.901,308.825 223.016,309.048 223.028 C 309.857 223.071,310.625 222.598,310.786 221.958 C 311.009 221.068,310.840 220.996,310.519 221.844 M303.381 223.900 C 302.864 224.356,302.162 224.742,301.821 224.758 C 301.370 224.778,301.322 224.817,301.647 224.900 C 302.376 225.088,304.101 224.301,304.401 223.643 C 304.765 222.843,304.503 222.909,303.381 223.900 M243.622 224.281 C 243.895 224.554,244.278 224.739,244.474 224.693 C 244.690 224.643,244.494 224.447,243.979 224.198 L 243.127 223.786 243.622 224.281 M294.358 225.338 C 294.358 225.541,293.980 225.930,293.517 226.202 C 292.505 226.799,292.455 226.952,293.337 226.745 C 294.299 226.520,295.414 224.970,294.614 224.970 C 294.473 224.970,294.358 225.136,294.358 225.338 M253.301 226.298 C 253.301 226.500,253.468 226.730,253.672 226.808 C 254.215 227.016,254.243 226.829,253.741 226.351 C 253.369 225.995,253.301 225.987,253.301 226.298"/><path id="path4" fill="#aebe49" fill-rule="evenodd" stroke="none" d="M244.251 8.541 L 243.577 9.159 244.358 8.616 C 244.787 8.317,245.138 8.039,245.138 7.998 C 245.138 7.809,244.872 7.971,244.251 8.541 M193.037 40.163 C 193.037 40.786,192.948 41.297,192.838 41.297 C 192.729 41.297,192.382 41.846,192.068 42.517 C 191.734 43.229,191.231 43.874,190.860 44.066 C 190.510 44.247,190.086 44.729,189.917 45.136 C 189.748 45.544,189.428 46.008,189.207 46.168 C 188.620 46.591,185.970 49.930,185.509 50.828 C 185.292 51.251,184.977 51.683,184.809 51.789 C 184.416 52.037,181.559 56.269,181.267 57.037 C 181.145 57.359,180.942 57.623,180.817 57.623 C 180.692 57.623,180.254 58.295,179.844 59.115 C 179.434 59.936,178.889 60.830,178.633 61.103 C 178.377 61.375,178.004 62.062,177.804 62.628 C 177.605 63.194,177.238 63.947,176.989 64.302 C 176.225 65.390,174.089 69.705,173.936 70.468 C 173.812 71.089,173.868 71.045,174.348 70.144 C 174.655 69.570,175.199 68.948,175.559 68.763 C 175.984 68.542,176.310 68.096,176.494 67.483 C 176.649 66.966,177.081 66.208,177.453 65.800 C 178.040 65.158,178.621 63.790,178.632 63.025 C 178.634 62.893,178.957 62.532,179.349 62.222 C 179.814 61.854,180.207 61.198,180.480 60.332 C 180.740 59.508,181.117 58.862,181.474 58.628 C 181.790 58.421,182.238 57.813,182.468 57.277 C 182.698 56.741,183.218 55.948,183.624 55.514 C 184.030 55.080,184.483 54.360,184.630 53.913 C 184.778 53.466,185.172 52.921,185.506 52.702 C 185.841 52.483,186.275 51.920,186.471 51.450 C 186.667 50.981,187.171 50.259,187.591 49.846 C 188.580 48.874,190.936 45.966,191.204 45.388 C 191.318 45.141,191.617 44.886,191.867 44.820 C 192.118 44.755,192.491 44.300,192.696 43.810 C 192.901 43.320,193.327 42.509,193.643 42.008 C 194.289 40.984,194.253 40.245,193.522 39.513 L 193.037 39.029 193.037 40.163 M278.271 52.109 C 277.413 52.211,276.141 52.521,275.445 52.797 C 274.748 53.073,273.408 53.418,272.467 53.564 C 270.716 53.836,268.843 54.503,268.564 54.955 C 268.478 55.094,267.661 55.430,266.747 55.702 C 265.833 55.974,264.767 56.465,264.377 56.793 C 263.988 57.121,263.203 57.553,262.634 57.754 C 262.064 57.955,261.379 58.320,261.111 58.564 C 260.843 58.809,260.175 59.235,259.627 59.510 C 259.078 59.785,258.427 60.267,258.181 60.580 C 257.935 60.893,257.296 61.425,256.762 61.762 C 256.227 62.100,255.606 62.657,255.380 63.001 C 255.155 63.344,254.829 63.625,254.656 63.625 C 254.482 63.625,253.949 64.031,253.470 64.526 C 252.991 65.021,252.406 65.601,252.170 65.814 C 251.934 66.027,251.227 66.784,250.600 67.495 C 248.048 70.387,247.633 70.852,247.041 71.487 C 246.701 71.851,246.216 72.473,245.962 72.869 C 245.708 73.265,245.255 73.788,244.954 74.031 C 244.654 74.274,244.250 74.778,244.056 75.153 C 243.863 75.527,243.279 76.325,242.759 76.926 C 242.239 77.527,241.739 78.264,241.648 78.565 C 241.558 78.866,241.189 79.436,240.829 79.832 C 240.468 80.228,239.892 81.047,239.548 81.652 C 239.205 82.257,238.761 82.886,238.562 83.051 C 238.364 83.216,238.020 83.897,237.798 84.565 C 237.576 85.233,237.091 86.229,236.720 86.779 C 236.349 87.329,235.916 88.313,235.758 88.967 C 235.600 89.621,235.167 90.699,234.795 91.363 C 234.412 92.048,234.007 93.277,233.858 94.209 C 233.714 95.110,233.323 96.388,232.988 97.048 C 232.654 97.708,232.282 98.858,232.161 99.604 C 232.040 100.350,231.776 101.965,231.575 103.193 C 231.373 104.421,230.952 105.934,230.639 106.555 C 230.326 107.175,229.994 108.277,229.902 109.004 C 229.655 110.939,229.348 111.989,228.835 112.640 C 228.585 112.958,228.194 113.962,227.966 114.871 C 227.738 115.780,227.237 117.019,226.851 117.626 C 226.466 118.232,225.979 119.320,225.768 120.043 C 225.557 120.767,225.087 121.739,224.723 122.204 C 224.359 122.669,223.927 123.481,223.761 124.010 C 223.595 124.538,223.208 125.272,222.901 125.641 C 222.593 126.010,222.139 126.770,221.892 127.330 C 221.644 127.890,221.167 128.645,220.831 129.007 C 220.495 129.369,220.083 130.013,219.914 130.439 C 219.746 130.864,219.264 131.645,218.845 132.173 C 218.425 132.701,217.939 133.403,217.765 133.733 C 217.591 134.064,217.034 134.884,216.527 135.556 C 216.021 136.228,215.606 136.891,215.606 137.029 C 215.606 137.167,215.338 137.455,215.011 137.670 C 214.684 137.884,214.237 138.410,214.018 138.838 C 213.799 139.266,213.284 140.000,212.872 140.470 C 212.010 141.455,210.668 143.282,209.944 144.457 C 209.669 144.904,209.167 145.563,208.829 145.924 C 208.491 146.284,207.906 147.155,207.529 147.859 C 207.151 148.563,206.648 149.501,206.410 149.945 C 206.172 150.388,205.773 151.433,205.523 152.266 C 205.273 153.100,204.906 154.214,204.706 154.742 C 204.114 156.306,204.204 157.089,205.394 160.744 C 205.609 161.405,205.901 162.323,206.043 162.785 C 206.184 163.247,206.537 163.950,206.826 164.346 C 207.115 164.742,207.586 165.524,207.872 166.084 C 208.360 167.037,209.406 168.322,210.804 169.685 C 212.764 171.594,213.528 172.222,215.366 173.435 C 216.489 174.176,217.709 175.012,218.078 175.293 C 218.447 175.574,219.311 176.016,219.999 176.274 C 220.686 176.532,221.627 177.000,222.089 177.314 C 222.695 177.726,223.764 178.026,225.930 178.392 C 227.581 178.670,229.476 179.055,230.140 179.247 C 233.833 180.313,253.108 180.310,259.817 179.244 C 261.053 179.047,264.496 178.666,267.467 178.396 C 273.564 177.842,273.936 177.784,275.270 177.186 C 276.181 176.778,276.883 176.626,280.766 175.995 C 281.675 175.847,282.810 175.528,283.287 175.286 C 283.763 175.044,284.802 174.716,285.594 174.558 C 287.641 174.150,289.315 173.645,289.909 173.256 C 290.190 173.072,291.271 172.683,292.311 172.391 C 294.395 171.806,295.318 171.437,295.318 171.188 C 295.318 170.986,296.334 170.510,297.599 170.120 C 298.127 169.957,298.984 169.534,299.502 169.180 C 300.021 168.825,300.723 168.468,301.063 168.385 C 301.403 168.302,302.113 167.941,302.641 167.583 C 303.169 167.225,304.142 166.657,304.802 166.323 C 305.462 165.988,306.264 165.433,306.584 165.090 C 306.905 164.747,307.269 164.466,307.394 164.466 C 307.652 164.466,310.552 162.440,311.285 161.749 C 311.549 161.500,312.143 161.015,312.605 160.672 C 313.067 160.329,313.890 159.611,314.435 159.076 C 314.979 158.541,315.547 157.995,315.698 157.863 C 316.487 157.171,320.048 153.351,320.048 153.197 C 320.048 153.097,320.588 152.453,321.248 151.764 C 321.909 151.075,322.450 150.383,322.451 150.226 C 322.453 150.069,322.840 149.454,323.313 148.860 C 323.786 148.265,324.316 147.437,324.491 147.018 C 324.666 146.600,325.011 146.149,325.257 146.017 C 325.504 145.885,325.947 145.294,326.242 144.704 C 326.537 144.113,326.938 143.497,327.135 143.334 C 327.625 142.927,327.584 142.450,326.918 140.798 C 326.603 140.016,326.270 138.920,326.178 138.364 C 326.086 137.807,325.703 136.963,325.326 136.489 C 324.840 135.878,324.592 135.230,324.472 134.260 C 324.314 132.984,324.062 132.125,323.052 129.412 C 322.831 128.818,322.496 127.143,322.309 125.690 C 321.886 122.416,321.762 121.795,321.352 120.888 C 319.960 117.818,319.877 101.569,321.238 98.583 C 321.512 97.982,321.951 96.062,322.215 94.317 C 322.479 92.572,322.836 90.922,323.009 90.650 C 323.463 89.938,324.127 88.200,324.527 86.678 C 324.718 85.953,325.077 85.143,325.326 84.877 C 325.574 84.611,325.987 83.908,326.243 83.313 C 326.499 82.719,326.942 82.024,327.228 81.768 C 327.513 81.513,327.976 80.919,328.256 80.448 C 328.536 79.977,328.931 79.457,329.134 79.292 C 329.363 79.106,329.394 78.992,329.218 78.992 C 329.045 78.992,328.932 78.617,328.932 78.043 C 328.932 76.182,328.434 74.594,327.607 73.812 C 327.178 73.407,326.636 72.704,326.403 72.252 C 325.394 70.297,319.782 64.711,317.888 63.776 C 317.387 63.528,316.867 63.086,316.734 62.793 C 316.601 62.500,316.076 62.069,315.569 61.835 C 315.061 61.600,314.268 61.055,313.806 60.624 C 313.343 60.193,312.570 59.714,312.088 59.561 C 311.606 59.407,310.934 59.025,310.596 58.712 C 310.258 58.399,309.360 57.962,308.601 57.741 C 307.842 57.520,306.915 57.082,306.540 56.767 C 305.882 56.213,303.831 55.462,302.976 55.462 C 302.746 55.462,302.252 55.208,301.879 54.897 C 301.042 54.199,300.073 53.890,297.606 53.531 C 296.553 53.378,295.182 53.051,294.559 52.806 C 292.346 51.933,283.085 51.537,278.271 52.109 M291.837 53.616 C 293.421 53.948,295.765 54.389,297.045 54.596 C 298.347 54.806,299.720 55.184,300.164 55.454 C 300.599 55.719,301.748 56.112,302.717 56.327 C 303.817 56.572,304.704 56.929,305.082 57.279 C 305.414 57.587,306.362 58.063,307.188 58.338 C 308.014 58.613,309.058 59.111,309.507 59.444 C 309.957 59.777,310.792 60.258,311.364 60.512 C 311.936 60.767,312.737 61.255,313.144 61.598 C 313.552 61.940,314.288 62.382,314.782 62.579 C 315.275 62.777,315.731 63.138,315.795 63.381 C 315.859 63.625,316.268 64.009,316.705 64.235 C 317.600 64.698,321.355 67.956,322.089 68.907 C 322.353 69.249,322.785 69.745,323.049 70.010 C 324.311 71.275,325.670 72.943,325.996 73.627 C 326.195 74.044,326.613 74.521,326.924 74.688 C 327.245 74.859,327.491 75.211,327.491 75.497 C 327.491 75.776,327.664 76.250,327.875 76.552 C 328.215 77.037,328.218 77.147,327.903 77.506 C 327.708 77.729,327.473 78.157,327.381 78.458 C 327.289 78.758,326.958 79.172,326.645 79.377 C 326.318 79.592,325.905 80.266,325.673 80.964 C 325.451 81.632,324.921 82.569,324.494 83.046 C 324.001 83.597,323.604 84.392,323.408 85.222 C 323.238 85.942,322.895 86.749,322.647 87.015 C 322.180 87.517,321.491 89.513,321.486 90.380 C 321.483 91.037,320.837 93.146,320.523 93.524 C 318.812 95.585,318.647 120.678,320.314 125.321 C 320.968 127.145,321.378 128.737,321.721 130.790 C 321.891 131.804,322.242 132.869,322.565 133.344 C 322.869 133.793,323.193 134.631,323.284 135.207 C 323.577 137.062,323.971 138.163,324.532 138.700 C 325.953 140.058,325.881 144.509,324.422 145.531 C 324.158 145.715,323.767 146.288,323.551 146.803 C 323.336 147.319,322.973 147.874,322.744 148.036 C 322.516 148.199,322.114 148.748,321.851 149.256 C 321.588 149.764,320.965 150.612,320.467 151.140 C 319.968 151.669,319.496 152.342,319.419 152.637 C 319.341 152.932,318.911 153.400,318.462 153.677 C 318.014 153.954,317.647 154.275,317.647 154.390 C 317.647 154.505,317.161 155.079,316.567 155.665 C 315.972 156.250,315.486 156.830,315.486 156.952 C 315.486 157.074,315.113 157.352,314.657 157.570 C 314.200 157.787,313.665 158.278,313.468 158.661 C 313.270 159.043,312.791 159.487,312.404 159.648 C 312.017 159.808,311.484 160.188,311.220 160.492 C 310.956 160.796,310.403 161.244,309.992 161.487 C 309.580 161.729,309.244 162.013,309.244 162.117 C 309.244 162.220,309.083 162.305,308.886 162.305 C 308.689 162.305,308.392 162.530,308.225 162.806 C 308.059 163.081,307.417 163.565,306.799 163.882 C 306.181 164.198,305.533 164.653,305.359 164.892 C 305.185 165.132,304.525 165.523,303.892 165.761 C 303.260 165.999,302.424 166.461,302.035 166.789 C 301.646 167.116,300.921 167.492,300.424 167.625 C 299.927 167.758,299.104 168.196,298.596 168.598 C 298.087 169.000,296.993 169.532,296.165 169.781 C 295.336 170.029,294.278 170.490,293.814 170.805 C 293.350 171.120,292.194 171.555,291.246 171.770 C 290.297 171.986,289.015 172.424,288.398 172.744 C 287.780 173.063,286.519 173.448,285.594 173.598 C 283.984 173.860,281.546 174.617,281.035 175.015 C 280.676 175.295,279.909 175.443,276.607 175.871 C 274.966 176.084,272.883 176.516,271.979 176.832 C 270.575 177.322,269.279 177.480,263.079 177.912 C 259.088 178.190,254.202 178.573,252.221 178.764 C 248.195 179.151,237.222 179.235,235.387 178.893 C 234.742 178.772,232.053 178.385,229.412 178.033 C 225.302 177.484,224.419 177.292,223.289 176.695 C 222.563 176.312,221.524 175.888,220.981 175.754 C 220.437 175.619,219.573 175.172,219.060 174.760 C 218.547 174.349,217.668 173.813,217.107 173.569 C 216.546 173.326,216.086 173.017,216.086 172.884 C 216.086 172.750,215.753 172.469,215.346 172.259 C 214.939 172.048,213.967 171.289,213.187 170.572 C 212.407 169.854,211.671 169.268,211.552 169.268 C 211.432 169.268,210.986 168.724,210.560 168.060 C 210.133 167.396,209.584 166.712,209.339 166.540 C 209.093 166.368,208.665 165.714,208.388 165.086 C 208.110 164.459,207.671 163.733,207.411 163.473 C 205.541 161.604,205.487 153.004,207.329 150.300 C 207.643 149.838,208.135 148.929,208.421 148.280 C 208.707 147.630,209.252 146.838,209.633 146.518 C 210.013 146.198,210.324 145.781,210.324 145.592 C 210.324 145.402,210.735 144.791,211.238 144.232 C 212.477 142.856,214.417 140.215,214.662 139.570 C 214.773 139.281,215.084 138.927,215.354 138.782 C 215.624 138.638,216.075 138.069,216.356 137.518 C 216.637 136.967,217.123 136.315,217.437 136.068 C 217.751 135.821,218.007 135.525,218.007 135.409 C 218.007 135.146,219.394 133.075,219.694 132.889 C 219.815 132.815,220.131 132.264,220.395 131.666 C 220.660 131.068,221.097 130.398,221.368 130.176 C 221.638 129.954,222.118 129.133,222.433 128.353 C 222.749 127.572,223.178 126.838,223.388 126.720 C 223.597 126.603,223.995 126.000,224.273 125.379 C 224.551 124.758,225.079 123.764,225.446 123.169 C 225.814 122.575,226.303 121.495,226.533 120.768 C 226.763 120.042,227.140 119.232,227.371 118.968 C 227.969 118.284,228.244 117.666,228.438 116.567 C 228.531 116.038,229.018 114.742,229.519 113.685 C 230.021 112.629,230.553 111.122,230.703 110.337 C 230.853 109.552,231.187 108.471,231.446 107.936 C 231.704 107.401,232.146 105.504,232.428 103.721 C 232.710 101.939,233.078 100.318,233.246 100.120 C 233.679 99.611,234.016 98.420,234.450 95.867 C 234.705 94.364,235.081 93.172,235.624 92.146 C 236.063 91.316,236.496 90.242,236.585 89.760 C 236.674 89.278,236.963 88.610,237.226 88.276 C 237.489 87.941,237.967 86.969,238.289 86.115 C 238.610 85.261,239.143 84.271,239.473 83.915 C 239.804 83.559,240.263 82.764,240.495 82.150 C 240.726 81.535,241.218 80.746,241.586 80.396 C 241.955 80.046,242.257 79.656,242.257 79.531 C 242.257 79.405,242.522 79.016,242.845 78.667 C 243.169 78.318,243.782 77.518,244.208 76.891 C 244.634 76.264,245.243 75.482,245.562 75.155 C 245.882 74.828,246.308 74.241,246.509 73.852 C 246.711 73.462,247.214 72.799,247.627 72.378 C 248.041 71.957,248.812 71.112,249.340 70.499 C 250.176 69.530,252.909 66.758,256.066 63.677 C 256.596 63.159,257.372 62.559,257.792 62.342 C 258.211 62.125,258.705 61.733,258.888 61.471 C 259.072 61.209,259.602 60.835,260.066 60.642 C 260.529 60.448,261.368 59.905,261.930 59.436 C 262.491 58.967,263.106 58.583,263.296 58.583 C 263.784 58.583,266.026 57.418,266.026 57.165 C 266.026 56.910,266.473 56.723,268.124 56.284 C 268.816 56.100,269.897 55.686,270.525 55.363 C 271.176 55.029,272.497 54.660,273.589 54.507 C 274.646 54.360,276.418 54.022,277.527 53.757 C 282.225 52.634,286.933 52.588,291.837 53.616 M171.175 77.250 C 170.633 78.332,170.640 78.439,171.200 77.601 C 171.491 77.166,171.679 76.761,171.618 76.700 C 171.557 76.639,171.357 76.886,171.175 77.250 M168.951 83.204 C 168.387 84.387,168.466 84.588,169.056 83.471 C 169.323 82.963,169.500 82.505,169.448 82.453 C 169.396 82.401,169.172 82.739,168.951 83.204 M167.718 87.575 C 167.490 88.730,167.102 90.162,166.857 90.756 C 166.435 91.777,165.760 95.492,165.960 95.692 C 166.011 95.743,166.186 95.143,166.348 94.359 C 166.522 93.516,166.821 92.808,167.079 92.625 C 167.952 92.009,168.314 90.835,168.470 88.116 C 168.656 84.861,168.304 84.608,167.718 87.575 M165.727 97.359 C 165.729 97.887,165.779 98.075,165.836 97.776 C 165.894 97.478,165.891 97.045,165.831 96.816 C 165.771 96.586,165.724 96.831,165.727 97.359 M165.482 99.400 C 165.482 99.862,165.531 100.051,165.592 99.820 C 165.652 99.589,165.652 99.211,165.592 98.980 C 165.531 98.748,165.482 98.938,165.482 99.400 M164.749 103.111 C 164.593 103.887,164.476 104.747,164.488 105.022 C 164.501 105.297,164.662 104.766,164.846 103.842 C 165.031 102.917,165.148 102.057,165.107 101.930 C 165.066 101.804,164.905 102.335,164.749 103.111 M164.291 106.843 C 164.291 107.437,164.338 107.680,164.395 107.383 C 164.452 107.086,164.452 106.600,164.395 106.303 C 164.338 106.005,164.291 106.248,164.291 106.843 M164.069 111.164 C 164.069 112.287,164.111 112.746,164.161 112.185 C 164.212 111.624,164.212 110.705,164.161 110.144 C 164.111 109.583,164.069 110.042,164.069 111.164 M164.108 123.169 C 164.155 125.216,164.365 127.755,164.574 128.812 C 165.660 134.301,165.560 133.936,165.741 133.043 C 166.080 131.381,165.922 128.021,165.439 126.592 C 165.040 125.412,164.542 122.974,164.127 120.168 C 164.069 119.772,164.060 121.122,164.108 123.169 M165.722 135.174 C 165.722 135.636,165.771 135.825,165.832 135.594 C 165.892 135.363,165.892 134.985,165.832 134.754 C 165.771 134.523,165.722 134.712,165.722 135.174 M175.515 165.232 C 175.511 165.385,176.733 167.816,177.363 168.908 C 177.516 169.172,177.883 169.901,178.179 170.528 C 178.475 171.155,178.810 171.669,178.924 171.669 C 179.038 171.669,179.447 172.371,179.832 173.229 C 180.217 174.088,180.643 174.790,180.779 174.790 C 180.915 174.790,181.192 175.141,181.396 175.570 C 181.953 176.746,182.355 177.393,182.893 177.980 C 183.160 178.272,183.610 178.971,183.891 179.532 C 184.173 180.093,184.504 180.552,184.627 180.552 C 184.750 180.552,185.333 181.282,185.923 182.173 C 186.513 183.064,187.442 184.280,187.987 184.874 C 188.532 185.468,189.302 186.412,189.696 186.971 C 190.091 187.530,190.633 188.105,190.901 188.249 C 191.169 188.392,191.588 188.976,191.833 189.546 C 192.077 190.117,192.394 190.656,192.537 190.744 C 192.680 190.832,192.797 191.214,192.797 191.591 C 192.797 192.593,193.048 193.166,193.307 192.757 C 193.894 191.832,192.856 188.868,191.476 187.525 C 190.995 187.057,190.366 186.328,190.079 185.904 C 189.791 185.479,188.890 184.330,188.076 183.350 C 187.262 182.370,186.426 181.241,186.220 180.841 C 186.013 180.441,185.598 179.916,185.298 179.673 C 184.997 179.430,184.608 178.908,184.433 178.511 C 184.257 178.115,183.690 177.241,183.173 176.568 C 182.656 175.896,182.233 175.238,182.233 175.107 C 182.233 174.975,181.882 174.456,181.453 173.954 C 181.023 173.452,180.452 172.520,180.182 171.884 C 179.913 171.247,179.461 170.479,179.178 170.177 C 178.895 169.875,178.445 169.142,178.178 168.547 C 177.742 167.580,175.527 164.821,175.515 165.232"/></g></svg>