<svg xmlns="http://www.w3.org/2000/svg" xmlns:xlink="http://www.w3.org/1999/xlink" id="svg" width="400" height="240" version="1.1" viewBox="0 0 400 240"><g id="svgg"><path id="path0" fill="#fbecf5" fill-rule="evenodd" stroke="none" d="M107.443 9.288 C 105.909 9.474,105.610 9.624,105.363 10.333 L 105.115 11.044 101.597 11.063 C 95.786 11.093,95.406 11.170,95.185 12.352 L 95.025 13.205 91.390 13.209 C 87.382 13.213,87.234 13.250,87.117 14.286 L 87.035 15.006 85.234 15.071 C 84.244 15.107,83.271 15.205,83.073 15.289 C 82.875 15.373,82.621 15.421,82.508 15.396 C 81.968 15.274,81.411 15.697,81.270 16.337 C 81.123 17.008,79.725 17.325,77.987 17.081 C 77.464 17.007,76.017 17.892,75.673 18.496 C 75.344 19.074,75.111 19.205,74.407 19.206 C 73.290 19.208,72.065 19.826,71.733 20.554 C 71.560 20.934,71.261 21.135,70.850 21.148 C 69.123 21.204,67.949 21.695,67.590 22.510 C 67.407 22.927,67.155 23.049,66.479 23.049 C 65.494 23.049,65.201 23.328,65.094 24.370 C 65.000 25.280,65.150 25.200,63.452 25.239 C 61.703 25.278,61.370 25.451,61.333 26.337 C 61.308 26.950,61.209 27.022,60.244 27.131 C 59.223 27.246,59.181 27.283,59.111 28.128 C 59.039 28.981,59.006 29.009,57.910 29.140 C 57.290 29.214,56.567 29.318,56.303 29.372 C 56.038 29.426,55.746 29.484,55.653 29.501 C 55.560 29.518,55.413 29.910,55.326 30.372 C 55.174 31.185,54.659 31.427,53.481 31.241 C 53.382 31.225,53.285 31.348,53.265 31.513 C 53.245 31.678,53.203 31.921,53.172 32.053 C 53.142 32.185,53.104 32.475,53.089 32.699 C 53.069 32.988,52.803 33.126,52.161 33.179 C 51.309 33.249,51.256 33.302,51.186 34.154 C 51.114 35.029,51.085 35.054,50.166 35.054 C 49.645 35.054,49.220 35.155,49.220 35.277 C 49.220 35.400,48.977 35.535,48.679 35.578 C 48.352 35.624,47.997 35.953,47.779 36.412 C 47.527 36.943,47.154 37.250,46.536 37.437 C 45.854 37.643,45.593 37.884,45.393 38.491 C 45.202 39.070,44.929 39.338,44.361 39.507 C 43.793 39.675,43.534 39.931,43.381 40.473 C 43.229 41.012,42.969 41.270,42.415 41.433 C 41.852 41.599,41.661 41.793,41.674 42.185 C 41.684 42.475,41.603 42.658,41.494 42.591 C 41.386 42.524,41.297 42.689,41.297 42.957 C 41.297 43.226,41.031 43.621,40.706 43.833 C 40.381 44.046,40.049 44.427,39.969 44.679 C 39.889 44.932,39.669 45.138,39.480 45.138 C 39.290 45.138,39.136 45.234,39.136 45.352 C 39.136 45.470,38.868 45.633,38.540 45.716 C 37.784 45.905,37.215 46.994,37.215 48.247 C 37.215 49.216,36.797 49.457,35.474 49.248 C 35.375 49.232,35.278 49.355,35.258 49.520 C 35.237 49.685,35.196 49.928,35.165 50.060 C 35.135 50.192,35.097 50.472,35.082 50.682 C 35.065 50.909,34.664 51.181,34.094 51.352 C 33.223 51.613,33.133 51.714,33.133 52.441 C 33.133 53.133,33.039 53.260,32.432 53.381 C 31.641 53.540,31.453 53.942,31.236 55.942 C 31.108 57.122,31.037 57.255,30.573 57.191 C 30.288 57.152,29.983 57.235,29.897 57.375 C 29.810 57.516,29.621 57.558,29.478 57.470 C 29.329 57.377,29.286 57.420,29.379 57.569 C 29.467 57.713,29.425 57.901,29.284 57.988 C 29.144 58.075,29.061 58.375,29.100 58.655 C 29.148 58.996,28.980 59.260,28.589 59.457 C 27.839 59.835,27.131 61.296,27.131 62.468 C 27.131 63.214,27.044 63.385,26.668 63.385 C 26.074 63.385,25.385 64.069,25.549 64.497 C 25.618 64.678,25.591 64.826,25.488 64.826 C 25.384 64.826,25.274 65.332,25.242 65.951 C 25.170 67.326,25.098 67.456,24.490 67.296 C 24.221 67.226,24.010 67.289,24.010 67.439 C 24.010 67.586,23.881 67.680,23.723 67.647 C 23.378 67.575,23.116 68.606,23.078 70.191 C 23.054 71.157,22.964 71.376,22.546 71.485 C 21.918 71.649,21.128 73.413,21.128 74.651 C 21.128 75.369,21.011 75.606,20.554 75.815 C 19.597 76.251,19.208 77.383,19.208 79.733 C 19.208 81.634,19.160 81.855,18.725 81.994 C 17.547 82.367,17.047 83.707,17.047 86.483 L 17.047 89.062 16.274 89.262 C 15.264 89.524,15.179 89.883,15.150 94.032 L 15.126 97.427 14.533 97.576 C 13.303 97.885,13.325 97.536,13.325 116.350 C 13.325 135.311,13.268 134.456,14.576 134.953 C 15.109 135.156,15.127 135.258,15.150 138.349 C 15.179 142.279,15.271 142.651,16.274 142.911 L 17.047 143.111 17.075 145.325 C 17.091 146.543,17.085 147.679,17.062 147.850 C 17.000 148.314,17.980 149.791,18.635 150.220 C 19.164 150.567,19.208 150.751,19.208 152.616 C 19.208 154.943,19.612 156.169,20.516 156.581 C 20.938 156.773,21.131 157.053,21.138 157.482 C 21.169 159.624,21.707 160.864,22.606 160.864 C 22.971 160.864,23.054 161.067,23.078 162.005 C 23.117 163.569,23.380 164.598,23.723 164.526 C 23.881 164.493,24.010 164.586,24.010 164.734 C 24.010 164.884,24.221 164.947,24.490 164.876 C 25.098 164.717,25.170 164.847,25.242 166.222 C 25.274 166.841,25.384 167.347,25.488 167.347 C 25.591 167.347,25.612 167.510,25.536 167.710 C 25.345 168.207,25.922 168.846,26.438 168.711 C 26.912 168.587,27.131 168.987,27.131 169.978 C 27.131 171.042,27.801 172.382,28.458 172.632 C 28.904 172.801,29.052 173.033,29.052 173.564 C 29.052 174.777,29.263 175.030,30.278 175.030 L 31.212 175.030 31.216 176.291 C 31.221 177.907,31.629 178.729,32.479 178.827 C 32.981 178.886,33.140 179.039,33.163 179.488 C 33.227 180.726,33.462 181.032,34.348 181.032 C 34.912 181.032,35.060 181.141,35.082 181.573 C 35.097 181.870,35.124 182.275,35.142 182.473 C 35.163 182.705,35.516 182.876,36.134 182.953 L 37.095 183.073 37.286 184.622 C 37.493 186.307,37.753 186.795,38.442 186.795 C 38.702 186.795,39.139 187.190,39.485 187.737 C 39.834 188.291,40.302 188.712,40.619 188.758 C 41.015 188.815,41.203 189.052,41.324 189.647 C 41.503 190.530,41.864 190.867,42.635 190.873 C 43.009 190.875,43.188 191.099,43.355 191.777 C 43.537 192.512,43.730 192.726,44.407 192.945 C 44.863 193.093,45.278 193.336,45.328 193.487 C 45.378 193.637,45.517 193.700,45.636 193.626 C 45.755 193.553,45.795 193.643,45.725 193.827 C 45.560 194.256,46.224 194.813,46.689 194.635 C 46.947 194.536,47.116 194.760,47.301 195.444 C 47.602 196.562,48.090 196.871,49.841 197.052 L 51.140 197.186 51.140 198.113 C 51.140 199.032,51.149 199.040,52.086 199.040 C 53.006 199.040,53.034 199.065,53.107 199.940 C 53.179 200.814,53.211 200.843,54.202 200.914 C 55.039 200.975,55.222 201.075,55.222 201.470 C 55.222 202.338,55.661 202.813,56.599 202.963 C 57.278 203.072,57.623 203.296,57.941 203.836 C 58.177 204.235,58.526 204.562,58.717 204.562 C 58.908 204.562,59.064 204.670,59.064 204.802 C 59.064 204.934,59.543 205.042,60.130 205.042 C 61.188 205.042,61.196 205.048,61.270 205.942 L 61.345 206.843 63.205 206.913 L 65.066 206.983 65.066 207.765 C 65.066 208.751,65.435 209.124,66.411 209.124 C 67.050 209.124,67.222 209.246,67.431 209.845 C 67.735 210.717,68.492 211.044,70.205 211.044 C 71.308 211.044,71.505 211.119,71.733 211.619 C 72.059 212.333,73.285 212.965,74.347 212.965 C 75.026 212.965,75.150 213.051,75.150 213.520 C 75.150 214.729,75.582 214.930,78.468 215.067 L 81.152 215.194 81.152 215.975 C 81.152 216.931,81.411 217.047,83.550 217.047 C 85.154 217.047,85.192 217.061,85.439 217.768 C 85.791 218.779,86.496 218.968,89.917 218.968 C 91.669 218.968,92.951 219.068,93.039 219.211 C 93.122 219.345,93.551 219.606,93.993 219.791 C 94.435 219.975,95.021 220.352,95.297 220.627 C 95.753 221.083,96.076 221.128,98.849 221.128 L 101.901 221.128 102.822 222.029 L 103.744 222.929 118.559 223.003 C 136.270 223.091,136.532 223.069,137.119 221.436 C 137.182 221.263,138.484 221.142,140.858 221.089 L 144.501 221.008 145.443 219.988 L 146.385 218.968 149.413 218.968 L 152.442 218.968 153.302 218.037 C 154.136 217.136,154.221 217.104,156.060 216.997 C 158.061 216.882,158.627 216.623,158.749 215.769 C 158.818 215.283,158.994 215.236,161.238 215.099 C 164.007 214.931,164.604 214.696,164.825 213.687 C 164.975 213.005,165.049 212.965,166.150 212.965 C 167.825 212.965,168.529 212.635,168.703 211.769 C 168.834 211.110,168.933 211.044,169.797 211.044 C 170.590 211.044,170.897 210.887,171.669 210.084 C 172.362 209.363,172.779 209.124,173.346 209.124 C 174.548 209.124,175.030 208.743,175.030 207.795 C 175.030 207.008,175.074 206.963,175.851 206.963 C 176.856 206.963,178.041 206.315,178.374 205.585 C 178.576 205.142,178.814 205.042,179.669 205.042 C 181.124 205.042,182.880 203.448,182.996 202.021 L 183.073 201.080 184.394 201.018 C 186.505 200.919,186.722 200.821,186.896 199.896 C 187.036 199.147,187.137 199.061,187.943 198.994 C 188.785 198.924,188.840 198.869,188.910 198.019 C 188.977 197.205,189.051 197.119,189.673 197.119 C 190.552 197.119,191.116 196.554,191.116 195.676 C 191.116 195.053,191.203 194.980,192.017 194.912 C 192.868 194.842,192.921 194.789,192.992 193.938 C 193.062 193.083,193.109 193.037,193.904 193.037 C 197.684 193.037,198.454 187.814,195.243 183.963 C 194.255 182.777,193.199 181.322,192.160 179.712 C 191.819 179.184,191.238 178.427,190.869 178.031 C 190.500 177.635,189.949 176.825,189.645 176.230 C 189.341 175.636,188.747 174.696,188.326 174.140 C 187.904 173.585,187.429 172.720,187.269 172.219 C 187.110 171.718,186.721 171.060,186.405 170.757 C 186.090 170.454,185.667 169.811,185.465 169.329 C 185.263 168.846,184.647 167.852,184.095 167.119 C 183.543 166.386,183.082 165.763,183.070 165.734 C 183.024 165.620,176.684 166.848,175.011 167.294 C 172.534 167.955,170.967 168.243,168.224 168.540 C 166.924 168.681,164.818 169.104,163.543 169.480 C 162.246 169.862,160.272 170.234,159.064 170.324 C 156.551 170.512,154.125 170.907,153.782 171.184 C 152.978 171.829,147.131 172.476,146.077 172.035 C 144.936 171.559,144.916 171.424,145.339 167.163 C 145.546 165.085,145.777 160.684,145.852 157.383 C 146.086 147.137,146.464 137.430,146.833 132.173 C 147.028 129.400,147.292 125.186,147.421 122.809 C 147.550 120.432,147.701 118.154,147.756 117.745 C 147.821 117.265,147.673 116.699,147.338 116.141 C 146.403 114.587,145.202 112.971,144.742 112.649 C 144.494 112.475,144.080 111.918,143.821 111.411 C 143.562 110.904,143.105 110.290,142.804 110.047 C 142.303 109.641,141.911 109.120,140.244 106.643 C 139.930 106.175,139.409 105.516,139.087 105.177 C 138.766 104.839,138.287 104.148,138.024 103.642 C 137.587 102.802,136.605 101.364,134.712 98.793 C 134.320 98.261,133.924 97.613,133.832 97.352 C 133.740 97.092,133.364 96.555,132.996 96.158 C 132.629 95.762,132.114 94.869,131.852 94.173 L 131.375 92.908 132.043 92.562 C 132.607 92.271,135.929 92.205,153.139 92.146 C 167.878 92.096,173.641 92.002,173.836 91.806 C 174.266 91.376,175.256 87.310,174.997 87.037 C 174.721 86.747,123.148 86.850,122.850 87.142 C 122.320 87.662,122.408 89.196,123.017 90.036 C 123.353 90.498,123.920 91.363,124.278 91.957 C 124.636 92.551,125.168 93.307,125.460 93.637 C 125.753 93.968,126.129 94.508,126.297 94.838 C 126.465 95.168,126.863 95.762,127.182 96.158 C 127.501 96.555,128.463 97.943,129.320 99.243 C 130.176 100.543,131.097 101.840,131.366 102.124 C 131.635 102.408,132.066 103.052,132.325 103.554 C 132.584 104.057,133.169 104.956,133.625 105.554 C 134.081 106.151,134.454 106.749,134.454 106.883 C 134.454 107.017,134.832 107.568,135.294 108.108 C 135.756 108.648,136.138 109.260,136.142 109.467 C 136.146 109.674,136.308 110.054,136.502 110.310 C 137.050 111.035,136.933 111.296,135.842 111.788 C 133.387 112.896,100.450 112.319,99.018 111.144 C 98.873 111.025,96.713 110.710,94.216 110.443 C 91.580 110.161,88.467 109.659,86.795 109.246 C 85.210 108.855,83.265 108.462,82.473 108.373 C 81.681 108.284,80.222 107.860,79.232 107.431 C 78.241 107.002,76.573 106.476,75.524 106.262 C 74.475 106.049,73.161 105.607,72.604 105.280 C 72.046 104.953,70.930 104.532,70.122 104.344 C 69.315 104.155,68.276 103.778,67.814 103.505 C 67.352 103.233,66.174 102.677,65.196 102.270 C 64.218 101.863,63.299 101.385,63.152 101.209 C 63.006 101.033,62.269 100.645,61.515 100.347 C 60.761 100.049,59.874 99.569,59.544 99.281 C 59.214 98.992,58.511 98.499,57.983 98.186 C 55.967 96.988,53.702 94.935,51.083 91.929 C 50.590 91.362,50.009 90.353,49.792 89.687 C 49.575 89.021,49.257 88.205,49.085 87.875 C 48.189 86.151,48.005 84.022,48.644 82.785 C 48.856 82.376,49.331 81.299,49.700 80.393 C 50.069 79.487,50.733 78.313,51.176 77.786 C 53.077 75.521,55.829 72.957,57.503 71.892 C 57.899 71.640,58.672 71.095,59.220 70.683 C 59.769 70.270,60.518 69.856,60.885 69.764 C 61.252 69.672,61.855 69.342,62.225 69.031 C 62.595 68.719,63.467 68.251,64.162 67.990 C 64.857 67.728,66.130 67.140,66.991 66.682 C 67.852 66.224,68.933 65.767,69.392 65.668 C 69.852 65.568,70.714 65.244,71.309 64.947 C 71.903 64.650,73.253 64.211,74.310 63.970 C 75.366 63.729,76.771 63.240,77.431 62.881 C 78.228 62.449,79.479 62.091,81.151 61.816 C 82.537 61.588,84.104 61.246,84.633 61.056 C 86.067 60.540,88.608 60.049,91.837 59.663 C 93.421 59.474,96.058 59.041,97.695 58.701 C 105.192 57.143,132.798 57.152,139.856 58.715 C 141.309 59.037,143.685 59.466,145.138 59.668 C 149.100 60.221,150.216 60.437,151.830 60.970 C 152.639 61.236,154.432 61.622,155.813 61.828 C 157.535 62.083,158.668 62.393,159.415 62.814 C 160.014 63.151,161.433 63.631,162.568 63.880 C 163.704 64.130,165.216 64.606,165.930 64.938 C 166.643 65.270,167.348 65.543,167.496 65.544 C 168.081 65.549,170.778 66.523,171.385 66.948 C 171.739 67.196,172.623 67.589,173.349 67.821 C 174.076 68.053,175.165 68.554,175.770 68.934 C 176.375 69.315,177.503 69.844,178.278 70.110 C 179.052 70.377,179.931 70.755,180.231 70.952 C 180.530 71.148,180.821 71.309,180.876 71.309 C 181.103 71.309,183.006 67.917,183.430 66.756 C 183.681 66.069,184.160 65.148,184.495 64.709 C 184.830 64.270,185.326 63.316,185.598 62.590 C 185.870 61.863,186.259 61.130,186.462 60.961 C 186.666 60.793,187.082 60.161,187.388 59.559 C 187.693 58.956,188.185 58.247,188.481 57.983 C 188.776 57.719,189.223 57.027,189.474 56.446 C 189.725 55.865,190.224 55.047,190.583 54.628 C 191.457 53.609,192.839 51.687,193.249 50.921 C 193.431 50.579,194.208 49.533,194.976 48.596 C 195.743 47.659,196.443 46.605,196.531 46.253 C 196.620 45.901,196.788 45.554,196.905 45.482 C 197.023 45.409,197.119 44.431,197.119 43.309 C 197.119 42.010,197.032 41.322,196.879 41.417 C 196.747 41.498,196.639 41.451,196.639 41.311 C 196.639 41.171,196.267 41.056,195.813 41.056 C 195.032 41.056,194.983 41.008,194.912 40.156 C 194.842 39.305,194.789 39.252,193.938 39.181 C 193.173 39.118,193.037 39.021,193.037 38.541 C 193.037 37.513,192.788 37.215,191.931 37.215 C 191.162 37.215,191.116 37.169,191.116 36.383 C 191.116 35.468,190.636 35.054,189.572 35.054 C 189.094 35.054,188.955 34.933,188.952 34.514 C 188.946 33.711,188.692 33.460,187.695 33.277 C 186.979 33.145,186.794 33.003,186.791 32.582 C 186.785 31.724,186.447 31.424,185.329 31.283 C 184.210 31.143,183.278 30.484,182.933 29.590 C 182.818 29.292,182.640 29.062,182.538 29.078 C 181.563 29.237,181.089 29.006,180.881 28.271 C 180.694 27.608,180.508 27.457,179.646 27.265 C 178.954 27.110,178.631 26.913,178.631 26.642 C 178.631 25.948,177.771 25.426,176.392 25.283 C 175.102 25.150,175.057 25.121,174.859 24.287 C 174.628 23.307,174.200 23.111,172.209 23.073 C 170.971 23.050,170.948 23.036,170.948 22.323 C 170.948 21.431,170.305 21.128,168.412 21.128 C 167.253 21.128,167.107 21.073,167.107 20.632 C 167.107 19.448,166.725 19.208,164.844 19.208 C 162.997 19.208,162.800 19.065,162.685 17.647 C 162.674 17.515,162.539 17.407,162.385 17.407 C 162.231 17.407,162.024 17.326,161.925 17.227 C 161.826 17.128,160.682 17.047,159.384 17.047 L 157.023 17.047 157.023 16.429 C 157.023 15.377,156.526 15.126,154.440 15.126 C 152.627 15.126,152.544 15.102,152.562 14.586 C 152.573 14.274,152.454 14.071,152.281 14.106 C 152.116 14.139,152.008 14.040,152.041 13.887 C 152.142 13.416,151.040 13.254,147.567 13.229 C 144.150 13.205,143.097 12.855,143.097 11.746 C 143.097 11.258,141.851 11.086,138.099 11.057 L 134.222 11.027 133.322 10.203 C 132.827 9.749,132.204 9.361,131.937 9.339 C 130.887 9.254,108.119 9.206,107.443 9.288 M229.712 62.836 L 229.052 62.937 229.052 73.621 C 229.052 80.131,229.143 84.477,229.287 84.744 C 229.843 85.783,230.273 85.811,247.670 85.946 C 263.198 86.066,264.290 86.102,264.917 86.513 C 266.166 87.332,266.267 87.973,266.267 95.089 L 266.267 101.598 265.565 102.299 C 265.179 102.685,264.618 103.001,264.319 103.001 L 263.776 103.001 264.382 103.661 C 265.851 105.262,266.026 106.238,266.026 112.818 C 266.026 119.896,266.200 121.095,267.279 121.471 C 268.542 121.911,289.079 121.820,289.719 121.371 C 290.739 120.657,290.985 118.974,291.053 112.245 L 291.116 106.002 291.873 104.511 C 292.589 103.100,292.605 103.011,292.169 102.872 C 290.982 102.496,290.368 89.365,291.445 87.395 C 292.275 85.877,291.204 85.966,308.819 85.960 C 327.483 85.954,326.566 86.058,327.015 83.893 C 327.330 82.375,327.253 63.307,326.931 62.985 C 326.733 62.787,230.986 62.641,229.712 62.836 M90.516 66.141 C 88.179 66.537,87.236 66.961,86.133 68.111 L 85.230 69.052 85.614 70.177 C 85.966 71.210,87.108 72.509,87.663 72.509 C 87.790 72.509,88.223 72.752,88.625 73.049 C 89.425 73.641,93.656 73.942,96.380 73.602 C 97.730 73.434,100.977 71.558,101.183 70.828 C 101.664 69.122,101.629 68.959,100.634 68.301 C 100.107 67.953,99.617 67.512,99.544 67.323 C 99.134 66.254,93.894 65.568,90.516 66.141 M142.887 70.227 C 141.350 70.465,140.747 70.672,140.329 71.104 C 140.029 71.414,139.448 71.924,139.039 72.236 C 137.047 73.755,138.920 77.104,142.178 77.849 C 143.813 78.223,149.130 78.210,150.540 77.829 C 154.537 76.750,154.997 72.568,151.334 70.625 C 150.927 70.409,145.616 69.796,145.018 69.896 C 144.952 69.906,143.993 70.056,142.887 70.227 M118.119 74.397 C 116.813 74.675,116.214 75.496,116.208 77.019 C 116.201 78.506,123.871 78.975,125.579 77.592 C 126.316 76.996,125.575 74.922,124.525 74.641 C 123.479 74.362,119.074 74.193,118.119 74.397 M71.739 88.579 C 71.381 88.694,70.770 89.015,70.381 89.292 C 69.992 89.569,69.582 89.800,69.471 89.805 C 68.455 89.848,66.693 92.906,67.291 93.589 C 67.488 93.814,67.829 94.352,68.048 94.785 C 69.954 98.548,81.514 98.574,83.973 94.821 C 84.270 94.368,84.668 93.795,84.858 93.547 C 85.162 93.152,85.154 93.020,84.789 92.467 C 84.561 92.120,84.262 91.621,84.125 91.357 C 83.988 91.092,83.084 90.338,82.117 89.681 L 80.358 88.485 76.373 88.427 C 74.182 88.395,72.096 88.464,71.739 88.579 M45.981 93.405 C 46.216 94.113,46.548 94.632,46.822 94.719 C 47.071 94.798,47.348 95.095,47.439 95.380 C 47.674 96.121,51.077 99.574,52.260 100.272 C 52.810 100.596,53.434 101.127,53.646 101.450 C 53.858 101.774,54.393 102.190,54.835 102.374 C 55.278 102.559,55.793 102.929,55.980 103.196 C 56.167 103.464,56.956 103.963,57.733 104.307 C 58.510 104.651,59.289 105.137,59.464 105.387 C 59.640 105.638,60.513 106.085,61.404 106.381 C 62.296 106.676,63.481 107.265,64.038 107.689 C 64.711 108.201,65.444 108.512,66.219 108.615 C 67.008 108.719,67.632 108.988,68.141 109.442 C 68.741 109.978,69.354 110.196,71.163 110.517 C 72.411 110.738,73.792 111.126,74.231 111.380 C 74.671 111.633,76.002 112.079,77.191 112.372 C 78.379 112.664,79.730 113.098,80.192 113.337 C 81.474 113.998,82.660 114.255,86.194 114.637 C 87.977 114.830,90.732 115.325,92.317 115.737 C 94.635 116.340,95.785 116.501,98.199 116.561 C 101.240 116.638,101.876 116.723,103.601 117.285 C 107.152 118.442,133.172 118.463,135.728 117.311 C 137.412 116.552,145.387 116.553,144.757 117.312 C 144.602 117.498,144.394 119.233,144.278 121.306 C 143.886 128.273,143.609 130.546,142.882 132.736 C 142.025 135.317,141.807 138.207,141.778 147.419 C 141.766 151.176,141.641 154.663,141.487 155.510 C 141.279 156.652,141.285 157.240,141.512 158.031 C 141.710 158.724,141.824 161.410,141.857 166.198 L 141.906 173.332 141.361 173.689 C 140.978 173.939,139.889 174.079,137.695 174.160 C 135.978 174.223,133.764 174.380,132.773 174.509 C 131.783 174.638,130.540 174.668,130.012 174.576 C 129.484 174.483,128.570 174.495,127.980 174.601 C 127.391 174.707,124.636 174.744,121.858 174.682 C 108.770 174.392,105.220 174.267,104.442 174.069 C 103.980 173.952,102.521 173.787,101.200 173.702 C 99.880 173.618,97.719 173.296,96.399 172.987 C 95.078 172.678,92.809 172.305,91.357 172.158 C 87.774 171.797,85.992 171.464,85.338 171.036 C 85.036 170.838,83.782 170.517,82.551 170.322 C 81.125 170.096,79.813 169.714,78.936 169.270 C 78.180 168.887,76.959 168.462,76.223 168.326 C 74.713 168.047,73.019 167.354,72.123 166.649 C 71.791 166.388,70.905 166.050,70.153 165.897 C 69.341 165.732,68.541 165.388,68.179 165.047 C 67.845 164.733,66.932 164.256,66.150 163.987 C 65.368 163.718,64.508 163.295,64.237 163.048 C 63.967 162.800,63.078 162.264,62.262 161.856 C 61.447 161.449,60.710 161.003,60.625 160.865 C 60.540 160.728,59.946 160.349,59.304 160.024 C 58.663 159.699,58.074 159.242,57.995 159.009 C 57.916 158.775,57.129 158.097,56.246 157.503 C 55.363 156.909,54.366 156.114,54.031 155.737 C 53.696 155.359,52.734 154.333,51.894 153.456 C 51.054 152.579,50.120 151.483,49.819 151.020 C 49.518 150.558,49.057 149.956,48.795 149.681 C 48.533 149.407,48.240 148.921,48.144 148.601 C 48.049 148.281,47.642 147.602,47.241 147.091 C 46.840 146.581,46.308 145.627,46.059 144.973 C 45.811 144.318,45.396 143.494,45.139 143.140 C 44.868 142.767,44.561 141.741,44.409 140.696 C 44.104 138.593,43.758 137.358,43.333 136.855 C 42.285 135.613,41.045 122.701,41.649 119.325 C 41.827 118.333,41.985 116.280,42.001 114.763 C 42.059 109.222,42.203 106.468,42.467 105.807 C 42.616 105.435,42.738 104.517,42.738 103.766 C 42.739 102.000,43.342 98.293,43.811 97.172 C 44.245 96.132,44.342 95.037,44.104 93.855 C 43.663 91.667,45.275 91.280,45.981 93.405 M113.785 100.582 C 111.977 100.831,110.052 102.600,110.717 103.401 C 112.439 105.476,118.069 105.661,119.944 103.705 L 120.564 103.058 119.886 102.074 C 118.985 100.767,116.626 100.190,113.785 100.582 M170.411 101.863 C 170.050 102.159,169.481 102.617,169.148 102.881 C 166.307 105.131,166.436 111.452,169.382 114.307 C 171.564 116.421,171.441 116.644,171.735 110.033 C 172.159 100.521,172.146 100.442,170.411 101.863 M54.419 106.562 C 53.877 107.161,53.920 107.658,54.581 108.426 L 55.139 109.076 55.452 107.961 C 55.887 106.404,55.292 105.597,54.419 106.562 M217.768 112.611 C 217.256 112.732,216.646 113.144,216.207 113.667 C 215.811 114.140,215.364 114.526,215.215 114.526 C 214.939 114.526,214.550 115.359,214.314 116.452 C 213.974 118.031,216.169 121.055,218.060 121.613 C 218.361 121.702,219.688 122.301,221.008 122.945 C 222.329 123.589,223.950 124.235,224.610 124.381 C 226.128 124.718,228.104 125.327,230.841 126.302 C 232.411 126.862,233.670 127.122,235.516 127.270 C 238.378 127.499,242.331 128.273,243.938 128.918 C 244.818 129.272,246.039 129.383,250.540 129.514 C 260.699 129.812,264.661 130.472,265.788 132.056 C 266.245 132.697,266.259 133.345,266.322 156.333 C 266.395 182.954,266.252 181.075,268.232 181.500 C 269.896 181.857,288.617 181.842,289.405 181.483 C 291.035 180.740,290.996 181.352,290.996 156.023 C 290.996 131.215,290.946 132.148,292.350 131.161 C 293.499 130.353,297.072 129.898,305.162 129.532 C 312.779 129.187,313.340 129.111,316.447 128.001 C 317.295 127.698,318.788 127.467,320.626 127.355 C 322.762 127.225,323.884 127.031,325.067 126.587 C 325.938 126.260,327.893 125.677,329.412 125.291 C 333.756 124.188,334.581 123.920,335.446 123.334 C 335.891 123.032,336.883 122.524,337.649 122.207 C 342.092 120.365,344.098 116.549,341.730 114.442 C 340.086 112.980,338.984 112.365,338.012 112.365 C 336.744 112.365,336.590 112.885,337.582 113.812 C 339.629 115.724,336.658 120.201,332.893 120.877 C 332.365 120.971,331.767 121.198,331.564 121.380 C 330.964 121.917,329.407 122.486,327.611 122.824 C 326.687 122.998,324.958 123.480,323.770 123.895 C 321.232 124.782,317.023 125.560,314.646 125.583 C 312.993 125.599,312.481 125.671,309.124 126.368 C 308.199 126.560,306.741 126.789,305.882 126.876 C 305.024 126.964,303.187 127.220,301.801 127.444 C 297.966 128.063,257.286 128.058,254.382 127.437 C 253.325 127.211,251.110 126.856,249.460 126.649 C 247.809 126.442,246.297 126.206,246.098 126.126 C 245.900 126.046,244.442 125.839,242.857 125.665 C 236.668 124.988,231.819 123.902,231.493 123.121 C 231.449 123.015,230.941 122.929,230.364 122.929 C 228.790 122.929,226.927 122.475,225.450 121.732 C 224.724 121.367,223.697 120.944,223.169 120.792 C 222.582 120.623,221.605 119.966,220.653 119.097 L 219.097 117.678 219.092 116.162 C 219.089 115.182,219.236 114.357,219.507 113.830 C 220.178 112.525,219.665 112.166,217.768 112.611 M157.581 122.473 C 157.116 122.607,156.623 123.010,156.316 123.508 C 156.039 123.956,155.658 124.381,155.470 124.454 C 154.164 124.955,153.857 131.333,155.139 131.333 C 155.238 131.333,155.651 131.815,156.057 132.406 C 158.250 135.592,164.555 134.257,165.664 130.372 C 167.169 125.097,162.907 120.931,157.581 122.473 M58.467 136.611 C 58.081 137.038,58.065 137.175,58.345 137.697 C 58.756 138.467,59.240 138.459,59.596 137.676 C 60.096 136.579,59.232 135.765,58.467 136.611 M126.677 152.839 C 126.598 153.046,126.655 153.445,126.804 153.724 L 127.077 154.233 127.543 153.657 C 127.986 153.110,127.988 153.067,127.584 152.772 C 127.030 152.367,126.853 152.380,126.677 152.839 M110.837 156.970 C 110.770 157.078,110.802 157.305,110.907 157.475 C 111.056 157.716,111.129 157.702,111.241 157.411 C 111.392 157.017,111.043 156.637,110.837 156.970"/><path id="path1" fill="#fa9d5b" fill-rule="evenodd" stroke="none" d="M107.803 57.783 C 101.811 58.020,100.258 58.160,97.719 58.691 C 96.068 59.037,93.421 59.474,91.837 59.663 C 88.608 60.049,86.067 60.540,84.633 61.056 C 84.104 61.246,82.537 61.588,81.151 61.816 C 79.479 62.091,78.228 62.449,77.431 62.881 C 76.771 63.240,75.366 63.729,74.310 63.970 C 73.253 64.211,71.903 64.650,71.309 64.947 C 70.714 65.244,69.852 65.568,69.392 65.668 C 68.933 65.767,67.852 66.224,66.991 66.682 C 66.130 67.140,64.857 67.728,64.162 67.990 C 63.467 68.251,62.595 68.719,62.225 69.031 C 61.855 69.342,61.252 69.672,60.885 69.764 C 60.518 69.856,59.769 70.270,59.220 70.683 C 58.672 71.095,57.899 71.640,57.503 71.892 C 55.829 72.957,53.077 75.521,51.176 77.786 C 50.733 78.313,50.069 79.487,49.700 80.393 C 49.331 81.299,48.856 82.376,48.644 82.785 C 48.005 84.022,48.189 86.151,49.085 87.875 C 49.257 88.205,49.575 89.021,49.792 89.687 C 50.478 91.796,54.836 96.317,57.983 98.186 C 58.511 98.499,59.214 98.992,59.544 99.281 C 59.874 99.569,60.761 100.049,61.515 100.347 C 62.269 100.645,63.006 101.033,63.152 101.209 C 63.299 101.385,64.218 101.863,65.196 102.270 C 66.174 102.677,67.352 103.233,67.814 103.505 C 68.276 103.778,69.315 104.155,70.122 104.344 C 70.930 104.532,72.046 104.953,72.604 105.280 C 73.161 105.607,74.475 106.049,75.524 106.262 C 76.573 106.476,78.241 107.002,79.232 107.431 C 80.222 107.860,81.681 108.284,82.473 108.373 C 83.265 108.462,85.210 108.855,86.795 109.246 C 88.467 109.659,91.580 110.161,94.216 110.443 C 96.713 110.710,98.873 111.025,99.018 111.144 C 100.450 112.319,133.387 112.896,135.842 111.788 C 136.933 111.296,137.050 111.035,136.502 110.310 C 136.308 110.054,136.146 109.674,136.142 109.467 C 136.138 109.260,135.756 108.648,135.294 108.108 C 134.832 107.568,134.454 107.017,134.454 106.883 C 134.454 106.749,134.081 106.151,133.625 105.554 C 133.169 104.956,132.584 104.057,132.325 103.554 C 132.066 103.052,131.635 102.408,131.366 102.124 C 131.097 101.840,130.176 100.543,129.320 99.243 C 128.463 97.943,127.501 96.555,127.182 96.158 C 126.863 95.762,126.465 95.168,126.297 94.838 C 126.129 94.508,125.753 93.968,125.460 93.637 C 125.168 93.307,124.636 92.551,124.278 91.957 C 123.920 91.363,123.353 90.498,123.017 90.036 C 122.408 89.196,122.320 87.662,122.850 87.142 C 123.090 86.907,174.559 86.735,174.927 86.968 C 175.536 87.352,177.402 83.536,178.301 80.072 C 178.506 79.280,178.754 78.523,178.852 78.391 C 178.950 78.259,179.488 77.032,180.048 75.665 C 181.582 71.918,181.342 71.164,178.278 70.110 C 177.503 69.844,176.375 69.315,175.770 68.934 C 175.165 68.554,174.076 68.053,173.349 67.821 C 172.623 67.589,171.739 67.196,171.385 66.948 C 170.778 66.523,168.081 65.549,167.496 65.544 C 167.348 65.543,166.643 65.270,165.930 64.938 C 165.216 64.606,163.704 64.130,162.568 63.880 C 161.433 63.631,160.014 63.151,159.415 62.814 C 158.668 62.393,157.535 62.083,155.813 61.828 C 154.432 61.622,152.639 61.236,151.830 60.970 C 150.216 60.437,149.100 60.221,145.138 59.668 C 143.685 59.466,141.309 59.037,139.856 58.715 C 134.833 57.601,121.904 57.226,107.803 57.783 M95.923 66.153 C 98.541 66.575,99.358 66.839,99.544 67.323 C 99.617 67.512,100.107 67.953,100.634 68.301 C 101.629 68.959,101.664 69.122,101.183 70.828 C 100.977 71.558,97.730 73.434,96.380 73.602 C 93.656 73.942,89.425 73.641,88.625 73.049 C 88.223 72.752,87.790 72.509,87.663 72.509 C 87.108 72.509,85.966 71.210,85.614 70.177 L 85.230 69.052 86.133 68.111 C 87.236 66.961,88.179 66.537,90.516 66.141 C 92.946 65.729,93.291 65.730,95.923 66.153 M147.972 70.110 C 151.150 70.374,151.444 70.483,152.881 71.935 C 156.732 75.827,149.883 79.611,142.178 77.849 C 138.920 77.104,137.047 73.755,139.039 72.236 C 139.448 71.924,140.029 71.414,140.329 71.104 C 140.747 70.672,141.350 70.465,142.887 70.227 C 143.993 70.056,144.952 69.906,145.018 69.896 C 145.084 69.885,146.413 69.981,147.972 70.110 M124.525 74.641 C 125.575 74.922,126.316 76.996,125.579 77.592 C 123.871 78.975,116.201 78.506,116.208 77.019 C 116.211 76.386,116.714 74.921,116.988 74.752 C 117.856 74.216,122.669 74.145,124.525 74.641 M82.117 89.681 C 83.084 90.338,83.988 91.092,84.125 91.357 C 84.262 91.621,84.561 92.120,84.789 92.467 C 85.154 93.020,85.162 93.152,84.858 93.547 C 84.668 93.795,84.270 94.368,83.973 94.821 C 81.514 98.574,69.954 98.548,68.048 94.785 C 67.829 94.352,67.488 93.814,67.291 93.589 C 66.693 92.906,68.455 89.848,69.471 89.805 C 69.582 89.800,69.992 89.569,70.381 89.292 C 71.546 88.463,72.211 88.367,76.373 88.427 L 80.358 88.485 82.117 89.681 M44.438 92.345 C 44.033 92.861,43.965 93.166,44.104 93.855 C 44.342 95.037,44.245 96.132,43.811 97.172 C 43.342 98.293,42.739 102.000,42.738 103.766 C 42.738 104.517,42.616 105.435,42.467 105.807 C 42.203 106.468,42.059 109.222,42.001 114.763 C 41.985 116.280,41.827 118.333,41.649 119.325 C 41.045 122.701,42.285 135.613,43.333 136.855 C 43.758 137.358,44.104 138.593,44.409 140.696 C 44.561 141.741,44.868 142.767,45.139 143.140 C 45.396 143.494,45.811 144.318,46.059 144.973 C 46.308 145.627,46.840 146.581,47.241 147.091 C 47.642 147.602,48.049 148.281,48.144 148.601 C 48.240 148.921,48.533 149.407,48.795 149.681 C 49.057 149.956,49.518 150.558,49.819 151.020 C 50.120 151.483,51.054 152.579,51.894 153.456 C 52.734 154.333,53.696 155.359,54.031 155.737 C 54.366 156.114,55.363 156.909,56.246 157.503 C 57.129 158.097,57.916 158.775,57.995 159.009 C 58.074 159.242,58.663 159.699,59.304 160.024 C 59.946 160.349,60.540 160.728,60.625 160.865 C 60.710 161.003,61.447 161.449,62.262 161.856 C 63.078 162.264,63.967 162.800,64.237 163.048 C 64.508 163.295,65.368 163.718,66.150 163.987 C 66.932 164.256,67.845 164.733,68.179 165.047 C 68.541 165.388,69.341 165.732,70.153 165.897 C 70.905 166.050,71.791 166.388,72.123 166.649 C 73.019 167.354,74.713 168.047,76.223 168.326 C 76.959 168.462,78.180 168.887,78.936 169.270 C 79.813 169.714,81.125 170.096,82.551 170.322 C 83.782 170.517,85.036 170.838,85.338 171.036 C 85.992 171.464,87.774 171.797,91.357 172.158 C 92.809 172.305,95.078 172.678,96.399 172.987 C 97.719 173.296,99.880 173.618,101.200 173.702 C 102.521 173.787,103.980 173.952,104.442 174.069 C 105.220 174.267,108.770 174.392,121.858 174.682 C 124.636 174.744,127.391 174.707,127.980 174.601 C 128.570 174.495,129.484 174.483,130.012 174.576 C 130.540 174.668,131.783 174.638,132.773 174.509 C 133.764 174.380,135.978 174.223,137.695 174.160 C 139.889 174.079,140.978 173.939,141.361 173.689 L 141.906 173.332 141.857 166.198 C 141.824 161.410,141.710 158.724,141.512 158.031 C 141.285 157.240,141.279 156.652,141.487 155.510 C 141.641 154.663,141.766 151.176,141.778 147.419 C 141.807 138.207,142.025 135.317,142.882 132.736 C 143.609 130.546,143.886 128.273,144.278 121.306 C 144.394 119.233,144.602 117.498,144.757 117.312 C 145.387 116.553,137.412 116.552,135.728 117.311 C 133.172 118.463,107.152 118.442,103.601 117.285 C 101.876 116.723,101.240 116.638,98.199 116.561 C 95.785 116.501,94.635 116.340,92.317 115.737 C 90.732 115.325,87.977 114.830,86.194 114.637 C 82.660 114.255,81.474 113.998,80.192 113.337 C 79.730 113.098,78.379 112.664,77.191 112.372 C 76.002 112.079,74.671 111.633,74.231 111.380 C 73.792 111.126,72.411 110.738,71.163 110.517 C 69.354 110.196,68.741 109.978,68.141 109.442 C 67.632 108.988,67.008 108.719,66.219 108.615 C 65.444 108.512,64.711 108.201,64.038 107.689 C 63.481 107.265,62.296 106.676,61.404 106.381 C 60.513 106.085,59.640 105.638,59.464 105.387 C 59.289 105.137,58.510 104.651,57.733 104.307 C 56.956 103.963,56.167 103.464,55.980 103.196 C 55.793 102.929,55.278 102.559,54.835 102.374 C 54.393 102.190,53.858 101.774,53.646 101.450 C 53.434 101.127,52.810 100.596,52.260 100.272 C 51.077 99.574,47.674 96.121,47.439 95.380 C 47.348 95.095,47.071 94.798,46.822 94.719 C 46.548 94.632,46.216 94.113,45.981 93.405 C 45.441 91.779,45.079 91.530,44.438 92.345 M149.100 92.197 C 136.473 92.288,132.287 92.389,131.895 92.614 L 131.376 92.911 131.852 94.174 C 132.114 94.869,132.629 95.762,132.996 96.158 C 133.364 96.555,133.740 97.092,133.832 97.352 C 133.924 97.613,134.320 98.261,134.712 98.793 C 136.605 101.364,137.587 102.802,138.024 103.642 C 138.287 104.148,138.766 104.839,139.087 105.177 C 139.409 105.516,139.930 106.175,140.244 106.643 C 141.911 109.120,142.303 109.641,142.804 110.047 C 143.105 110.290,143.562 110.904,143.821 111.411 C 144.080 111.918,144.494 112.475,144.742 112.649 C 145.202 112.971,146.403 114.587,147.338 116.141 C 147.673 116.699,147.821 117.265,147.756 117.745 C 147.701 118.154,147.550 120.432,147.421 122.809 C 147.292 125.186,147.028 129.400,146.833 132.173 C 146.464 137.430,146.086 147.137,145.852 157.383 C 145.777 160.684,145.546 165.085,145.339 167.163 C 144.916 171.424,144.936 171.559,146.077 172.035 C 147.131 172.476,152.978 171.829,153.782 171.184 C 154.125 170.907,156.551 170.512,159.064 170.324 C 160.272 170.234,162.246 169.862,163.543 169.480 C 164.818 169.104,166.924 168.681,168.224 168.540 C 170.989 168.241,172.435 167.971,175.390 167.205 C 176.579 166.897,178.631 166.466,179.952 166.246 C 183.740 165.618,183.892 165.243,181.975 161.279 C 181.457 160.207,181.032 159.185,181.032 159.009 C 181.032 158.834,180.692 158.018,180.276 157.196 C 179.414 155.491,176.636 147.781,176.367 146.343 C 176.269 145.818,175.777 144.089,175.274 142.502 C 174.772 140.914,174.237 138.589,174.085 137.335 C 173.750 134.570,173.178 130.881,172.856 129.412 C 172.407 127.357,172.183 125.195,172.037 121.489 C 171.831 116.261,171.758 115.801,171.117 115.639 C 169.365 115.196,166.867 110.978,166.867 108.462 C 166.867 107.134,168.334 103.529,169.139 102.881 C 170.837 101.513,171.238 101.277,171.669 101.390 C 171.981 101.472,172.179 101.362,172.277 101.056 C 172.356 100.805,172.510 100.600,172.618 100.600 C 173.297 100.600,174.632 93.450,174.122 92.540 C 173.862 92.074,171.230 92.038,149.100 92.197 M118.367 100.869 C 118.947 101.021,119.418 101.395,119.886 102.074 L 120.564 103.058 119.944 103.705 C 118.069 105.661,112.439 105.476,110.717 103.401 C 110.390 103.007,111.125 101.755,112.033 101.160 C 113.167 100.417,116.128 100.281,118.367 100.869 M55.464 106.484 C 55.704 106.774,55.702 107.068,55.452 107.961 L 55.139 109.076 54.581 108.426 C 53.920 107.658,53.877 107.161,54.419 106.562 C 54.902 106.028,55.074 106.015,55.464 106.484 M162.274 122.440 C 164.857 123.181,166.571 127.192,165.664 130.372 C 164.555 134.257,158.250 135.592,156.057 132.406 C 155.651 131.815,155.238 131.333,155.139 131.333 C 153.857 131.333,154.164 124.955,155.470 124.454 C 155.658 124.381,156.039 123.956,156.316 123.508 C 157.049 122.321,160.010 121.791,162.274 122.440 M59.634 136.670 C 59.933 137.144,59.476 138.295,58.989 138.295 C 58.328 138.295,57.974 137.155,58.467 136.611 C 58.955 136.071,59.266 136.087,59.634 136.670 M127.584 152.772 C 127.988 153.067,127.986 153.110,127.543 153.657 L 127.077 154.233 126.804 153.724 C 126.309 152.799,126.800 152.199,127.584 152.772 M111.241 157.411 C 111.129 157.702,111.056 157.716,110.907 157.475 C 110.682 157.110,110.864 156.717,111.171 156.907 C 111.288 156.979,111.319 157.206,111.241 157.411"/><path id="path2" fill="#24a47c" fill-rule="evenodd" stroke="none" d="M256.723 7.561 C 256.294 7.747,255.823 8.164,255.676 8.486 C 255.414 9.059,255.338 9.074,252.014 9.167 C 248.396 9.269,247.641 9.474,247.404 10.418 C 247.269 10.956,247.149 10.984,244.484 11.102 L 241.704 11.224 240.817 12.215 L 239.929 13.205 238.076 13.205 C 235.846 13.205,235.294 13.445,235.294 14.414 L 235.294 15.126 233.633 15.126 C 231.699 15.126,229.801 15.805,229.601 16.568 C 229.521 16.873,229.273 17.047,228.919 17.047 C 227.694 17.047,227.131 17.461,227.131 18.361 L 227.131 19.208 225.561 19.208 C 223.793 19.208,222.227 19.834,221.970 20.644 C 221.886 20.910,221.554 21.182,221.232 21.248 C 220.911 21.314,220.405 21.420,220.108 21.484 C 219.006 21.719,217.287 23.489,217.287 24.388 C 217.287 25.183,217.256 25.210,216.352 25.210 C 215.364 25.210,215.126 25.470,215.126 26.550 C 215.126 27.045,215.011 27.131,214.346 27.132 C 212.820 27.135,211.729 27.596,211.440 28.360 C 211.269 28.813,210.953 29.118,210.568 29.201 C 209.464 29.440,209.397 29.499,209.320 30.298 C 209.252 31.008,209.152 31.105,208.385 31.212 C 207.787 31.296,207.296 31.597,206.765 32.204 C 206.241 32.804,205.661 33.162,204.907 33.352 C 203.994 33.582,203.753 33.767,203.463 34.461 C 203.205 35.079,202.968 35.294,202.547 35.294 C 201.886 35.294,201.543 35.642,201.317 36.542 C 201.204 36.994,200.952 37.231,200.474 37.336 C 199.665 37.514,199.355 37.845,199.243 38.653 C 199.192 39.021,198.905 39.373,198.497 39.568 C 197.402 40.091,196.518 43.217,197.465 43.217 C 197.946 43.217,198.080 43.501,198.464 45.334 C 198.956 47.687,198.572 49.173,197.190 50.261 C 196.881 50.504,196.462 51.026,196.258 51.420 C 195.759 52.385,194.277 54.309,193.748 54.680 C 193.512 54.845,193.040 55.481,192.697 56.093 C 191.975 57.386,190.935 58.693,189.496 60.115 C 188.935 60.670,188.475 61.309,188.475 61.535 C 188.475 61.942,187.990 62.944,187.231 64.106 C 187.015 64.436,186.657 65.365,186.435 66.171 C 186.213 66.976,185.776 67.932,185.464 68.295 C 185.152 68.658,184.665 69.674,184.382 70.552 C 184.098 71.430,183.650 72.337,183.386 72.567 C 183.099 72.817,182.680 73.830,182.345 75.085 C 182.033 76.252,181.591 77.346,181.348 77.548 C 180.687 78.099,180.390 78.923,180.092 81.029 C 179.918 82.258,179.623 83.249,179.269 83.790 C 178.506 84.958,178.430 85.212,178.024 87.966 C 177.827 89.303,177.294 91.423,176.841 92.677 C 175.869 95.363,175.668 96.497,175.029 102.881 C 174.712 106.043,174.332 108.462,173.915 109.964 C 173.111 112.859,172.834 119.251,173.446 120.780 C 173.902 121.920,174.390 124.793,175.034 130.132 C 175.772 136.262,176.129 138.137,177.066 140.816 C 177.528 142.137,177.907 143.526,177.909 143.903 C 177.913 145.049,178.623 147.416,179.244 148.355 C 179.653 148.973,179.932 149.918,180.162 151.467 C 180.425 153.233,180.641 153.899,181.213 154.697 C 181.609 155.250,182.147 156.459,182.409 157.383 C 182.670 158.307,183.164 159.476,183.506 159.979 C 183.849 160.483,184.203 161.386,184.293 161.987 C 184.397 162.686,184.710 163.368,185.159 163.880 C 185.546 164.320,186.080 165.307,186.347 166.074 C 186.613 166.840,187.191 168.007,187.631 168.667 C 188.070 169.328,188.495 170.254,188.575 170.725 C 188.672 171.294,188.963 171.761,189.438 172.112 C 189.832 172.404,190.423 173.172,190.751 173.820 C 191.079 174.467,191.547 175.139,191.791 175.313 C 192.036 175.488,192.434 175.937,192.678 176.312 C 192.921 176.687,193.696 177.583,194.401 178.305 C 195.105 179.026,195.885 180.016,196.134 180.504 C 196.384 180.993,196.827 181.609,197.119 181.873 C 198.887 183.470,199.285 188.956,197.633 188.956 C 196.532 188.956,197.362 192.144,198.620 192.747 C 199.060 192.958,199.280 193.250,199.280 193.621 C 199.280 194.271,199.631 194.616,200.521 194.839 C 200.944 194.946,201.213 195.214,201.319 195.638 C 201.542 196.525,201.887 196.879,202.531 196.879 C 202.928 196.879,203.204 197.128,203.522 197.773 C 203.885 198.510,204.146 198.711,205.013 198.918 C 205.747 199.093,206.300 199.440,206.840 200.065 C 207.426 200.743,207.796 200.960,208.364 200.960 C 208.988 200.960,209.139 201.072,209.259 201.621 C 209.515 202.788,209.580 202.881,210.137 202.885 C 210.903 202.890,211.221 203.143,211.410 203.900 C 211.593 204.626,212.611 205.038,214.226 205.041 C 215.018 205.042,215.126 205.112,215.126 205.623 C 215.126 206.703,215.364 206.963,216.352 206.963 C 217.252 206.963,217.287 206.992,217.287 207.767 C 217.287 208.863,219.189 210.663,220.581 210.886 C 221.275 210.997,221.601 211.197,221.800 211.634 C 222.184 212.476,223.537 212.965,225.480 212.965 L 227.131 212.965 227.131 213.782 C 227.131 214.766,227.880 215.126,229.928 215.126 C 231.175 215.126,231.212 215.146,231.212 215.798 C 231.212 216.818,231.616 217.047,233.417 217.047 C 234.995 217.047,235.050 217.067,235.203 217.707 C 235.476 218.851,235.709 218.968,237.724 218.968 C 239.135 218.968,239.616 219.048,239.616 219.286 C 239.616 219.661,240.494 220.496,241.176 220.769 C 241.441 220.875,242.899 221.026,244.418 221.105 C 247.136 221.246,247.180 221.258,247.262 221.849 C 247.421 223.001,247.598 223.049,251.612 223.049 L 255.385 223.049 255.664 223.662 C 256.275 225.002,255.692 224.970,279.834 224.970 C 304.299 224.970,303.402 225.023,304.202 223.529 C 304.438 223.087,304.719 223.047,307.752 223.025 C 311.708 222.997,312.138 222.900,312.605 221.933 L 312.965 221.188 315.366 221.079 C 318.331 220.946,320.079 219.983,318.813 219.181 C 318.619 219.058,319.506 218.972,321.008 218.968 C 323.886 218.959,324.691 218.691,324.806 217.702 C 324.882 217.048,324.886 217.047,326.847 217.046 C 328.949 217.045,330.302 216.528,330.535 215.637 C 330.605 215.368,331.015 215.129,331.650 214.989 C 332.539 214.791,332.678 214.667,332.869 213.891 L 333.086 213.015 334.756 212.921 C 336.511 212.822,337.241 212.361,337.017 211.496 C 336.934 211.178,337.201 211.082,338.506 210.962 C 340.217 210.805,341.085 210.197,340.855 209.318 C 340.792 209.079,340.839 208.824,340.959 208.750 C 341.079 208.676,341.176 208.737,341.176 208.886 C 341.176 209.254,342.173 208.941,342.557 208.453 C 342.722 208.243,342.857 207.822,342.857 207.517 C 342.857 207.045,342.980 206.963,343.689 206.963 C 344.571 206.963,345.018 206.484,345.018 205.538 C 345.018 205.118,345.175 205.038,346.038 205.018 C 347.716 204.979,348.224 204.741,348.699 203.776 C 349.017 203.131,349.293 202.881,349.690 202.881 C 350.346 202.881,350.704 202.500,350.817 201.681 C 350.882 201.216,351.062 201.062,351.621 200.999 C 352.592 200.890,352.941 200.554,352.941 199.731 C 352.941 199.090,353.008 199.040,353.856 199.040 C 354.722 199.040,356.303 197.948,356.303 197.350 C 356.303 197.245,356.762 197.007,357.323 196.821 C 358.146 196.548,358.396 196.324,358.614 195.664 C 358.793 195.120,359.075 194.800,359.451 194.711 C 359.763 194.638,360.270 194.204,360.577 193.747 C 360.884 193.291,361.388 192.784,361.696 192.622 C 362.273 192.318,363.025 190.558,363.025 189.513 C 363.025 189.063,363.154 188.956,363.697 188.956 C 364.551 188.956,364.946 188.560,364.946 187.707 C 364.946 187.188,365.059 187.035,365.442 187.035 C 366.340 187.035,366.867 186.583,366.867 185.813 C 366.867 185.223,367.001 185.042,367.592 184.836 C 368.493 184.522,368.735 184.081,368.934 182.391 C 369.090 181.066,369.096 181.057,369.960 180.985 C 370.797 180.915,370.831 180.875,370.902 179.892 C 370.967 178.990,371.044 178.872,371.562 178.872 C 372.583 178.872,373.603 177.430,372.809 177.110 C 372.644 177.043,372.754 176.980,373.053 176.970 C 373.439 176.956,373.718 176.689,374.013 176.050 C 374.527 174.939,374.658 174.761,375.930 173.446 C 376.933 172.410,376.951 172.363,376.951 170.710 C 376.951 169.126,376.983 169.027,377.491 169.024 C 378.602 169.016,379.112 168.106,379.112 166.131 C 379.112 165.063,379.165 164.946,379.652 164.942 C 380.659 164.935,380.856 164.601,380.978 162.690 C 381.085 161.029,381.141 160.864,381.604 160.861 C 382.614 160.853,382.818 160.496,382.916 158.559 C 383.003 156.841,383.066 156.654,383.809 155.911 C 384.828 154.892,385.111 153.844,385.113 151.080 C 385.114 148.902,385.125 148.860,385.685 148.860 C 386.761 148.860,386.909 148.342,387.000 144.256 C 387.076 140.881,387.135 140.420,387.519 140.214 C 389.030 139.405,388.956 140.656,388.956 116.086 C 388.956 91.475,389.034 92.770,387.494 91.945 C 387.081 91.725,387.035 91.409,387.035 88.813 C 387.035 85.144,386.728 83.817,385.797 83.466 C 385.130 83.214,385.114 83.165,385.110 81.400 C 385.106 79.427,384.684 77.642,384.140 77.297 C 383.647 76.985,383.132 77.018,383.336 77.348 C 383.442 77.520,383.402 77.560,383.230 77.454 C 383.052 77.344,382.952 76.452,382.950 74.956 C 382.946 72.281,382.660 71.465,381.687 71.353 C 381.048 71.278,381.032 71.239,381.027 69.672 C 381.021 67.886,380.433 66.256,379.609 65.742 C 379.336 65.571,379.112 65.246,379.112 65.020 C 379.112 64.135,378.576 63.428,377.794 63.282 C 377.016 63.136,377.014 63.132,376.892 61.418 C 376.757 59.542,376.348 58.946,375.324 59.137 C 374.885 59.220,374.805 59.154,374.917 58.802 C 375.258 57.726,373.941 55.238,373.012 55.203 C 372.735 55.193,372.644 55.130,372.809 55.063 C 373.610 54.740,372.580 53.301,371.549 53.301 C 371.024 53.301,370.948 53.197,370.948 52.469 C 370.948 51.587,370.469 51.140,369.524 51.140 C 369.152 51.140,369.028 50.987,369.028 50.526 C 369.028 48.956,368.500 47.735,367.672 47.389 C 367.080 47.142,366.867 46.902,366.867 46.485 C 366.867 45.813,366.491 45.455,365.666 45.341 C 365.201 45.277,365.048 45.096,364.985 44.538 C 364.876 43.575,364.541 43.217,363.748 43.217 C 363.163 43.217,363.074 43.111,362.963 42.285 C 362.784 40.946,362.278 40.027,361.522 39.665 C 361.160 39.491,360.864 39.208,360.864 39.035 C 360.864 38.519,359.932 37.493,359.389 37.411 C 359.059 37.361,358.790 37.051,358.614 36.516 C 358.408 35.895,358.135 35.626,357.479 35.401 C 357.003 35.238,356.227 34.705,355.754 34.218 C 355.129 33.575,354.626 33.296,353.917 33.201 C 353.045 33.084,352.941 33.000,352.941 32.411 C 352.941 31.618,352.583 31.282,351.621 31.174 C 351.062 31.111,350.882 30.957,350.817 30.492 C 350.703 29.663,350.344 29.292,349.658 29.292 C 349.232 29.292,349.010 29.106,348.835 28.605 C 348.555 27.802,347.774 27.390,346.170 27.200 C 345.240 27.090,345.018 26.975,345.018 26.601 C 345.018 25.688,344.561 25.210,343.689 25.210 C 343.029 25.210,342.857 25.115,342.857 24.750 C 342.857 23.630,341.607 22.604,341.140 23.340 C 341.009 23.547,340.943 23.442,340.940 23.026 C 340.936 22.262,340.353 21.717,339.299 21.493 C 338.829 21.393,338.069 20.889,337.445 20.265 C 336.397 19.217,336.372 19.208,334.711 19.208 L 333.035 19.208 332.874 18.350 C 332.681 17.323,332.122 17.047,330.236 17.047 C 329.044 17.047,328.931 17.000,328.928 16.507 C 328.921 15.500,328.586 15.303,326.675 15.180 C 325.014 15.073,324.850 15.017,324.846 14.554 C 324.839 13.505,324.496 13.330,322.278 13.239 C 320.153 13.152,319.184 12.655,318.781 11.446 C 318.731 11.296,317.510 11.152,315.771 11.090 C 312.926 10.988,312.845 10.970,312.845 10.444 C 312.845 9.400,312.305 9.249,308.241 9.158 C 304.800 9.081,304.408 9.029,304.189 8.619 C 304.055 8.369,303.521 7.948,303.003 7.684 C 301.761 7.051,258.163 6.935,256.723 7.561 M328.331 61.661 C 328.727 61.835,329.295 62.204,329.592 62.483 L 330.132 62.989 330.126 73.571 C 330.120 84.751,330.041 85.717,329.020 87.055 C 328.036 88.345,327.950 88.351,310.804 88.372 C 298.688 88.387,294.760 88.463,294.118 88.695 L 293.277 88.998 293.213 94.963 C 293.172 98.782,293.237 101.016,293.393 101.173 C 293.538 101.317,296.224 101.490,299.934 101.594 C 306.367 101.774,308.214 101.975,310.878 102.786 C 312.916 103.406,315.164 103.711,317.767 103.719 C 320.685 103.727,322.808 104.092,324.250 104.831 C 325.274 105.356,329.102 106.058,331.254 106.115 C 331.409 106.119,331.841 106.379,332.214 106.693 C 332.588 107.006,333.541 107.402,334.334 107.572 C 335.126 107.743,336.477 108.234,337.335 108.664 C 338.193 109.095,339.297 109.610,339.787 109.810 C 341.587 110.542,344.180 112.992,344.778 114.526 C 344.958 114.988,345.302 115.624,345.542 115.939 C 346.138 116.721,346.090 117.443,345.386 118.262 C 345.060 118.641,344.727 119.255,344.645 119.626 C 344.335 121.038,340.803 124.021,338.776 124.584 C 338.181 124.749,337.235 125.208,336.673 125.603 C 335.959 126.106,335.163 126.398,334.032 126.572 C 333.141 126.709,331.765 127.127,330.972 127.500 C 329.847 128.031,328.806 128.266,326.218 128.571 C 324.033 128.829,322.643 129.113,322.137 129.405 C 320.999 130.062,319.237 130.331,314.166 130.624 C 309.593 130.888,309.053 130.966,306.603 131.718 C 305.195 132.150,301.487 132.480,297.663 132.513 C 296.377 132.524,294.842 132.662,294.253 132.820 L 293.180 133.107 293.109 157.490 C 293.028 185.178,293.156 183.441,291.138 184.100 C 289.323 184.693,266.233 184.400,265.384 183.774 C 263.843 182.638,263.888 183.430,263.876 157.003 L 263.866 133.094 263.325 132.832 C 263.024 132.686,260.608 132.505,257.863 132.423 C 253.212 132.285,250.873 131.970,246.939 130.955 C 246.675 130.887,244.568 130.728,242.257 130.603 C 238.106 130.377,236.002 130.013,234.979 129.344 C 234.690 129.155,233.319 128.870,231.933 128.710 C 228.120 128.271,227.999 128.245,226.741 127.604 C 226.089 127.272,224.560 126.838,223.289 126.625 C 221.538 126.332,220.813 126.090,220.168 125.586 C 219.706 125.225,218.679 124.726,217.887 124.478 C 217.095 124.231,216.176 123.754,215.846 123.419 C 215.516 123.083,215.037 122.701,214.782 122.569 C 214.235 122.287,212.620 120.050,212.094 118.848 C 211.389 117.238,211.981 113.565,212.945 113.565 C 213.039 113.565,213.360 113.133,213.657 112.605 C 213.953 112.077,214.294 111.645,214.413 111.645 C 214.532 111.645,214.991 111.327,215.434 110.938 C 215.876 110.550,216.816 110.004,217.523 109.725 C 218.230 109.447,219.087 109.021,219.428 108.779 C 220.070 108.325,222.100 107.563,222.671 107.563 C 222.849 107.563,223.688 107.239,224.535 106.842 C 225.690 106.302,226.777 106.035,228.873 105.775 C 230.515 105.571,231.917 105.266,232.267 105.037 C 233.357 104.323,235.373 103.955,239.496 103.719 C 244.189 103.450,245.298 103.304,245.973 102.865 C 247.095 102.135,250.045 101.795,256.543 101.645 C 260.108 101.562,263.214 101.398,263.445 101.279 C 263.829 101.082,263.866 100.534,263.866 95.036 C 263.866 89.577,263.826 88.978,263.445 88.690 C 263.105 88.432,259.787 88.369,246.065 88.363 C 227.010 88.354,228.291 88.482,227.845 86.555 C 227.723 86.026,227.620 80.402,227.617 74.055 C 227.610 61.043,227.512 61.720,229.442 61.448 C 231.837 61.111,327.547 61.316,328.331 61.661 M253.661 106.620 C 252.869 106.727,251.366 107.038,250.322 107.309 C 249.277 107.581,248.155 107.803,247.829 107.803 C 247.502 107.803,246.844 107.909,246.366 108.039 C 245.889 108.168,243.653 108.375,241.397 108.499 C 237.826 108.694,237.104 108.804,235.814 109.347 C 234.999 109.690,233.496 110.083,232.472 110.221 C 227.763 110.854,227.599 110.891,226.902 111.479 C 226.512 111.806,225.465 112.246,224.528 112.476 C 223.082 112.830,222.811 112.982,222.564 113.577 C 222.407 113.957,221.961 114.407,221.574 114.577 C 220.485 115.055,220.626 117.162,221.768 117.488 C 222.186 117.607,223.017 118.109,223.616 118.604 C 224.558 119.383,224.923 119.525,226.342 119.665 C 227.403 119.769,228.452 120.064,229.321 120.502 C 231.006 121.353,231.239 121.408,234.454 121.721 C 237.847 122.052,239.507 122.388,240.671 122.980 C 241.437 123.369,242.397 123.495,245.953 123.677 C 251.521 123.961,258.982 124.592,259.637 124.835 C 261.362 125.473,289.451 125.696,293.998 125.108 C 298.689 124.501,299.848 124.399,307.624 123.911 C 314.155 123.502,315.641 123.342,316.388 122.969 C 317.463 122.431,319.251 122.081,322.809 121.712 C 324.984 121.486,325.725 121.298,327.011 120.649 C 327.919 120.190,329.267 119.753,330.236 119.603 C 331.419 119.420,332.189 119.139,332.896 118.632 C 333.443 118.239,334.187 117.843,334.550 117.752 C 337.293 117.063,335.301 113.391,331.698 112.494 C 330.634 112.229,329.651 111.822,329.342 111.518 C 328.707 110.894,328.317 110.790,324.937 110.345 C 323.503 110.156,321.839 109.790,321.239 109.533 C 319.863 108.941,317.581 108.590,313.999 108.418 C 311.330 108.289,309.584 108.003,306.592 107.202 C 303.770 106.447,295.721 106.124,294.118 106.702 L 293.277 107.005 293.127 114.187 C 292.967 121.797,292.713 123.463,291.590 124.284 C 291.269 124.519,288.214 124.587,278.003 124.589 L 264.830 124.590 264.688 123.940 C 264.609 123.582,264.373 122.857,264.162 122.329 C 263.851 121.548,263.761 120.020,263.678 114.166 C 263.616 109.777,263.481 106.846,263.332 106.663 C 263.049 106.317,256.111 106.286,253.661 106.620"/><path id="path3" fill="#a1d0bf" fill-rule="evenodd" stroke="none" d="M197.119 44.244 C 197.119 44.852,197.023 45.409,196.905 45.482 C 196.788 45.554,196.620 45.901,196.531 46.253 C 196.443 46.605,195.743 47.659,194.976 48.596 C 194.208 49.533,193.431 50.579,193.249 50.921 C 192.839 51.687,191.457 53.609,190.583 54.628 C 190.224 55.047,189.725 55.865,189.474 56.446 C 189.223 57.027,188.776 57.719,188.481 57.983 C 188.185 58.247,187.693 58.956,187.388 59.559 C 187.082 60.161,186.666 60.793,186.462 60.961 C 186.259 61.130,185.875 61.850,185.609 62.562 C 185.343 63.273,184.798 64.306,184.398 64.858 C 183.999 65.409,183.565 66.256,183.435 66.740 C 183.305 67.224,182.654 68.515,181.989 69.610 C 180.978 71.275,180.804 71.728,180.927 72.381 C 181.058 73.082,179.551 77.449,178.852 78.391 C 178.754 78.523,178.506 79.280,178.301 80.072 C 177.791 82.036,176.154 86.065,175.668 86.552 C 175.449 86.770,175.204 87.238,175.122 87.592 C 175.040 87.946,174.757 88.992,174.494 89.916 C 174.231 90.840,174.035 91.813,174.059 92.077 C 174.084 92.341,174.101 93.313,174.099 94.238 L 174.093 95.918 174.420 94.449 C 174.600 93.641,175.078 92.345,175.482 91.568 C 176.049 90.478,176.279 89.608,176.492 87.755 C 176.666 86.240,177.027 84.682,177.471 83.531 C 177.858 82.528,178.319 81.178,178.495 80.530 C 179.033 78.551,181.468 73.053,182.349 71.826 C 182.807 71.189,183.500 69.884,183.890 68.925 C 184.280 67.967,184.757 67.004,184.950 66.785 C 185.143 66.566,185.576 65.616,185.912 64.675 C 186.532 62.939,187.849 60.636,188.847 59.544 C 189.149 59.214,189.680 58.403,190.029 57.743 C 190.377 57.083,190.915 56.273,191.225 55.942 C 191.534 55.612,191.988 55.008,192.232 54.600 C 192.477 54.192,193.031 53.436,193.463 52.920 C 193.896 52.403,194.547 51.524,194.909 50.966 C 195.272 50.408,195.954 49.544,196.425 49.045 C 197.786 47.604,197.883 47.300,197.627 45.242 C 197.365 43.130,197.119 42.647,197.119 44.244 M229.489 62.114 C 228.210 62.312,228.218 62.256,228.131 72.366 C 228.046 82.184,228.242 85.728,228.906 86.392 C 229.854 87.339,230.742 87.388,247.351 87.391 L 263.369 87.395 264.217 88.140 L 265.066 88.885 265.066 94.938 L 265.066 100.991 264.330 101.696 L 263.594 102.401 258.748 102.554 C 252.767 102.743,250.660 102.953,250.660 103.360 C 250.660 103.870,251.256 104.196,252.608 104.425 C 257.147 105.193,259.181 105.434,259.932 105.293 C 261.388 105.020,263.399 105.392,264.006 106.047 C 264.533 106.616,264.545 106.764,264.626 113.758 C 264.717 121.662,264.678 121.464,266.366 122.636 L 267.305 123.289 277.917 123.361 L 288.530 123.432 289.863 122.843 C 292.101 121.853,292.058 122.019,292.197 113.644 C 292.335 105.286,292.228 105.663,294.506 105.503 C 295.283 105.449,297.581 105.290,299.614 105.151 C 303.442 104.888,304.518 104.592,305.469 103.541 C 306.034 102.916,305.322 102.813,298.474 102.529 C 293.639 102.329,293.313 102.285,292.771 101.777 L 292.197 101.237 292.202 94.976 C 292.207 89.175,292.241 88.671,292.669 88.115 L 293.130 87.515 309.410 87.395 C 327.214 87.264,326.617 87.313,327.971 85.846 L 328.571 85.196 328.571 74.137 L 328.571 63.078 327.894 62.571 L 327.216 62.065 278.674 62.039 C 251.976 62.025,229.843 62.059,229.489 62.114 M326.931 62.985 C 327.253 63.307,327.330 82.375,327.015 83.893 C 326.566 86.058,327.483 85.954,308.819 85.960 C 291.204 85.966,292.275 85.877,291.445 87.395 C 290.368 89.365,290.982 102.496,292.169 102.872 C 292.605 103.011,292.589 103.100,291.873 104.511 L 291.116 106.002 291.053 112.245 C 290.985 118.974,290.739 120.657,289.719 121.371 C 289.079 121.820,268.542 121.911,267.279 121.471 C 266.200 121.095,266.026 119.896,266.026 112.818 C 266.026 106.238,265.851 105.262,264.382 103.661 L 263.776 103.001 264.319 103.001 C 264.618 103.001,265.179 102.685,265.565 102.299 L 266.267 101.598 266.267 95.089 C 266.267 87.973,266.166 87.332,264.917 86.513 C 264.290 86.102,263.198 86.066,247.670 85.946 C 230.273 85.811,229.843 85.783,229.287 84.744 C 229.143 84.477,229.052 80.131,229.052 73.621 L 229.052 62.937 229.712 62.836 C 230.986 62.641,326.733 62.787,326.931 62.985 M173.830 96.747 C 173.830 98.049,173.337 99.772,172.779 100.421 C 172.178 101.121,171.735 105.967,171.605 113.253 C 171.528 117.561,172.034 118.255,172.243 114.129 C 172.322 112.564,172.706 109.178,173.097 106.603 C 173.736 102.383,174.247 96.038,173.948 96.038 C 173.883 96.038,173.830 96.357,173.830 96.747 M313.259 104.670 C 310.109 104.896,310.172 104.836,311.759 106.075 C 313.007 107.050,313.146 107.097,315.572 107.352 C 318.585 107.670,322.725 107.264,321.697 106.752 C 321.393 106.600,321.048 106.138,320.929 105.724 C 320.614 104.628,318.294 104.309,313.259 104.670 M237.065 104.832 C 236.581 104.942,236.056 106.724,236.405 107.073 C 237.378 108.046,243.896 107.059,245.314 105.724 C 245.477 105.570,245.747 105.396,245.914 105.336 C 247.044 104.933,238.711 104.458,237.065 104.832 M228.474 106.874 C 228.164 106.957,227.534 107.436,227.074 107.938 C 226.264 108.821,226.172 108.856,224.223 109.000 C 220.458 109.280,215.685 111.745,213.815 114.376 C 212.395 116.372,212.446 117.268,214.133 119.989 C 215.500 122.194,220.836 124.993,225.690 126.050 C 226.417 126.208,227.517 126.594,228.135 126.908 C 228.953 127.323,230.261 127.612,232.937 127.968 C 236.528 128.446,238.016 128.774,238.568 129.210 C 238.819 129.408,243.715 129.936,251.501 130.604 C 253.217 130.752,255.378 130.984,256.303 131.120 C 257.227 131.257,259.198 131.455,260.682 131.560 C 263.078 131.730,263.475 131.824,264.223 132.395 L 265.066 133.038 265.067 156.495 C 265.069 181.207,265.069 181.206,266.205 182.293 C 267.286 183.326,268.357 183.421,279.007 183.428 L 288.986 183.433 290.182 182.856 C 292.220 181.873,292.062 183.912,292.197 156.809 L 292.317 132.705 292.917 132.266 C 293.350 131.950,294.289 131.757,296.279 131.574 C 299.030 131.322,300.562 131.162,306.483 130.508 C 308.199 130.319,310.846 130.092,312.365 130.005 C 314.132 129.904,316.120 129.598,317.887 129.155 C 319.406 128.775,322.142 128.248,323.967 127.985 C 325.982 127.694,328.246 127.183,329.730 126.684 C 331.073 126.232,332.605 125.789,333.133 125.700 C 335.011 125.382,340.253 122.560,342.161 120.840 C 345.907 117.463,344.078 112.913,338.018 110.528 C 337.444 110.302,336.585 109.875,336.109 109.579 C 335.609 109.269,334.350 108.887,333.131 108.677 C 331.969 108.476,330.954 108.219,330.875 108.105 C 330.134 107.032,326.179 106.397,323.953 106.993 L 323.415 107.137 323.893 107.807 C 324.155 108.176,324.370 108.640,324.370 108.839 C 324.370 109.230,324.927 109.362,327.989 109.701 C 329.967 109.919,330.710 110.209,331.084 110.909 C 331.317 111.344,332.628 111.932,334.040 112.234 C 334.406 112.313,334.892 112.579,335.120 112.825 C 335.348 113.071,335.900 113.661,336.346 114.137 L 337.158 115.002 336.840 116.139 C 336.388 117.754,334.371 119.384,331.863 120.162 C 331.109 120.396,330.060 120.748,329.532 120.945 C 329.004 121.141,328.164 121.452,327.667 121.636 C 327.169 121.819,325.732 122.135,324.473 122.338 C 323.214 122.540,321.641 122.920,320.977 123.181 C 319.685 123.691,316.064 124.238,312.365 124.482 C 311.110 124.565,308.571 124.835,306.723 125.082 C 297.648 126.296,293.164 126.545,280.065 126.561 C 264.070 126.581,259.154 126.364,251.981 125.317 C 250.264 125.067,246.957 124.698,244.632 124.497 C 240.290 124.123,236.751 123.563,235.925 123.121 C 235.667 122.984,234.013 122.618,232.248 122.308 C 230.483 121.999,228.562 121.535,227.980 121.277 C 227.397 121.019,226.318 120.683,225.581 120.531 C 224.300 120.265,220.981 118.325,220.236 117.407 C 219.072 115.973,221.088 112.600,223.625 111.736 C 224.253 111.522,224.804 111.225,224.849 111.076 C 224.893 110.926,224.999 110.492,225.083 110.110 L 225.237 109.415 227.287 109.573 C 228.493 109.665,229.975 109.619,230.887 109.460 L 232.437 109.190 232.365 108.076 L 232.293 106.963 230.665 106.843 C 229.769 106.777,228.783 106.791,228.474 106.874 M219.658 112.689 C 219.860 112.933,219.823 113.215,219.507 113.830 C 219.236 114.357,219.089 115.182,219.092 116.162 L 219.097 117.678 220.653 119.097 C 221.605 119.966,222.582 120.623,223.169 120.792 C 223.697 120.944,224.724 121.367,225.450 121.732 C 226.927 122.475,228.790 122.929,230.364 122.929 C 230.941 122.929,231.449 123.015,231.493 123.121 C 231.819 123.902,236.668 124.988,242.857 125.665 C 244.442 125.839,245.900 126.046,246.098 126.126 C 246.297 126.206,247.809 126.442,249.460 126.649 C 251.110 126.856,253.325 127.211,254.382 127.437 C 257.286 128.058,297.966 128.063,301.801 127.444 C 303.187 127.220,305.024 126.964,305.882 126.876 C 306.741 126.789,308.199 126.560,309.124 126.368 C 312.481 125.671,312.993 125.599,314.646 125.583 C 317.023 125.560,321.232 124.782,323.770 123.895 C 324.958 123.480,326.687 122.998,327.611 122.824 C 329.407 122.486,330.964 121.917,331.564 121.380 C 331.767 121.198,332.365 120.971,332.893 120.877 C 336.658 120.201,339.629 115.724,337.582 113.812 C 336.590 112.885,336.744 112.365,338.012 112.365 C 338.984 112.365,340.086 112.980,341.730 114.442 C 344.098 116.549,342.092 120.365,337.649 122.207 C 336.883 122.524,335.891 123.032,335.446 123.334 C 334.581 123.920,333.756 124.188,329.412 125.291 C 327.893 125.677,325.938 126.260,325.067 126.587 C 323.884 127.031,322.762 127.225,320.626 127.355 C 318.788 127.467,317.295 127.698,316.447 128.001 C 313.340 129.111,312.779 129.187,305.162 129.532 C 297.072 129.898,293.499 130.353,292.350 131.161 C 290.946 132.148,290.996 131.215,290.996 156.023 C 290.996 181.352,291.035 180.740,289.405 181.483 C 288.617 181.842,269.896 181.857,268.232 181.500 C 266.252 181.075,266.395 182.954,266.322 156.333 C 266.259 133.345,266.245 132.697,265.788 132.056 C 264.661 130.472,260.699 129.812,250.540 129.514 C 246.039 129.383,244.818 129.272,243.938 128.918 C 242.331 128.273,238.378 127.499,235.516 127.270 C 233.670 127.122,232.411 126.862,230.841 126.302 C 228.104 125.327,226.128 124.718,224.610 124.381 C 223.950 124.235,222.329 123.589,221.008 122.945 C 219.688 122.301,218.361 121.702,218.060 121.613 C 216.169 121.055,213.974 118.031,214.314 116.452 C 214.550 115.359,214.939 114.526,215.215 114.526 C 215.364 114.526,215.811 114.140,216.207 113.667 C 217.131 112.567,219.094 112.010,219.658 112.689 M171.983 120.648 C 171.985 121.441,172.029 121.736,172.083 121.304 C 172.136 120.873,172.135 120.224,172.080 119.864 C 172.026 119.503,171.982 119.856,171.983 120.648 M172.204 124.130 C 172.187 125.650,172.401 127.335,172.937 129.892 C 173.366 131.940,173.691 134.043,174.087 137.335 C 174.238 138.589,174.772 140.914,175.274 142.502 C 175.777 144.089,176.269 145.818,176.367 146.343 C 176.636 147.781,179.414 155.491,180.276 157.196 C 180.692 158.018,181.032 158.834,181.032 159.009 C 181.032 159.185,181.472 160.238,182.009 161.348 C 182.672 162.720,183.015 163.781,183.079 164.661 C 183.157 165.727,183.344 166.177,184.136 167.204 C 184.665 167.890,185.263 168.846,185.465 169.329 C 185.667 169.811,186.090 170.454,186.405 170.757 C 186.721 171.060,187.110 171.718,187.269 172.219 C 187.429 172.720,187.904 173.585,188.326 174.140 C 188.747 174.696,189.341 175.636,189.645 176.230 C 189.949 176.825,190.500 177.635,190.869 178.031 C 191.238 178.427,191.819 179.184,192.160 179.712 C 193.199 181.322,194.255 182.777,195.243 183.963 C 196.746 185.765,197.399 187.168,197.216 188.200 C 197.086 188.931,197.114 189.025,197.386 188.768 C 197.584 188.580,197.740 187.784,197.785 186.727 L 197.860 184.994 196.393 183.193 C 195.586 182.203,194.759 181.078,194.555 180.693 C 194.352 180.309,193.827 179.607,193.388 179.133 C 192.950 178.659,192.267 177.823,191.870 177.275 C 191.473 176.727,191.031 176.206,190.888 176.117 C 190.744 176.029,190.347 175.397,190.005 174.713 C 189.663 174.029,189.189 173.253,188.951 172.989 C 188.714 172.725,188.273 172.023,187.972 171.429 C 187.670 170.834,187.192 170.024,186.908 169.628 C 186.625 169.232,186.203 168.390,185.970 167.758 C 185.738 167.125,185.285 166.296,184.964 165.914 C 184.295 165.119,181.719 160.018,181.263 158.583 C 181.095 158.055,180.608 156.921,180.181 156.062 C 179.755 155.204,179.327 154.124,179.231 153.661 C 179.135 153.199,178.975 152.713,178.877 152.581 C 178.558 152.155,176.531 145.904,176.230 144.418 C 176.070 143.625,175.857 142.869,175.758 142.737 C 175.238 142.047,174.470 138.498,173.942 134.348 C 173.616 131.781,173.174 128.891,172.959 127.926 C 172.745 126.960,172.491 125.414,172.395 124.490 C 172.221 122.826,172.219 122.822,172.204 124.130"/><path id="path4" fill="#74bca4" fill-rule="evenodd" stroke="none" d="M197.458 43.998 C 197.964 47.278,197.927 47.455,196.425 49.045 C 195.954 49.544,195.272 50.408,194.909 50.966 C 194.547 51.524,193.896 52.403,193.463 52.920 C 193.031 53.436,192.477 54.192,192.232 54.600 C 191.988 55.008,191.534 55.612,191.225 55.942 C 190.915 56.273,190.377 57.083,190.029 57.743 C 189.680 58.403,189.149 59.214,188.847 59.544 C 187.849 60.636,186.532 62.939,185.912 64.675 C 185.576 65.616,185.143 66.566,184.950 66.785 C 184.757 67.004,184.280 67.967,183.890 68.925 C 183.500 69.884,182.807 71.189,182.349 71.826 C 181.468 73.053,179.033 78.551,178.495 80.530 C 178.319 81.178,177.858 82.528,177.471 83.531 C 177.027 84.682,176.666 86.240,176.492 87.755 C 176.280 89.604,176.049 90.479,175.486 91.560 C 174.537 93.383,174.104 95.479,173.940 99.040 C 173.866 100.624,173.492 104.028,173.107 106.603 C 171.801 115.342,171.728 121.936,172.877 127.397 C 173.130 128.600,173.606 131.707,173.936 134.300 C 174.469 138.491,175.236 142.045,175.758 142.737 C 175.857 142.869,176.070 143.625,176.230 144.418 C 176.531 145.904,178.558 152.155,178.877 152.581 C 178.975 152.713,179.135 153.199,179.231 153.661 C 179.327 154.124,179.755 155.204,180.181 156.062 C 180.608 156.921,181.095 158.055,181.263 158.583 C 181.719 160.018,184.295 165.119,184.964 165.914 C 185.285 166.296,185.738 167.125,185.970 167.758 C 186.203 168.390,186.625 169.232,186.908 169.628 C 187.192 170.024,187.670 170.834,187.972 171.429 C 188.273 172.023,188.714 172.725,188.951 172.989 C 189.189 173.253,189.663 174.029,190.005 174.713 C 190.347 175.397,190.744 176.029,190.888 176.117 C 191.031 176.206,191.473 176.727,191.870 177.275 C 192.267 177.823,192.950 178.659,193.388 179.133 C 193.827 179.607,194.352 180.309,194.555 180.693 C 194.759 181.078,195.579 182.203,196.378 183.193 C 197.924 185.110,198.275 186.579,197.605 188.340 C 197.418 188.831,197.444 188.956,197.731 188.956 C 199.294 188.956,198.815 183.406,197.119 181.873 C 196.827 181.609,196.384 180.993,196.134 180.504 C 195.885 180.016,195.105 179.026,194.401 178.305 C 193.696 177.583,192.921 176.687,192.678 176.312 C 192.434 175.937,192.036 175.488,191.791 175.313 C 191.547 175.139,191.079 174.467,190.751 173.820 C 190.423 173.172,189.832 172.404,189.438 172.112 C 188.963 171.761,188.672 171.294,188.575 170.725 C 188.495 170.254,188.070 169.328,187.631 168.667 C 187.191 168.007,186.613 166.840,186.347 166.074 C 186.080 165.307,185.546 164.320,185.159 163.880 C 184.710 163.368,184.397 162.686,184.293 161.987 C 184.203 161.386,183.849 160.483,183.506 159.979 C 183.164 159.476,182.670 158.307,182.409 157.383 C 182.147 156.459,181.609 155.250,181.213 154.697 C 180.641 153.899,180.425 153.233,180.162 151.467 C 179.932 149.918,179.653 148.973,179.244 148.355 C 178.623 147.416,177.913 145.049,177.909 143.903 C 177.907 143.526,177.528 142.137,177.066 140.816 C 176.129 138.137,175.772 136.262,175.034 130.132 C 174.390 124.793,173.902 121.920,173.446 120.780 C 172.834 119.251,173.111 112.859,173.915 109.964 C 174.332 108.462,174.712 106.043,175.029 102.881 C 175.668 96.497,175.869 95.363,176.841 92.677 C 177.294 91.423,177.827 89.303,178.024 87.966 C 178.430 85.212,178.506 84.958,179.269 83.790 C 179.623 83.249,179.918 82.258,180.092 81.029 C 180.390 78.923,180.687 78.099,181.348 77.548 C 181.591 77.346,182.033 76.252,182.345 75.085 C 182.680 73.830,183.099 72.817,183.386 72.567 C 183.650 72.337,184.098 71.430,184.382 70.552 C 184.665 69.674,185.152 68.658,185.464 68.295 C 185.776 67.932,186.213 66.976,186.435 66.171 C 186.657 65.365,187.015 64.436,187.231 64.106 C 187.990 62.944,188.475 61.942,188.475 61.535 C 188.475 61.309,188.935 60.670,189.496 60.115 C 190.935 58.693,191.975 57.386,192.697 56.093 C 193.040 55.481,193.512 54.845,193.748 54.680 C 194.277 54.309,195.759 52.385,196.258 51.420 C 196.462 51.026,196.881 50.504,197.190 50.261 C 198.761 49.024,199.175 45.424,197.970 43.474 C 197.640 42.940,197.341 43.245,197.458 43.998 M229.442 61.448 C 227.512 61.720,227.610 61.043,227.617 74.055 C 227.620 80.402,227.723 86.026,227.845 86.555 C 228.291 88.482,227.010 88.354,246.065 88.363 C 259.787 88.369,263.105 88.432,263.445 88.690 C 263.826 88.978,263.866 89.577,263.866 95.036 C 263.866 100.534,263.829 101.082,263.445 101.279 C 263.214 101.398,260.108 101.562,256.543 101.645 C 250.045 101.795,247.095 102.135,245.973 102.865 C 245.298 103.304,244.189 103.450,239.496 103.719 C 235.373 103.955,233.357 104.323,232.267 105.037 C 231.917 105.266,230.515 105.571,228.873 105.775 C 226.777 106.035,225.690 106.302,224.535 106.842 C 223.688 107.239,222.849 107.563,222.671 107.563 C 222.100 107.563,220.070 108.325,219.428 108.779 C 219.087 109.021,218.230 109.447,217.523 109.725 C 216.816 110.004,215.876 110.550,215.434 110.938 C 214.991 111.327,214.532 111.645,214.413 111.645 C 214.294 111.645,213.953 112.077,213.657 112.605 C 213.360 113.133,213.039 113.565,212.945 113.565 C 211.981 113.565,211.389 117.238,212.094 118.848 C 212.620 120.050,214.235 122.287,214.782 122.569 C 215.037 122.701,215.516 123.083,215.846 123.419 C 216.176 123.754,217.095 124.231,217.887 124.478 C 218.679 124.726,219.706 125.225,220.168 125.586 C 220.813 126.090,221.538 126.332,223.289 126.625 C 224.560 126.838,226.089 127.272,226.741 127.604 C 227.999 128.245,228.120 128.271,231.933 128.710 C 233.319 128.870,234.690 129.155,234.979 129.344 C 236.002 130.013,238.106 130.377,242.257 130.603 C 244.568 130.728,246.675 130.887,246.939 130.955 C 250.873 131.970,253.212 132.285,257.863 132.423 C 260.608 132.505,263.024 132.686,263.325 132.832 L 263.866 133.094 263.876 157.003 C 263.888 183.430,263.843 182.638,265.384 183.774 C 266.233 184.400,289.323 184.693,291.138 184.100 C 293.156 183.441,293.028 185.178,293.109 157.490 L 293.180 133.107 294.253 132.820 C 294.842 132.662,296.377 132.524,297.663 132.513 C 301.487 132.480,305.195 132.150,306.603 131.718 C 309.053 130.966,309.593 130.888,314.166 130.624 C 319.237 130.331,320.999 130.062,322.137 129.405 C 322.643 129.113,324.033 128.829,326.218 128.571 C 328.806 128.266,329.847 128.031,330.972 127.500 C 331.765 127.127,333.141 126.709,334.032 126.572 C 335.163 126.398,335.959 126.106,336.673 125.603 C 337.235 125.208,338.181 124.749,338.776 124.584 C 340.803 124.021,344.335 121.038,344.645 119.626 C 344.727 119.255,345.060 118.641,345.386 118.262 C 346.090 117.443,346.138 116.721,345.542 115.939 C 345.302 115.624,344.958 114.988,344.778 114.526 C 344.180 112.992,341.587 110.542,339.787 109.810 C 339.297 109.610,338.193 109.095,337.335 108.664 C 336.477 108.234,335.126 107.743,334.334 107.572 C 333.541 107.402,332.588 107.006,332.214 106.693 C 331.841 106.379,331.409 106.119,331.254 106.115 C 329.102 106.058,325.274 105.356,324.250 104.831 C 322.808 104.092,320.685 103.727,317.767 103.719 C 315.164 103.711,312.916 103.406,310.878 102.786 C 308.214 101.975,306.367 101.774,299.934 101.594 C 296.224 101.490,293.538 101.317,293.393 101.173 C 293.237 101.016,293.172 98.782,293.213 94.963 L 293.277 88.998 294.118 88.695 C 294.760 88.463,298.688 88.387,310.804 88.372 C 327.950 88.351,328.036 88.345,329.020 87.055 C 330.041 85.717,330.120 84.751,330.126 73.571 L 330.132 62.989 329.592 62.483 C 328.316 61.288,330.855 61.347,279.112 61.314 C 252.437 61.297,230.086 61.358,229.442 61.448 M327.894 62.571 L 328.571 63.078 328.571 74.137 L 328.571 85.196 327.971 85.846 C 326.617 87.313,327.214 87.264,309.410 87.395 L 293.130 87.515 292.669 88.115 C 292.241 88.671,292.207 89.175,292.202 94.976 L 292.197 101.237 292.771 101.777 C 293.313 102.285,293.639 102.329,298.474 102.529 C 305.322 102.813,306.034 102.916,305.469 103.541 C 304.518 104.592,303.442 104.888,299.614 105.151 C 297.581 105.290,295.283 105.449,294.506 105.503 C 292.228 105.663,292.335 105.286,292.197 113.644 C 292.058 122.019,292.101 121.853,289.863 122.843 L 288.530 123.432 277.917 123.361 L 267.305 123.289 266.366 122.636 C 264.678 121.464,264.717 121.662,264.626 113.758 C 264.545 106.764,264.533 106.616,264.006 106.047 C 263.399 105.392,261.388 105.020,259.932 105.293 C 259.181 105.434,257.147 105.193,252.608 104.425 C 251.256 104.196,250.660 103.870,250.660 103.360 C 250.660 102.953,252.767 102.743,258.748 102.554 L 263.594 102.401 264.330 101.696 L 265.066 100.991 265.066 94.938 L 265.066 88.885 264.217 88.140 L 263.369 87.395 247.351 87.391 C 227.522 87.387,228.698 87.604,228.286 83.880 C 227.926 80.636,228.127 63.081,228.529 62.596 C 229.027 61.997,227.604 62.013,278.674 62.039 L 327.216 62.065 327.894 62.571 M319.960 104.819 C 320.541 104.936,320.762 105.143,320.929 105.724 C 321.048 106.138,321.393 106.600,321.697 106.752 C 322.725 107.264,318.585 107.670,315.572 107.352 C 313.220 107.104,309.974 105.552,310.567 104.959 C 310.966 104.560,318.144 104.453,319.960 104.819 M246.041 105.038 C 246.139 105.142,246.082 105.277,245.914 105.336 C 245.747 105.396,245.477 105.570,245.314 105.724 C 243.896 107.059,237.378 108.046,236.405 107.073 C 236.056 106.724,236.581 104.942,237.065 104.832 C 237.883 104.646,245.846 104.829,246.041 105.038 M263.332 106.663 C 263.481 106.846,263.616 109.777,263.678 114.166 C 263.761 120.020,263.851 121.548,264.162 122.329 C 264.373 122.857,264.609 123.582,264.688 123.940 L 264.830 124.590 278.003 124.589 C 288.214 124.587,291.269 124.519,291.590 124.284 C 292.713 123.463,292.967 121.797,293.127 114.187 L 293.277 107.005 294.118 106.702 C 295.721 106.124,303.770 106.447,306.592 107.202 C 309.584 108.003,311.330 108.289,313.999 108.418 C 317.581 108.590,319.863 108.941,321.239 109.533 C 321.839 109.790,323.503 110.156,324.937 110.345 C 328.317 110.790,328.707 110.894,329.342 111.518 C 329.651 111.822,330.634 112.229,331.698 112.494 C 335.301 113.391,337.293 117.063,334.550 117.752 C 334.187 117.843,333.443 118.239,332.896 118.632 C 332.189 119.139,331.419 119.420,330.236 119.603 C 329.267 119.753,327.919 120.190,327.011 120.649 C 325.725 121.298,324.984 121.486,322.809 121.712 C 319.251 122.081,317.463 122.431,316.388 122.969 C 315.641 123.342,314.155 123.502,307.624 123.911 C 299.848 124.399,298.689 124.501,293.998 125.108 C 289.451 125.696,261.362 125.473,259.637 124.835 C 258.982 124.592,251.521 123.961,245.953 123.677 C 242.397 123.495,241.437 123.369,240.671 122.980 C 239.507 122.388,237.847 122.052,234.454 121.721 C 231.239 121.408,231.006 121.353,229.321 120.502 C 228.452 120.064,227.403 119.769,226.342 119.665 C 224.923 119.525,224.558 119.383,223.616 118.604 C 223.017 118.109,222.186 117.607,221.768 117.488 C 220.626 117.162,220.485 115.055,221.574 114.577 C 221.961 114.407,222.407 113.957,222.564 113.577 C 222.811 112.982,223.082 112.830,224.528 112.476 C 225.465 112.246,226.512 111.806,226.902 111.479 C 227.599 110.891,227.763 110.854,232.472 110.221 C 233.496 110.083,234.999 109.690,235.814 109.347 C 237.104 108.804,237.826 108.694,241.397 108.499 C 243.653 108.375,245.889 108.168,246.366 108.039 C 246.844 107.909,247.502 107.803,247.829 107.803 C 248.155 107.803,249.277 107.581,250.322 107.309 C 253.870 106.387,262.746 105.946,263.332 106.663 M232.365 108.076 L 232.437 109.190 230.887 109.460 C 229.975 109.619,228.493 109.665,227.287 109.573 L 225.237 109.415 225.083 110.110 C 224.999 110.492,224.893 110.926,224.849 111.076 C 224.804 111.225,224.253 111.522,223.625 111.736 C 221.088 112.600,219.072 115.973,220.236 117.407 C 220.981 118.325,224.300 120.265,225.581 120.531 C 226.318 120.683,227.397 121.019,227.980 121.277 C 228.562 121.535,230.483 121.999,232.248 122.308 C 234.013 122.618,235.667 122.984,235.925 123.121 C 236.751 123.563,240.290 124.123,244.632 124.497 C 246.957 124.698,250.264 125.067,251.981 125.317 C 259.154 126.364,264.070 126.581,280.065 126.561 C 293.164 126.545,297.648 126.296,306.723 125.082 C 308.571 124.835,311.110 124.565,312.365 124.482 C 316.064 124.238,319.685 123.691,320.977 123.181 C 321.641 122.920,323.214 122.540,324.473 122.338 C 325.732 122.135,327.169 121.819,327.667 121.636 C 328.164 121.452,329.004 121.141,329.532 120.945 C 330.060 120.748,331.109 120.396,331.863 120.162 C 334.371 119.384,336.388 117.754,336.840 116.139 L 337.158 115.002 336.346 114.137 C 335.900 113.661,335.348 113.071,335.120 112.825 C 334.892 112.579,334.406 112.313,334.040 112.234 C 332.628 111.932,331.317 111.344,331.084 110.909 C 330.710 110.209,329.967 109.919,327.989 109.701 C 324.927 109.362,324.370 109.230,324.370 108.839 C 324.370 108.640,324.155 108.176,323.893 107.807 L 323.415 107.137 323.953 106.993 C 326.179 106.397,330.134 107.032,330.875 108.105 C 330.954 108.219,331.969 108.476,333.131 108.677 C 334.350 108.887,335.609 109.269,336.109 109.579 C 336.585 109.875,337.444 110.302,338.018 110.528 C 344.078 112.913,345.907 117.463,342.161 120.840 C 340.253 122.560,335.011 125.382,333.133 125.700 C 332.605 125.789,331.073 126.232,329.730 126.684 C 328.246 127.183,325.982 127.694,323.967 127.985 C 322.142 128.248,319.406 128.775,317.887 129.155 C 316.120 129.598,314.132 129.904,312.365 130.005 C 310.846 130.092,308.199 130.319,306.483 130.508 C 300.562 131.162,299.030 131.322,296.279 131.574 C 294.289 131.757,293.350 131.950,292.917 132.266 L 292.317 132.705 292.197 156.809 C 292.062 183.912,292.220 181.873,290.182 182.856 L 288.986 183.433 279.007 183.428 C 268.357 183.421,267.286 183.326,266.205 182.293 C 265.069 181.206,265.069 181.207,265.067 156.495 L 265.066 133.038 264.223 132.395 C 263.475 131.824,263.078 131.730,260.682 131.560 C 259.198 131.455,257.227 131.257,256.303 131.120 C 255.378 130.984,253.217 130.752,251.501 130.604 C 243.715 129.936,238.819 129.408,238.568 129.210 C 238.016 128.774,236.528 128.446,232.937 127.968 C 230.261 127.612,228.953 127.323,228.135 126.908 C 227.517 126.594,226.417 126.208,225.690 126.050 C 218.234 124.426,212.253 119.952,212.846 116.441 C 213.162 114.570,215.406 112.190,217.952 111.025 C 221.618 109.348,222.239 109.148,224.223 109.000 C 226.172 108.856,226.264 108.821,227.074 107.938 C 228.087 106.833,228.563 106.688,230.665 106.843 L 232.293 106.963 232.365 108.076"/></g></svg>